<svg width="123" height="18" viewBox="0 0 123 18" fill="none" xmlns="http://www.w3.org/2000/svg">
<path d="M12.88 13L13.8042 12.618L13.5487 12H12.88V13ZM6.38 13V12H5.71128L5.45583 12.618L6.38 13ZM5.14 16V17H5.80872L6.06417 16.382L5.14 16ZM1.82 16L0.906619 15.5929L0.279452 17H1.82V16ZM8.06 2V0.999999H7.41088L7.14662 1.59289L8.06 2ZM11.26 2L12.1729 1.5918L11.9083 0.999999H11.26V2ZM17.52 16V17H19.0626L18.4329 15.5918L17.52 16ZM14.12 16L13.1958 16.382L13.4513 17H14.12V16ZM11.86 10.54V11.54H13.3566L12.7839 10.1573L11.86 10.54ZM9.64 5.18L10.5639 4.79734L9.64 2.56669L8.71611 4.79734L9.64 5.18ZM7.42 10.54L6.49611 10.1573L5.92344 11.54H7.42V10.54ZM12.88 12H6.38V14H12.88V12ZM5.45583 12.618L4.21583 15.618L6.06417 16.382L7.30417 13.382L5.45583 12.618ZM5.14 15H1.82V17H5.14V15ZM2.73338 16.4071L8.97338 2.40711L7.14662 1.59289L0.906619 15.5929L2.73338 16.4071ZM8.06 3H11.26V0.999999H8.06V3ZM10.3471 2.40819L16.6071 16.4082L18.4329 15.5918L12.1729 1.5918L10.3471 2.40819ZM17.52 15H14.12V17H17.52V15ZM15.0442 15.618L13.8042 12.618L11.9558 13.382L13.1958 16.382L15.0442 15.618ZM12.7839 10.1573L10.5639 4.79734L8.71611 5.56266L10.9361 10.9227L12.7839 10.1573ZM8.71611 4.79734L6.49611 10.1573L8.34389 10.9227L10.5639 5.56266L8.71611 4.79734ZM7.42 11.54H11.86V9.54H7.42V11.54ZM18.9725 2V0.999999H17.9725V2H18.9725ZM22.2125 2H23.2125V0.999999H22.2125V2ZM22.2125 13.36H21.2125V14.36H22.2125V13.36ZM29.2325 13.36H30.2325V12.36H29.2325V13.36ZM29.2325 16V17H30.2325V16H29.2325ZM18.9725 16H17.9725V17H18.9725V16ZM18.9725 3H22.2125V0.999999H18.9725V3ZM21.2125 2V13.36H23.2125V2H21.2125ZM22.2125 14.36H29.2325V12.36H22.2125V14.36ZM28.2325 13.36V16H30.2325V13.36H28.2325ZM29.2325 15H18.9725V17H29.2325V15ZM19.9725 16V2H17.9725V16H19.9725ZM31.0428 2V0.999999H30.0428V2H31.0428ZM34.2828 2H35.2828V0.999999H34.2828V2ZM34.2828 13.36H33.2828V14.36H34.2828V13.36ZM41.3028 13.36H42.3028V12.36H41.3028V13.36ZM41.3028 16V17H42.3028V16H41.3028ZM31.0428 16H30.0428V17H31.0428V16ZM31.0428 3H34.2828V0.999999H31.0428V3ZM33.2828 2V13.36H35.2828V2H33.2828ZM34.2828 14.36H41.3028V12.36H34.2828V14.36ZM40.3028 13.36V16H42.3028V13.36H40.3028ZM41.3028 15H31.0428V17H41.3028V15ZM32.0428 16V2H30.0428V16H32.0428ZM48.7772 2V0.999999H47.7772V2H48.7772ZM52.0172 2H53.0172V0.999999H52.0172V2ZM52.0172 16V17H53.0172V16H52.0172ZM48.7772 16H47.7772V17H48.7772V16ZM48.7772 3H52.0172V0.999999H48.7772V3ZM51.0172 2V16H53.0172V2H51.0172ZM52.0172 15H48.7772V17H52.0172V15ZM49.7772 16V2H47.7772V16H49.7772ZM68.1797 2H69.1797V0.999999H68.1797V2ZM68.1797 16V17H69.1797V16H68.1797ZM65.5197 16L64.7469 16.6346L65.0469 17H65.5197V16ZM58.5397 7.5L59.3125 6.86538L57.5397 4.7065V7.5H58.5397ZM58.5397 16V17H59.5397V16H58.5397ZM55.3397 16H54.3397V17H55.3397V16ZM55.3397 2V0.999999H54.3397V2H55.3397ZM58.0197 2L58.7934 1.36646L58.4933 0.999999H58.0197V2ZM64.9797 10.5L64.206 11.1335L65.9797 13.2997V10.5H64.9797ZM64.9797 2V0.999999H63.9797V2H64.9797ZM67.1797 2V16H69.1797V2H67.1797ZM68.1797 15H65.5197V17H68.1797V15ZM66.2925 15.3654L59.3125 6.86538L57.7669 8.13462L64.7469 16.6346L66.2925 15.3654ZM57.5397 7.5V16H59.5397V7.5H57.5397ZM58.5397 15H55.3397V17H58.5397V15ZM56.3397 16V2H54.3397V16H56.3397ZM55.3397 3H58.0197V0.999999H55.3397V3ZM57.246 2.63353L64.206 11.1335L65.7534 9.86646L58.7934 1.36646L57.246 2.63353ZM65.9797 10.5V2H63.9797V10.5H65.9797ZM64.9797 3H68.1797V0.999999H64.9797V3ZM79.9961 15.3L79.5208 16.1798L79.525 16.1821L79.9961 15.3ZM77.2561 12.72L76.395 13.2284L76.3986 13.2345L76.4023 13.2406L77.2561 12.72ZM77.2561 5.3L76.3995 4.78398L76.3977 4.78704L77.2561 5.3ZM79.9961 2.7L79.525 1.81791L79.5208 1.82018L79.9961 2.7ZM90.5961 5.3L89.7395 5.81602L89.7423 5.82061L90.5961 5.3ZM90.5961 12.72L91.4499 13.2406L91.4527 13.236L90.5961 12.72ZM87.8561 15.3L88.3314 16.1798L88.3314 16.1798L87.8561 15.3ZM86.1761 12.92L86.6647 13.7925L86.6713 13.7888L86.6778 13.785L86.1761 12.92ZM87.7361 11.32L86.8668 10.8257L86.8631 10.8322L86.8595 10.8387L87.7361 11.32ZM87.7361 6.68L86.8595 7.16126L86.8631 7.16781L86.8668 7.1743L87.7361 6.68ZM86.1761 5.1L85.6744 5.96503L85.6809 5.96882L85.6875 5.97251L86.1761 5.1ZM81.6961 5.1L82.1847 5.97251L82.1913 5.96882L82.1978 5.96503L81.6961 5.1ZM80.1161 6.68L79.2468 6.1857L79.2431 6.19219L79.2395 6.19874L80.1161 6.68ZM80.1161 11.32L79.2395 11.8013L79.2431 11.8078L79.2468 11.8143L80.1161 11.32ZM81.6961 12.92L81.1944 13.785L81.2009 13.7888L81.2075 13.7925L81.6961 12.92ZM83.9361 15.24C82.6315 15.24 81.4824 14.9602 80.4672 14.4179L79.525 16.1821C80.8564 16.8932 82.334 17.24 83.9361 17.24V15.24ZM80.4714 14.4202C79.4623 13.875 78.6816 13.137 78.1099 12.1994L76.4023 13.2406C77.1639 14.4897 78.2099 15.4716 79.5208 16.1798L80.4714 14.4202ZM78.1172 12.2116C77.5611 11.2696 77.2761 10.2072 77.2761 9H75.2761C75.2761 10.5394 75.6445 11.9571 76.395 13.2284L78.1172 12.2116ZM77.2761 9C77.2761 7.79266 77.5611 6.73912 78.1145 5.81295L76.3977 4.78704C75.6445 6.04754 75.2761 7.46068 75.2761 9H77.2761ZM78.1127 5.81601C78.6851 4.86579 79.4653 4.12332 80.4714 3.57982L79.5208 1.82018C78.2068 2.53001 77.1604 3.52088 76.3995 4.78399L78.1127 5.81601ZM80.4672 3.58207C81.4824 3.03984 82.6315 2.76 83.9361 2.76V0.76C82.334 0.76 80.8564 1.10682 79.525 1.81792L80.4672 3.58207ZM83.9361 2.76C85.2408 2.76 86.3813 3.03988 87.3808 3.57982L88.3314 1.82018C87.0109 1.10679 85.538 0.76 83.9361 0.76V2.76ZM87.3808 3.57982C88.3868 4.12332 89.1671 4.86579 89.7395 5.81601L91.4527 4.78399C90.6918 3.52088 89.6453 2.53001 88.3314 1.82018L87.3808 3.57982ZM89.7423 5.82061C90.3064 6.74572 90.5961 7.7965 90.5961 9H92.5961C92.5961 7.45683 92.2191 6.04095 91.4499 4.77939L89.7423 5.82061ZM90.5961 9C90.5961 10.2034 90.3064 11.263 89.7395 12.204L91.4527 13.236C92.2191 11.9637 92.5961 10.5433 92.5961 9H90.5961ZM89.7423 12.1994C89.1706 13.137 88.3899 13.875 87.3808 14.4202L88.3314 16.1798C89.6423 15.4716 90.6883 14.4897 91.4499 13.2406L89.7423 12.1994ZM87.3808 14.4202C86.3813 14.9601 85.2408 15.24 83.9361 15.24V17.24C85.538 17.24 87.0109 16.8932 88.3314 16.1798L87.3808 14.4202ZM83.9361 14.48C84.9194 14.48 85.8367 14.2562 86.6647 13.7925L85.6875 12.0475C85.1822 12.3305 84.6061 12.48 83.9361 12.48V14.48ZM86.6778 13.785C87.5031 13.3063 88.1523 12.6398 88.6127 11.8013L86.8595 10.8387C86.5732 11.3602 86.1824 11.7603 85.6744 12.055L86.6778 13.785ZM88.6054 11.8143C89.0867 10.9678 89.3161 10.0208 89.3161 9H87.3161C87.3161 9.7125 87.1588 10.3122 86.8668 10.8257L88.6054 11.8143ZM89.3161 9C89.3161 7.97917 89.0867 7.03217 88.6054 6.1857L86.8668 7.1743C87.1588 7.68783 87.3161 8.2875 87.3161 9H89.3161ZM88.6127 6.19874C88.1507 5.35721 87.4974 4.6938 86.6647 4.22749L85.6875 5.97251C86.1881 6.25286 86.5749 6.64278 86.8595 7.16126L88.6127 6.19874ZM86.6778 4.23497C85.8477 3.75348 84.9257 3.52 83.9361 3.52V5.52C84.5998 5.52 85.1712 5.67319 85.6744 5.96503L86.6778 4.23497ZM83.9361 3.52C82.9465 3.52 82.0245 3.75348 81.1944 4.23497L82.1978 5.96503C82.701 5.67319 83.2724 5.52 83.9361 5.52V3.52ZM81.2075 4.22749C80.3779 4.69206 79.7213 5.35126 79.2468 6.1857L80.9854 7.1743C81.2842 6.64874 81.6809 6.25461 82.1847 5.97251L81.2075 4.22749ZM79.2395 6.19874C78.7761 7.04288 78.5561 7.98517 78.5561 9H80.5561C80.5561 8.2815 80.7095 7.67712 80.9927 7.16126L79.2395 6.19874ZM78.5561 9C78.5561 10.0148 78.7761 10.9571 79.2395 11.8013L80.9927 10.8387C80.7095 10.3229 80.5561 9.7185 80.5561 9H78.5561ZM79.2468 11.8143C79.7196 12.6458 80.3721 13.3081 81.1944 13.785L82.1978 12.055C81.6867 11.7585 81.2859 11.3542 80.9854 10.8257L79.2468 11.8143ZM81.2075 13.7925C82.0355 14.2562 82.9528 14.48 83.9361 14.48V12.48C83.2661 12.48 82.69 12.3305 82.1847 12.0475L81.2075 13.7925ZM106.871 2H107.871V0.999999H106.871V2ZM106.871 16V17H107.871V16H106.871ZM104.211 16L103.438 16.6346L103.738 17H104.211V16ZM97.2311 7.5L98.0039 6.86538L96.2311 4.7065V7.5H97.2311ZM97.2311 16V17H98.2311V16H97.2311ZM94.0311 16H93.0311V17H94.0311V16ZM94.0311 2V0.999999H93.0311V2H94.0311ZM96.7111 2L97.4848 1.36646L97.1847 0.999999H96.7111V2ZM103.671 10.5L102.897 11.1335L104.671 13.2997V10.5H103.671ZM103.671 2V0.999999H102.671V2H103.671ZM105.871 2V16H107.871V2H105.871ZM106.871 15H104.211V17H106.871V15ZM104.984 15.3654L98.0039 6.86538L96.4583 8.13462L103.438 16.6346L104.984 15.3654ZM96.2311 7.5V16H98.2311V7.5H96.2311ZM97.2311 15H94.0311V17H97.2311V15ZM95.0311 16V2H93.0311V16H95.0311ZM94.0311 3H96.7111V0.999999H94.0311V3ZM95.9374 2.63353L102.897 11.1335L104.445 9.86646L97.4848 1.36646L95.9374 2.63353ZM104.671 10.5V2H102.671V10.5H104.671ZM103.671 3H106.871V0.999999H103.671V3ZM121.023 13.4H122.023V12.4H121.023V13.4ZM121.023 16V17H122.023V16H121.023ZM110.183 16H109.183V17H110.183V16ZM110.183 2V0.999999H109.183V2H110.183ZM120.763 2H121.763V0.999999H120.763V2ZM120.763 4.6V5.6H121.763V4.6H120.763ZM113.403 4.6V3.6H112.403V4.6H113.403ZM113.403 7.64H112.403V8.64H113.403V7.64ZM119.903 7.64H120.903V6.64H119.903V7.64ZM119.903 10.16V11.16H120.903V10.16H119.903ZM113.403 10.16V9.16H112.403V10.16H113.403ZM113.403 13.4H112.403V14.4H113.403V13.4ZM120.023 13.4V16H122.023V13.4H120.023ZM121.023 15H110.183V17H121.023V15ZM111.183 16V2H109.183V16H111.183ZM110.183 3H120.763V0.999999H110.183V3ZM119.763 2V4.6H121.763V2H119.763ZM120.763 3.6H113.403V5.6H120.763V3.6ZM112.403 4.6V7.64H114.403V4.6H112.403ZM113.403 8.64H119.903V6.64H113.403V8.64ZM118.903 7.64V10.16H120.903V7.64H118.903ZM119.903 9.16H113.403V11.16H119.903V9.16ZM112.403 10.16V13.4H114.403V10.16H112.403ZM113.403 14.4H121.023V12.4H113.403V14.4Z" fill="#00C3FF" fill-opacity="0.4"/>
</svg>
