<svg width="25" height="23" viewBox="0 0 25 23" fill="none" xmlns="http://www.w3.org/2000/svg">
<path fill-rule="evenodd" clip-rule="evenodd" d="M8.39695 11.737V13.1967H5.15267V11.737C4.83156 11.6309 4.51567 11.5009 4.24413 11.3634L3.13301 12.464L0.931275 10.2618L2.02134 9.13921C1.85137 8.87161 1.70209 8.62132 1.5912 8.10656H0V5.09016H1.57536C1.66798 4.81143 1.7962 4.47534 1.96039 4.15601L0.916739 3.18301L3.1278 0.994725L4.13716 1.99866C4.46889 1.82606 4.84312 1.68549 5.15267 1.57991V0H8.39695V1.58018C8.6888 1.68034 9.04364 1.81556 9.37332 1.98871L10.3404 0.977327L12.5591 3.15208L11.5175 4.15288C11.6837 4.47451 11.8127 4.81143 11.9055 5.09016H13.5496V8.10656H11.8902C11.7793 8.62344 11.6315 8.87566 11.4632 9.14225L12.5591 10.3097L10.3693 12.4873L9.2697 11.3758C8.95754 11.5352 8.64929 11.6535 8.39695 11.737ZM4.14499 10.6608L4.33527 10.769C4.65936 10.9532 5.09173 11.1319 5.52131 11.2594L5.72519 11.3199V12.6311H7.82443V11.3199L8.02831 11.2594C8.44391 11.1361 8.85299 10.9658 9.18025 10.78L9.37258 10.6707L10.3726 11.6814L11.7655 10.2962L10.748 9.21193L10.8603 9.0293C10.8905 8.98023 10.9198 8.93393 10.9483 8.8891C11.1414 8.5844 11.2689 8.38308 11.3702 7.77765L11.4098 7.54098H12.9771V5.65574H11.483L11.4215 5.45451C11.3397 5.1859 11.1649 4.67086 10.9146 4.23996L10.8039 4.0496L11.742 3.14803L10.3538 1.78703L9.47657 2.70443L9.27883 2.58577C8.87237 2.34192 8.36638 2.16417 8.02104 2.05159L7.82443 1.98761V0.565574H5.72519V1.98761L5.52857 2.05159C5.16199 2.17107 4.62898 2.3572 4.23593 2.59258L4.04323 2.70802L3.12668 1.79632L1.73787 3.17086L2.67716 4.04656L2.56497 4.23987C2.32921 4.64601 2.15999 5.1245 2.05954 5.45442L1.99823 5.65574H0.572519V7.54098H2.07184L2.11135 7.77774C2.21087 8.37452 2.34487 8.58523 2.53068 8.87677L2.54279 8.89587C2.56996 8.93868 2.59796 8.98279 2.62665 9.02948L2.7409 9.21524L1.73004 10.2561L3.13488 11.6611L4.14499 10.6608ZM6.74036 4.18924C8.16402 4.18924 9.3221 5.33355 9.3221 6.74003C9.3221 8.14642 8.16402 9.29064 6.74036 9.29064C5.31708 9.29064 4.15918 8.14642 4.15918 6.74003C4.15918 5.33355 5.31708 4.18924 6.74036 4.18924ZM6.74036 4.75481C5.63278 4.75481 4.7317 5.64534 4.7317 6.74003C4.7317 7.83454 5.63278 8.72506 6.74036 8.72506C7.84831 8.72506 8.74958 7.83454 8.74958 6.74003C8.74958 5.64534 7.84831 4.75481 6.74036 4.75481ZM19.5059 9.29091C18.3206 9.29091 17.3563 10.2437 17.3563 11.4148C17.3563 12.5857 18.3206 13.5382 19.5059 13.5382C20.691 13.5382 21.6551 12.5857 21.6551 11.4148C21.6551 10.2437 20.691 9.29091 19.5059 9.29091ZM19.5059 12.9727C18.6363 12.9727 17.9288 12.2738 17.9288 11.4148C17.9288 10.5555 18.6363 9.85649 19.5059 9.85649C20.3753 9.85649 21.0825 10.5555 21.0825 11.4148C21.0825 12.2738 20.3753 12.9727 19.5059 12.9727ZM25.0001 12.8197H23.6754C23.6567 12.8619 23.637 12.9083 23.6167 12.9557C23.5509 13.1098 23.4737 13.2905 23.3872 13.4593L24.2816 14.3044L22.3835 16.1453L21.4203 15.2495C21.2127 15.3838 21.0325 15.478 20.6107 15.5482V16.7787H18.1298V15.4934C18.0918 15.4796 18.0508 15.4652 18.009 15.4504L18.0048 15.4489L18.0015 15.4477L18.0014 15.4477L18.0014 15.4477C17.8415 15.3911 17.6541 15.3247 17.4805 15.2465L16.5834 16.1689L14.7051 14.33L15.6126 13.4602C15.5283 13.2926 15.4551 13.1135 15.3926 12.9606L15.3914 12.9576C15.3716 12.9094 15.3524 12.8625 15.3345 12.8197H14.1222V9.9918H15.2654C15.3356 9.76683 15.4279 9.55004 15.5537 9.31337L14.6949 8.53092L16.5656 6.6743L17.3784 7.49137C17.5849 7.36212 17.7796 7.24789 18.1298 7.16173V6.03279H20.6107V7.14875C21.0981 7.2361 21.3001 7.3555 21.5116 7.49118L22.444 6.6744L24.3071 8.4953L23.4523 9.30886C23.5816 9.55059 23.6754 9.76876 23.7458 9.9918H25.0001V12.8197ZM22.3753 15.3608L23.459 14.3097L22.6662 13.5608L22.7858 13.3666C22.8965 13.1867 23.0035 12.9367 23.0892 12.7357L23.0897 12.7346L23.0898 12.7344C23.147 12.6008 23.1964 12.4854 23.2408 12.4035L23.3216 12.2541H24.4275V10.5574H23.3036L23.2503 10.3418C23.1731 10.0304 23.0564 9.75642 22.8473 9.39631L22.7364 9.20503L23.4875 8.48996L22.4226 7.44911L21.572 8.19438L21.3914 8.08612C21.3336 8.05146 21.282 8.01832 21.2327 7.98661L21.2326 7.9865L21.2325 7.98647L21.2306 7.98523L21.2306 7.9852C21.0077 7.84171 20.8604 7.7469 20.2865 7.67115L20.0382 7.63838V6.59836H18.7023V7.6277L18.4664 7.66921C18.0437 7.74368 17.8853 7.8431 17.6458 7.99361C17.595 8.02555 17.5418 8.05887 17.4839 8.09358L17.2902 8.20957L16.563 7.47866L15.5201 8.51343L16.2747 9.20079L16.1609 9.3965C15.9588 9.74391 15.8394 10.0266 15.7613 10.3418L15.708 10.5574H14.6947V12.2541H15.6903L15.7712 12.4037C15.8172 12.4888 15.8658 12.608 15.9221 12.7458L15.9237 12.7498L15.9238 12.7498C16.0045 12.9472 16.1046 13.1916 16.2123 13.3666L16.331 13.5593L15.5229 14.3342L16.5733 15.3629L17.3694 14.5445L17.5635 14.6545C17.7394 14.7543 17.9936 14.8442 18.1977 14.9164C18.3361 14.9653 18.4558 15.0077 18.5413 15.0488L18.7023 15.1262V16.2131H20.0382V15.0526L20.2898 15.0224C20.8295 14.9575 20.9481 14.8801 21.1272 14.7629L21.1303 14.7609L21.1303 14.7609L21.1303 14.7608C21.1851 14.7252 21.2428 14.6877 21.3122 14.6482L21.4965 14.5435L22.3753 15.3608ZM10.2118 16.5237C9.168 16.5237 8.31873 17.3628 8.31873 18.3941C8.31873 19.4252 9.168 20.264 10.2118 20.264C11.2557 20.264 12.105 19.4252 12.105 18.3941C12.105 17.3628 11.2557 16.5237 10.2118 16.5237ZM10.2118 19.6984C9.4837 19.6984 8.89124 19.1133 8.89124 18.3941C8.89124 17.6746 9.4837 17.0893 10.2118 17.0893C10.94 17.0893 11.5324 17.6746 11.5324 18.3941C11.5324 19.1133 10.94 19.6984 10.2118 19.6984ZM14.4069 15.8829L13.6644 16.5973C13.7607 16.7736 13.8405 16.9448 13.9035 17.1557H14.8854V19.6066H13.8686C13.801 19.8179 13.7182 19.9828 13.629 20.1372L14.4143 20.8839L12.7501 22.5373L11.9589 21.7399C11.7945 21.8152 11.621 21.8787 11.473 21.9328L11.4706 21.9337L11.4503 21.9411V23H8.96942V21.9415L8.94519 21.9327L8.94464 21.9325C8.79884 21.8797 8.62816 21.8179 8.46567 21.7441L7.69262 22.5457L6.01792 20.8994L6.79973 20.1395C6.70525 19.9778 6.62231 19.815 6.55503 19.6066H5.5343V17.1557H6.52C6.5828 16.9429 6.66182 16.7709 6.7537 16.601L6.00637 15.9062L7.67305 14.2501L8.38646 14.9719C8.55913 14.8891 8.74378 14.8194 8.9014 14.7599L8.90419 14.7589L8.96942 14.7343V13.7623H11.4503V14.7335L11.5202 14.7593L11.5215 14.7598C11.6776 14.8175 11.8604 14.8851 12.0316 14.9662L12.7301 14.2394L14.4069 15.8829ZM13.4227 19.041H14.3129V17.7213H13.448L13.4001 17.4968C13.33 17.1681 13.2245 16.9715 13.0591 16.687L12.9483 16.4967L13.5902 15.8792L12.7424 15.0482L12.1378 15.6771L11.9405 15.5586C11.7668 15.4543 11.5189 15.3626 11.3195 15.289C11.2088 15.248 11.1119 15.2119 11.0442 15.181L10.8778 15.1053V14.3279H9.54193V15.1053L9.37551 15.181C9.30954 15.2111 9.21579 15.2467 9.10845 15.2872L9.10731 15.2877C8.9066 15.3635 8.6571 15.4577 8.48095 15.5633L8.28638 15.68L7.66932 15.0559L6.82713 15.8928L7.47308 16.4932L7.36051 16.6869C7.20359 16.957 7.0955 17.1593 7.02337 17.4969L6.97548 17.7213H6.10682V19.041H7.0012L7.05245 19.2602C7.12899 19.5882 7.24238 19.7729 7.39914 20.0283L7.39946 20.0288L7.51687 20.2201L7.36144 20.3869L6.83197 20.9016L7.68181 21.7371L8.3531 21.0411L8.54785 21.1514C8.7195 21.2486 8.95395 21.3336 9.14236 21.4018C9.2294 21.4333 9.30674 21.4614 9.36619 21.486L9.54193 21.5586V22.4344H10.8778V21.5586L11.0536 21.486C11.1117 21.462 11.187 21.4343 11.2718 21.4033L11.2747 21.4023C11.4649 21.3327 11.7008 21.2463 11.8734 21.1484L12.0653 21.0393L12.753 21.7322L13.598 20.8927L12.9032 20.2321L13.0222 20.0386C13.1787 19.7839 13.2916 19.5998 13.3714 19.26L13.4227 19.041Z" fill="white"/>
</svg>
