<svg width="131" height="122" viewBox="0 0 131 122" fill="none" xmlns="http://www.w3.org/2000/svg">
<path fill-rule="evenodd" clip-rule="evenodd" d="M44 62.2573V70H27V62.2573C25.3174 61.6943 23.6621 61.0049 22.2393 60.2754L16.417 66.1133L4.87988 54.4321L10.5918 48.4775C9.70117 47.0581 8.91895 45.7305 8.33789 43H0V27H8.25488C8.74023 25.5215 9.41211 23.7388 10.2725 22.0449L4.80371 16.8838L16.3896 5.27637L21.6787 10.6016C23.417 9.68604 25.3779 8.94043 27 8.38037V0H44V8.38184C45.5293 8.91309 47.3887 9.63037 49.1162 10.5488L54.1836 5.18408L65.8096 16.7197L60.3516 22.0283C61.2227 23.7344 61.8984 25.5215 62.3848 27H71V43H62.3047C61.7236 45.7417 60.9492 47.0796 60.0674 48.4937L65.8096 54.686L54.335 66.2368L48.5732 60.3413C46.9375 61.1865 45.3223 61.8145 44 62.2573ZM21.7197 56.5488L22.7168 57.1226C24.415 58.0996 26.6807 59.0474 28.9316 59.7236L30 60.0444V67H41V60.0444L42.0684 59.7236C44.2461 59.0698 46.3896 58.1665 48.1045 57.1807L49.1123 56.6011L54.3525 61.9624L61.6514 54.6147L56.3193 48.8633L56.9082 47.8945C57.0664 47.6343 57.2197 47.3887 57.3691 47.1509C58.3809 45.5347 59.0488 44.4668 59.5801 41.2554L59.7871 40H68V30H60.1709L59.8486 28.9326C59.4199 27.5078 58.5039 24.7759 57.1924 22.4902L56.6123 21.4805L61.5283 16.6982L54.2539 9.479L49.6572 14.3452L48.6211 13.7158C46.4912 12.4224 43.8398 11.4795 42.0303 10.8823L41 10.543V3H30V10.543L28.9697 10.8823C27.0488 11.5161 24.2559 12.5034 22.1963 13.752L21.1865 14.3643L16.3838 9.52832L9.10645 16.8193L14.0283 21.4644L13.4404 22.4897C12.2051 24.644 11.3184 27.1821 10.792 28.9321L10.4707 30H3V40H10.8564L11.0635 41.2559C11.585 44.4214 12.2871 45.5391 13.2607 47.0854L13.3242 47.1867C13.4666 47.4138 13.6133 47.6478 13.7637 47.8955L14.3623 48.8809L9.06543 54.4019L16.4268 61.8545L21.7197 56.5488ZM35.3193 22.2212C42.7793 22.2212 48.8477 28.291 48.8477 35.7515C48.8477 43.2114 42.7793 49.2808 35.3193 49.2808C27.8613 49.2808 21.7939 43.2114 21.7939 35.7515C21.7939 28.291 27.8613 22.2212 35.3193 22.2212ZM35.3193 25.2212C29.5156 25.2212 24.7939 29.9448 24.7939 35.7515C24.7939 41.5571 29.5156 46.2808 35.3193 46.2808C41.125 46.2808 45.8477 41.5571 45.8477 35.7515C45.8477 29.9448 41.125 25.2212 35.3193 25.2212ZM102.211 49.2822C96 49.2822 90.9473 54.3359 90.9473 60.5479C90.9473 66.7588 96 71.8115 102.211 71.8115C108.421 71.8115 113.473 66.7588 113.473 60.5479C113.473 54.3359 108.421 49.2822 102.211 49.2822ZM102.211 68.8115C97.6543 68.8115 93.9473 65.1045 93.9473 60.5479C93.9473 55.9902 97.6543 52.2822 102.211 52.2822C106.767 52.2822 110.473 55.9902 110.473 60.5479C110.473 65.1045 106.767 68.8115 102.211 68.8115ZM131 68H124.059C123.977 68.1867 123.892 68.3887 123.804 68.5963L123.803 68.5984L123.802 68.6008L123.751 68.7217C123.406 69.5391 123.002 70.4976 122.549 71.3931L127.235 75.8755L117.289 85.6401L112.242 80.8887C111.154 81.6011 110.21 82.1006 108 82.4731V89H95V82.1826C94.8014 82.1097 94.5874 82.0331 94.3694 81.9551L94.3665 81.9541L94.3447 81.9463L94.3277 81.9402C93.4896 81.6397 92.5075 81.2877 91.5977 80.8726L86.8965 85.7656L77.0547 76.0112L81.8096 71.3975C81.3682 70.5089 80.9847 69.5592 80.657 68.7478L80.6568 68.7473L80.6568 68.7472L80.6504 68.7314L80.6047 68.6188L80.6038 68.6164C80.5167 68.4015 80.4322 68.1928 80.3525 68H74V53H79.9902C80.3584 51.8066 80.8418 50.6567 81.501 49.4014L77.001 45.251L86.8037 35.4028L91.0625 39.7368C92.1445 39.0513 93.165 38.4453 95 37.9883V32H108V37.9194C110.554 38.3828 111.612 39.0161 112.721 39.7358L117.606 35.4033L127.369 45.062L122.89 49.3774C123.567 50.6597 124.059 51.8169 124.428 53H131V68ZM117.246 81.479L122.925 75.9038L118.771 71.9312L119.397 70.9009C119.978 69.9468 120.538 68.6206 120.987 67.5547L120.99 67.5486C121.29 66.8398 121.549 66.2273 121.781 65.7925L122.205 65H128V56H122.11L121.831 54.8564C121.427 53.2046 120.815 51.7515 119.72 49.8413L119.139 48.8267L123.074 45.0337L117.494 39.5127L113.037 43.4658L112.091 42.8916C111.787 42.7075 111.517 42.5315 111.258 42.3632L111.258 42.3631L111.258 42.363L111.248 42.3564L111.248 42.3563C110.08 41.5951 109.308 41.0923 106.301 40.6904L105 40.5166V35H98V40.46L96.7637 40.6802C94.5488 41.0752 93.7188 41.6025 92.4639 42.4009C92.1973 42.5703 91.9189 42.7471 91.6152 42.9312L90.6006 43.5464L86.79 39.6694L81.3252 45.1582L85.2793 48.8042L84.6826 49.8423C83.624 51.6851 82.998 53.1846 82.5889 54.8564L82.3096 56H77V65H82.2168L82.6406 65.7935C82.8818 66.2451 83.1367 66.877 83.4316 67.6084L83.4402 67.6295C83.8635 68.6766 84.3876 69.973 84.9521 70.9009L85.5742 71.9233L81.3398 76.0337L86.8438 81.4902L91.0156 77.1489L92.0322 77.7324C92.9541 78.2617 94.2861 78.7388 95.3555 79.1216C96.0811 79.3813 96.708 79.606 97.1562 79.8242L98 80.2349V86H105V79.8442L106.318 79.6841C109.146 79.3398 109.768 78.9292 110.706 78.3076L110.722 78.2969C111.009 78.1077 111.312 77.9086 111.676 77.6992L112.642 77.144L117.246 81.479ZM53.5098 87.6475C48.04 87.6475 43.5898 92.0981 43.5898 97.5688C43.5898 103.038 48.04 107.487 53.5098 107.487C58.9795 107.487 63.4297 103.038 63.4297 97.5688C63.4297 92.0981 58.9795 87.6475 53.5098 87.6475ZM53.5098 104.487C49.6943 104.487 46.5898 101.384 46.5898 97.5688C46.5898 93.7524 49.6943 90.6475 53.5098 90.6475C57.3252 90.6475 60.4297 93.7524 60.4297 97.5688C60.4297 101.384 57.3252 104.487 53.5098 104.487ZM75.4922 84.2485L71.6016 88.0381C72.1064 88.9731 72.5244 89.8813 72.8545 91H78V104H72.6719C72.3174 105.121 71.8838 105.996 71.416 106.814L75.5312 110.775L66.8105 119.546L62.665 115.316C61.8035 115.716 60.8945 116.052 60.1189 116.339L60.1064 116.344C60.0863 116.351 60.0664 116.359 60.0467 116.366C60.0311 116.372 60.0155 116.377 60 116.383V122H47V116.385C46.9758 116.377 46.9516 116.368 46.9272 116.359C46.9093 116.352 46.8912 116.345 46.873 116.339L46.8698 116.338C46.1059 116.058 45.2117 115.73 44.3604 115.338L40.3096 119.59L31.5342 110.857L35.6309 106.827C35.1357 105.969 34.7012 105.105 34.3486 104H29V91H34.165C34.4941 89.8711 34.9082 88.9585 35.3896 88.0576L31.4736 84.3721L40.207 75.5874L43.9453 79.416C44.8501 78.9772 45.8177 78.6074 46.6436 78.2917L46.6582 78.2861C46.7764 78.2412 46.8906 78.1978 47 78.1558V73H60V78.1514C60.0593 78.1736 60.1199 78.1963 60.1816 78.2195C60.242 78.2421 60.3035 78.2652 60.3662 78.2886L60.373 78.2911C61.1908 78.5972 62.1489 78.9558 63.0459 79.3857L66.7061 75.5308L75.4922 84.2485ZM70.335 101H75V94H70.4678L70.2168 92.8091C69.8496 91.0654 69.2969 90.0229 68.4297 88.5137L67.8496 87.5044L71.2129 84.229L66.7705 79.8208L63.6025 83.1567L62.5684 82.5283C61.6582 81.9751 60.3594 81.4888 59.3145 81.0981C58.7344 80.8809 58.2266 80.689 57.8721 80.5254L57 80.1235V76H50V80.1235L49.1279 80.5254C48.7822 80.6851 48.291 80.874 47.7285 81.0889L47.7226 81.0911C46.6709 81.4931 45.3635 81.9927 44.4404 82.5532L43.4209 83.1724L40.1875 79.8618L35.7744 84.3008L39.1592 87.4858L38.5693 88.5132C37.7471 89.9458 37.1807 91.019 36.8027 92.8096L36.5518 94H32V101H36.6865L36.9551 102.163C37.3562 103.903 37.9503 104.882 38.7717 106.237L38.7734 106.24L39.3887 107.254L38.5742 108.139L35.7998 110.869L40.2529 115.301L43.7705 111.609L44.791 112.194C45.6904 112.71 46.9189 113.161 47.9062 113.522C48.3623 113.689 48.7676 113.839 49.0791 113.969L50 114.354V119H57V114.354L57.9209 113.969C58.2256 113.842 58.6201 113.695 59.0645 113.531L59.0799 113.525C60.0763 113.156 61.3123 112.698 62.2168 112.178L63.2227 111.6L66.8262 115.275L71.2539 110.822L67.6133 107.318L68.2363 106.292C69.0566 104.94 69.6484 103.964 70.0664 102.162L70.335 101Z" fill="#00C3FF"/>
</svg>
