<svg width="125" height="112" viewBox="0 0 125 112" fill="none" xmlns="http://www.w3.org/2000/svg">
<path fill-rule="evenodd" clip-rule="evenodd" d="M5.41504 102H47V99H5.41504C4.07715 99 3 97.3643 3 96.0098V25H109V36H112V5.38037C112 2.16211 108.941 0 106.085 0H5.41504C2.37891 0 0 2.36328 0 5.38037V96.0098C0 98.8433 2.22363 102 5.41504 102ZM109 22H3V5.38037C3 4.02344 4.03809 3 5.41504 3H106.085C107.433 3 109 4.04004 109 5.38037V22ZM12 11H21V14H12V11ZM36 11H27V14H36V11ZM86.3574 88.9844C78.1973 88.9844 71.5576 82.3433 71.5576 74.1807C71.5576 66.0181 78.1973 59.377 86.3574 59.377C94.5195 59.377 101.159 66.0181 101.159 74.1807C101.159 82.3433 94.5195 88.9844 86.3574 88.9844ZM86.3574 62.377C79.8506 62.377 74.5576 67.6719 74.5576 74.1807C74.5576 80.6895 79.8506 85.9844 86.3574 85.9844C92.8652 85.9844 98.1592 80.6895 98.1592 74.1807C98.1592 67.6719 92.8652 62.377 86.3574 62.377ZM78 112H95V103.458C97.3115 102.839 99.1064 102.022 100.67 101.178L107.201 107.646L119.796 95.0879L113.482 88.7202C114.503 86.9448 115.339 85.1787 115.976 83H125V66H116.319C115.714 63.1006 114.872 61.4048 113.848 59.5923L119.811 53.4434L107.28 40.8081L101.304 46.6084C99.2363 45.4468 97.1572 44.5698 95 43.9497V35H78V43.8794C75.0801 44.5454 73.3291 45.479 71.543 46.5493L65.582 40.7241L52.9844 53.2412L58.9121 59.5732C57.8994 61.354 57.0166 63.0869 56.3994 66H48V83H56.7422C57.377 85.1899 58.207 86.9521 59.2188 88.7168L52.8906 95.0645L65.4355 107.624L72.1543 101.181C73.7344 102.111 75.1924 102.928 78 103.525V112ZM92 109H81V101.01L79.7461 100.801C76.5037 100.263 75.235 99.515 73.4797 98.4797L73.4785 98.479L71.708 97.4521L65.4805 103.424L57.1289 95.0625L62.9932 89.1802L62.3828 88.1753C61.0586 85.9922 60.0361 83.9614 59.3535 81.1465L59.0752 80H51V69H58.9131L59.1221 67.7466C59.7158 64.1895 60.626 62.6079 61.8857 60.4194L62.6191 59.1426L57.1641 53.3164L65.5996 44.936L71.1094 50.3203L72.3857 49.5459L72.3867 49.5453C74.5991 48.2009 76.1978 47.2294 79.7686 46.5791L81 46.355V38H92V46.2827L93.1465 46.561C95.7676 47.1978 98.2559 48.2441 100.753 49.7603L101.744 50.3618L107.239 45.0278L115.609 53.4668L110.122 59.125L110.792 60.2915C112.068 62.5122 112.99 64.1172 113.595 67.7466L113.804 69H122V80H113.646L113.367 81.144C112.686 83.937 111.655 85.9746 110.319 88.1748L109.711 89.1772L115.56 95.0762L107.193 103.417L101.167 97.4482L100.176 98.0181C98.0566 99.2368 96.0547 100.18 93.1758 100.817L92 101.077V109Z" fill="#00C3FF"/>
</svg>
