<svg width="58" height="26" viewBox="0 0 58 26" fill="none" xmlns="http://www.w3.org/2000/svg">
<path d="M17.1218 9.15539H14.5715V25.2253H17.1218V9.15539Z" fill="white"/>
<path d="M26.0462 20.0997C26.0462 22.5587 23.9961 22.7547 23.3858 22.7547C21.8598 22.7547 21.584 21.3162 21.584 20.4478V14.2971H19.0337V20.4351C19.0337 21.9582 19.5094 23.2157 20.3404 24.0544C21.0734 24.7943 22.1727 25.1998 23.3673 25.1998C24.2117 25.1998 25.4084 24.9341 26.0462 24.3472V25.2253H28.5958V14.2971H26.0462V20.0997Z" fill="white"/>
<path d="M33.6951 10.4405H31.1455V14.2971H29.2336V16.8682H31.1455V25.2253H33.6951V16.8682H35.6069V14.2971H33.6951V10.4405Z" fill="white"/>
<path d="M43.6371 21.9575C43.0811 22.4605 42.3489 22.7389 41.5446 22.7389C39.7703 22.7389 38.4687 21.4268 38.4687 19.624C38.4687 17.8213 39.7294 16.5624 41.5446 16.5624C42.3355 16.5624 43.0811 16.8285 43.6512 17.3314L44.0377 17.6665L45.7563 15.9339L45.3252 15.5422C44.3143 14.6217 42.9718 14.1056 41.5431 14.1056C38.3565 14.1056 36.041 16.423 36.041 19.6094C36.041 22.7832 38.4107 25.1856 41.5431 25.1856C42.9978 25.1856 44.3559 24.668 45.3549 23.7314L45.7697 23.3401L44.0243 21.6086L43.6371 21.9575Z" fill="white"/>
<path d="M54.8576 15.2506C54.1225 14.5108 53.2624 14.1056 52.0716 14.1056C51.2257 14.1056 50.2691 14.3702 49.6305 14.956V9.15539H47.0802V25.2253H49.6305V19.2054C49.6305 16.746 51.364 16.55 51.972 16.55C53.4958 16.55 53.455 17.9903 53.455 18.8553V25.2253H56.0053V18.87C56.0053 17.3464 55.6901 16.0886 54.8576 15.2506Z" fill="white"/>
<path d="M41.4599 17.7924C42.4797 17.7924 43.3048 18.6234 43.3048 19.651C43.3048 20.6787 42.4797 21.5111 41.4599 21.5111C40.4415 21.5111 39.6164 20.6787 39.6164 19.651C39.6164 18.6245 40.4415 17.7924 41.4599 17.7924Z" fill="white"/>
<path d="M11.002 21.1888C10.0334 22.1947 8.71552 22.7389 7.3307 22.7389C4.4897 22.7389 2.42325 20.4906 2.42325 17.403C2.42325 14.3001 4.4897 12.0499 7.3307 12.0499C8.70214 12.0499 10.0052 12.5948 10.9879 13.5873L11.3759 13.9778L13.0811 12.2598L12.7065 11.8685C11.2941 10.4001 9.3808 9.60476 7.3307 9.60476C3.14651 9.60476 0 12.958 0 17.4162C0 21.8589 3.1584 25.1998 7.3307 25.1998C9.39567 25.1998 11.3075 24.3888 12.7198 22.9215L13.0945 22.5309L11.4056 20.7836L11.002 21.1888Z" fill="white"/>
<path d="M2.87408 3.65683H1.47588V6.0851H0.686835V0.0824541H2.6574C3.32788 0.0824541 3.84301 0.236368 4.20278 0.544196C4.56527 0.852024 4.74652 1.30002 4.74652 1.8882C4.74652 2.26199 4.64568 2.58768 4.44399 2.86528C4.24502 3.14287 3.96702 3.35038 3.60997 3.4878L5.00817 6.03563V6.0851H4.16598L2.87408 3.65683ZM1.47588 3.00957H2.68193C3.07168 3.00957 3.38103 2.90788 3.60997 2.70449C3.84164 2.5011 3.95748 2.22901 3.95748 1.8882C3.95748 1.51715 3.84709 1.23269 3.62633 1.0348C3.40828 0.836908 3.09212 0.736589 2.67784 0.73384H1.47588V3.00957Z" fill="white"/>
<path d="M9.63368 3.31053H7.05396V5.43784H10.0507V6.0851H6.26901V0.0824541H10.0098V0.73384H7.05396V2.66326H9.63368V3.31053Z" fill="white"/>
<path d="M13.417 5.03382L15.1177 0.0824541H15.9763L13.7686 6.0851H13.0736L10.87 0.0824541H11.7244L13.417 5.03382Z" fill="white"/>
<path d="M18.0384 6.0851H17.2535V0.0824541H18.0384V6.0851Z" fill="white"/>
<path d="M23.2608 3.31053H20.6811V5.43784H23.6778V6.0851H19.8961V0.0824541H23.6369V0.73384H20.6811V2.66326H23.2608V3.31053Z" fill="white"/>
<path d="M26.3573 4.19278L26.4718 4.98434L26.6394 4.27112L27.8168 0.0824541H28.4791L29.6279 4.27112L29.7915 4.99671L29.9182 4.18866L30.8422 0.0824541H31.6312L30.188 6.0851H29.4726L28.2461 1.71092L28.1521 1.2533L28.058 1.71092L26.7866 6.0851H26.0711L24.632 0.0824541H25.417L26.3573 4.19278Z" fill="white"/>
<path d="M36.2894 3.31053H33.7097V5.43784H36.7064V6.0851H32.9248V0.0824541H36.6656V0.73384H33.7097V2.66326H36.2894V3.31053Z" fill="white"/>
<path d="M38.1022 6.0851V0.0824541H39.7825C40.3003 0.0824541 40.7582 0.19789 41.1561 0.428761C41.5541 0.659632 41.8607 0.988074 42.076 1.41409C42.2941 1.8401 42.4044 2.32933 42.4072 2.88177V3.26518C42.4072 3.83136 42.2981 4.32746 42.0801 4.75347C41.8648 5.17948 41.5554 5.50655 41.1521 5.73467C40.7514 5.9628 40.284 6.07961 39.7498 6.0851H38.1022ZM38.8871 0.73384V5.43784H39.713C40.318 5.43784 40.7882 5.2482 41.1234 4.86891C41.4614 4.48962 41.6304 3.94955 41.6304 3.24869V2.89826C41.6304 2.21664 41.4709 1.68756 41.1521 1.31102C40.8359 0.93173 40.3862 0.739337 39.8029 0.73384H38.8871Z" fill="white"/>
<path d="M51.0899 3.27755C51.0899 3.86572 50.9918 4.37968 50.7955 4.81943C50.5993 5.25644 50.3213 5.59038 49.9615 5.82125C49.6018 6.05212 49.182 6.16756 48.7023 6.16756C48.2335 6.16756 47.8179 6.05212 47.4554 5.82125C47.0929 5.58763 46.8108 5.25644 46.6091 4.82768C46.4102 4.39617 46.308 3.89732 46.3025 3.33114V2.89826C46.3025 2.32108 46.402 1.81124 46.6009 1.36874C46.7999 0.926233 47.0806 0.588172 47.4431 0.354552C47.8084 0.118184 48.2254 0 48.6942 0C49.1711 0 49.5909 0.11681 49.9534 0.350429C50.3186 0.5813 50.5993 0.917988 50.7955 1.36049C50.9918 1.80025 51.0899 2.31283 51.0899 2.89826V3.27755ZM50.309 2.89001C50.309 2.17816 50.1673 1.63259 49.8839 1.2533C49.6004 0.871264 49.2038 0.680245 48.6942 0.680245C48.1981 0.680245 47.807 0.871264 47.5208 1.2533C47.2374 1.63259 47.0915 2.16029 47.0834 2.83642V3.27755C47.0834 3.96741 47.2265 4.51023 47.5126 4.90601C47.8015 5.29904 48.1981 5.49556 48.7023 5.49556C49.2093 5.49556 49.6018 5.31004 49.8798 4.93899C50.1578 4.5652 50.3009 4.03063 50.309 3.33526V2.89001Z" fill="white"/>
<path d="M57.2608 6.0851H56.4718L53.475 1.45944V6.0851H52.686V0.0824541H53.475L56.4799 4.72874V0.0824541H57.2608V6.0851Z" fill="white"/>
</svg>
