<svg width="147" height="38" viewBox="0 0 147 38" fill="none" xmlns="http://www.w3.org/2000/svg">
<path d="M22.4941 14H19.1436V34.936H22.4941V14Z" fill="white"/>
<path d="M34.2188 28.2583C34.2188 31.4619 31.5254 31.7173 30.7236 31.7173C28.7188 31.7173 28.3564 29.8433 28.3564 28.7119V20.6987H25.0059V28.6953C25.0059 30.6797 25.6309 32.3179 26.7227 33.4106C27.6855 34.3745 29.1299 34.9028 30.6992 34.9028C31.8086 34.9028 33.3809 34.5566 34.2188 33.792V34.936H37.5684V20.6987H34.2188V28.2583Z" fill="white"/>
<path d="M44.2676 15.6743H40.918V20.6987H38.4062V24.0483H40.918V34.936H44.2676V24.0483H46.7793V20.6987H44.2676V15.6743Z" fill="white"/>
<path d="M57.3291 30.6787C56.5986 31.334 55.6367 31.6968 54.5801 31.6968C52.249 31.6968 50.5391 29.9873 50.5391 27.6387C50.5391 25.29 52.1953 23.6499 54.5801 23.6499C55.6191 23.6499 56.5986 23.9966 57.3477 24.6519L57.8555 25.0884L60.1133 22.8311L59.5469 22.3208C58.2188 21.1216 56.4551 20.4492 54.5781 20.4492C50.3916 20.4492 47.3496 23.4683 47.3496 27.6196C47.3496 31.7544 50.4629 34.8843 54.5781 34.8843C56.4893 34.8843 58.2734 34.21 59.5859 32.9897L60.1309 32.48L57.8379 30.2241L57.3291 30.6787Z" fill="white"/>
<path d="M72.0703 21.9409C71.1045 20.9771 69.9746 20.4492 68.4102 20.4492C67.2988 20.4492 66.042 20.7939 65.2031 21.5571V14H61.8525V34.936H65.2031V27.0933C65.2031 23.8892 67.4805 23.6338 68.2793 23.6338C70.2812 23.6338 70.2275 25.5103 70.2275 26.6372V34.936H73.5781V26.6562C73.5781 24.6714 73.1641 23.0327 72.0703 21.9409Z" fill="white"/>
<path d="M54.4688 25.2524C55.8086 25.2524 56.8926 26.335 56.8926 27.6738C56.8926 29.0127 55.8086 30.0972 54.4688 30.0972C53.1309 30.0972 52.0469 29.0127 52.0469 27.6738C52.0469 26.3364 53.1309 25.2524 54.4688 25.2524Z" fill="white"/>
<path d="M14.4541 29.6772C13.1816 30.9878 11.4502 31.6968 9.63086 31.6968C5.89844 31.6968 3.18359 28.7676 3.18359 24.7451C3.18359 20.7026 5.89844 17.771 9.63086 17.771C11.4326 17.771 13.1445 18.481 14.4355 19.7739L14.9453 20.2827L17.1855 18.0444L16.6934 17.5347C14.8379 15.6216 12.3242 14.5854 9.63086 14.5854C4.13379 14.5854 0 18.9541 0 24.7622C0 30.5503 4.14941 34.9028 9.63086 34.9028C12.3438 34.9028 14.8555 33.8462 16.7109 31.9346L17.2031 31.4258L14.9844 29.1494L14.4541 29.6772Z" fill="white"/>
<path d="M3.77588 6.83643H1.93896V10H0.902344V2.17969H3.49121C4.37207 2.17969 5.04883 2.38021 5.52148 2.78125C5.99772 3.18229 6.23584 3.76595 6.23584 4.53223C6.23584 5.01921 6.10335 5.44352 5.83838 5.80518C5.57699 6.16683 5.21175 6.43717 4.74268 6.61621L6.57959 9.93555V10H5.47314L3.77588 6.83643ZM1.93896 5.99316H3.52344C4.03548 5.99316 4.44189 5.86068 4.74268 5.5957C5.04704 5.33073 5.19922 4.97624 5.19922 4.53223C5.19922 4.04883 5.0542 3.67822 4.76416 3.42041C4.4777 3.1626 4.06234 3.0319 3.51807 3.02832H1.93896V5.99316ZM12.6564 6.38525H9.26729V9.15674H13.2043V10H8.23604V2.17969H13.1506V3.02832H9.26729V5.54199H12.6564V6.38525ZM17.6269 8.63037L19.8612 2.17969H20.9892L18.0888 10H17.1757L14.2807 2.17969H15.4032L17.6269 8.63037ZM23.6983 10H22.6671V2.17969H23.6983V10ZM30.5594 6.38525H27.1702V9.15674H31.1072V10H26.139V2.17969H31.0535V3.02832H27.1702V5.54199H30.5594V6.38525ZM34.6274 7.53467L34.7778 8.56592L34.998 7.63672L36.5449 2.17969H37.415L38.9243 7.63672L39.1392 8.58203L39.3057 7.5293L40.5195 2.17969H41.5562L39.6602 10H38.7202L37.1089 4.30127L36.9854 3.70508L36.8618 4.30127L35.1914 10H34.2515L32.3608 2.17969H33.3921L34.6274 7.53467ZM47.676 6.38525H44.2868V9.15674H48.2238V10H43.2556V2.17969H48.1701V3.02832H44.2868V5.54199H47.676V6.38525ZM50.0575 10V2.17969H52.265C52.9454 2.17969 53.5469 2.33008 54.0697 2.63086C54.5925 2.93164 54.9953 3.35954 55.2782 3.91455C55.5647 4.46956 55.7097 5.10693 55.7133 5.82666V6.32617C55.7133 7.0638 55.5701 7.71012 55.2836 8.26514C55.0007 8.82015 54.5943 9.24626 54.0644 9.54346C53.538 9.84066 52.9239 9.99284 52.2221 10H50.0575ZM51.0888 3.02832V9.15674H52.1737C52.9687 9.15674 53.5863 8.90967 54.0268 8.41553C54.4708 7.92139 54.6928 7.21777 54.6928 6.30469V5.84814C54.6928 4.96012 54.4833 4.27083 54.0644 3.78027C53.649 3.28613 53.0582 3.03548 52.2919 3.02832H51.0888ZM67.1204 6.34229C67.1204 7.10856 66.9915 7.77816 66.7337 8.35107C66.4759 8.92041 66.1106 9.35547 65.638 9.65625C65.1653 9.95703 64.6139 10.1074 63.9837 10.1074C63.3678 10.1074 62.8217 9.95703 62.3455 9.65625C61.8693 9.35189 61.4987 8.92041 61.2337 8.36182C60.9723 7.79964 60.838 7.14974 60.8309 6.41211V5.84814C60.8309 5.09619 60.9616 4.43197 61.2229 3.85547C61.4843 3.27897 61.8532 2.83854 62.3294 2.53418C62.8092 2.22624 63.3571 2.07227 63.9729 2.07227C64.5996 2.07227 65.151 2.22445 65.6272 2.52881C66.1071 2.82959 66.4759 3.26823 66.7337 3.84473C66.9915 4.41764 67.1204 5.08545 67.1204 5.84814V6.34229ZM66.0945 5.8374C66.0945 4.90999 65.9083 4.19922 65.5359 3.70508C65.1635 3.20736 64.6425 2.9585 63.9729 2.9585C63.3213 2.9585 62.8074 3.20736 62.4314 3.70508C62.0591 4.19922 61.8675 4.88672 61.8567 5.76758V6.34229C61.8567 7.24105 62.0447 7.94824 62.4207 8.46387C62.8003 8.97591 63.3213 9.23193 63.9837 9.23193C64.6497 9.23193 65.1653 8.99023 65.5306 8.50684C65.8958 8.01986 66.0838 7.3234 66.0945 6.41748V5.8374ZM75.2275 10H74.1909L70.2539 3.97363V10H69.2173V2.17969H70.2539L74.2017 8.23291V2.17969H75.2275V10Z" fill="white"/>
<path d="M87.6836 29.2207C87.6836 29.611 87.5798 29.9583 87.3721 30.2627C87.168 30.5671 86.8905 30.8052 86.5396 30.9771C86.9478 31.1525 87.27 31.4085 87.5063 31.7451C87.7463 32.0817 87.8662 32.4631 87.8662 32.8892C87.8662 33.5659 87.637 34.1048 87.1787 34.5059C86.724 34.9069 86.1242 35.1074 85.3794 35.1074C84.6274 35.1074 84.0241 34.9069 83.5693 34.5059C83.1182 34.1012 82.8926 33.5623 82.8926 32.8892C82.8926 32.4666 83.0072 32.0853 83.2363 31.7451C83.4691 31.4049 83.7896 31.1471 84.1978 30.9717C83.8504 30.7998 83.5765 30.5617 83.376 30.2573C83.1755 29.953 83.0752 29.6074 83.0752 29.2207C83.0752 28.5618 83.2865 28.0391 83.709 27.6523C84.1315 27.2656 84.6883 27.0723 85.3794 27.0723C86.0669 27.0723 86.6219 27.2656 87.0444 27.6523C87.4705 28.0391 87.6836 28.5618 87.6836 29.2207ZM86.8726 32.8677C86.8726 32.4308 86.7329 32.0745 86.4536 31.7988C86.1779 31.5231 85.8162 31.3853 85.3687 31.3853C84.9211 31.3853 84.5612 31.5213 84.2891 31.7935C84.0205 32.0656 83.8862 32.4237 83.8862 32.8677C83.8862 33.3117 84.0169 33.6608 84.2783 33.915C84.5433 34.1693 84.9103 34.2964 85.3794 34.2964C85.8449 34.2964 86.2101 34.1693 86.4751 33.915C86.7401 33.6572 86.8726 33.3081 86.8726 32.8677ZM85.3794 27.8887C84.9891 27.8887 84.6722 28.0104 84.4287 28.2539C84.1888 28.4938 84.0688 28.8215 84.0688 29.2368C84.0688 29.6343 84.187 29.9565 84.4233 30.2036C84.6632 30.4471 84.9819 30.5688 85.3794 30.5688C85.7769 30.5688 86.0938 30.4471 86.3301 30.2036C86.57 29.9565 86.6899 29.6343 86.6899 29.2368C86.6899 28.8394 86.5664 28.5153 86.3193 28.2646C86.0723 28.014 85.759 27.8887 85.3794 27.8887ZM95.8522 31.8364H94.0153V35H92.9786V27.1797H95.5675C96.4484 27.1797 97.1251 27.3802 97.5978 27.7812C98.074 28.1823 98.3121 28.766 98.3121 29.5322C98.3121 30.0192 98.1796 30.4435 97.9147 30.8052C97.6533 31.1668 97.288 31.4372 96.819 31.6162L98.6559 34.9355V35H97.5494L95.8522 31.8364ZM94.0153 30.9932H95.5997C96.1118 30.9932 96.5182 30.8607 96.819 30.5957C97.1233 30.3307 97.2755 29.9762 97.2755 29.5322C97.2755 29.0488 97.1305 28.6782 96.8404 28.4204C96.554 28.1626 96.1386 28.0319 95.5944 28.0283H94.0153V30.9932ZM104.623 31.3853H101.234V34.1567H105.171V35H100.202V27.1797H105.117V28.0283H101.234V30.542H104.623V31.3853ZM109.483 33.6304L111.718 27.1797H112.845L109.945 35H109.032L106.137 27.1797H107.26L109.483 33.6304ZM115.445 35H114.413V27.1797H115.445V35ZM122.196 31.3853H118.807V34.1567H122.744V35H117.775V27.1797H122.69V28.0283H118.807V30.542H122.196V31.3853ZM126.154 32.5347L126.304 33.5659L126.524 32.6367L128.071 27.1797H128.941L130.451 32.6367L130.665 33.582L130.832 32.5293L132.046 27.1797H133.082L131.186 35H130.247L128.635 29.3013L128.512 28.7051L128.388 29.3013L126.718 35H125.778L123.887 27.1797H124.918L126.154 32.5347ZM136.976 31.5142C136.092 31.2599 135.447 30.9484 135.042 30.5796C134.641 30.2072 134.441 29.7489 134.441 29.2046C134.441 28.5887 134.686 28.0802 135.177 27.6792C135.671 27.2746 136.312 27.0723 137.1 27.0723C137.637 27.0723 138.115 27.1761 138.534 27.3838C138.956 27.5915 139.282 27.8779 139.511 28.2432C139.744 28.6084 139.86 29.0076 139.86 29.4409H138.824C138.824 28.9683 138.673 28.5977 138.373 28.3291C138.072 28.057 137.647 27.9209 137.1 27.9209C136.591 27.9209 136.194 28.0337 135.907 28.2593C135.624 28.4813 135.483 28.791 135.483 29.1885C135.483 29.5072 135.617 29.7775 135.886 29.9995C136.158 30.2179 136.618 30.4185 137.266 30.6011C137.918 30.7837 138.426 30.986 138.791 31.208C139.16 31.4264 139.432 31.6825 139.608 31.9761C139.787 32.2697 139.876 32.6152 139.876 33.0127C139.876 33.6465 139.629 34.1549 139.135 34.5381C138.641 34.9176 137.98 35.1074 137.153 35.1074C136.616 35.1074 136.115 35.0054 135.649 34.8013C135.184 34.5936 134.824 34.3107 134.57 33.9526C134.319 33.5946 134.194 33.1882 134.194 32.7334H135.23C135.23 33.2061 135.404 33.5802 135.751 33.856C136.102 34.1281 136.57 34.2642 137.153 34.2642C137.698 34.2642 138.115 34.1532 138.405 33.9312C138.695 33.7091 138.84 33.4066 138.84 33.0234C138.84 32.6403 138.706 32.3449 138.437 32.1372C138.168 31.9259 137.681 31.7183 136.976 31.5142Z" fill="white"/>
<path d="M87.0742 0L88.8613 3.62158L92.8574 4.20215L89.9658 7.02051L90.6484 11L87.0742 9.12158L83.5 11L84.1836 7.02051L81.291 4.20215L85.2871 3.62158L87.0742 0Z" fill="white"/>
<path d="M100.453 0L102.24 3.62158L106.236 4.20215L103.344 7.02051L104.027 11L100.453 9.12158L96.8789 11L97.5605 7.02051L94.6699 4.20215L98.666 3.62158L100.453 0Z" fill="white"/>
<path d="M113.832 0L115.619 3.62158L119.615 4.20215L116.724 7.02051L117.406 11L113.832 9.12158L110.258 11L110.941 7.02051L108.049 4.20215L112.045 3.62158L113.832 0Z" fill="white"/>
<path d="M127.211 0L128.998 3.62158L132.994 4.20215L130.102 7.02051L130.785 11L127.211 9.12158L123.637 11L124.319 7.02051L121.428 4.20215L125.424 3.62158L127.211 0Z" fill="white"/>
<path d="M140.59 0L142.377 3.62158L146.373 4.20215L143.482 7.02051L144.165 11L140.59 9.12158L137.017 11L137.699 7.02051L134.807 4.20215L138.804 3.62158L140.59 0Z" fill="white"/>
</svg>
