<svg width="129" height="102" viewBox="0 0 129 102" fill="none" xmlns="http://www.w3.org/2000/svg">
<path fill-rule="evenodd" clip-rule="evenodd" d="M117 20H123.5C126.533 20 129 22.4673 129 25.5V96.5C129 99.5327 126.533 102 123.5 102H70.5C67.4668 102 65 99.5327 65 96.5V77H52V95.5C52 98.5327 49.5332 101 46.5 101H20.5C17.4668 101 15 98.5327 15 95.5V77H5.2168C2.29102 77 0 74.4868 0 71.2783V5.83789C0 2.61865 2.33984 0 5.2168 0H111.877C115.084 0 117 2.96826 117 5.83789V20ZM46.5 98C47.8789 98 49 96.8784 49 95.5V47.5C49 46.1216 47.8789 45 46.5 45H20.5C19.1211 45 18 46.1216 18 47.5V74V77V95.5C18 96.8784 19.1211 98 20.5 98H46.5ZM65 74V25.5C65 22.4673 67.4668 20 70.5 20H114V5.83789C114 4.47314 113.188 3 111.877 3H5.2168C3.89062 3 3 4.46729 3 5.83789V71.2783C3 72.5874 3.84766 74 5.2168 74H15V47.5C15 44.4673 17.4668 42 20.5 42H46.5C49.5332 42 52 44.4673 52 47.5V74H65ZM123.5 99C124.879 99 126 97.8784 126 96.5V25.5C126 24.1216 124.879 23 123.5 23H70.5C69.1211 23 68 24.1216 68 25.5V96.5C68 97.8784 69.1211 99 70.5 99H123.5ZM100.138 88.7671C100.138 90.6297 98.6282 92.1396 96.7656 92.1396C94.903 92.1396 93.3931 90.6297 93.3931 88.7671C93.3931 86.9045 94.903 85.3945 96.7656 85.3945C98.6282 85.3945 100.138 86.9045 100.138 88.7671ZM21 11H12V14H21V11ZM27 11H36V14H27V11Z" fill="#00C3FF"/>
</svg>
