<svg width="114" height="151" viewBox="0 0 114 151" fill="none" xmlns="http://www.w3.org/2000/svg">
<path fill-rule="evenodd" clip-rule="evenodd" d="M57.1816 62.0483L32.9854 74.7686L37.6064 47.8247L18.0312 28.7446L45.084 24.8145L57.1816 0.298828L69.2793 24.8145L96.332 28.7446L76.7559 47.8247L81.377 74.7686L57.1816 62.0483ZM47.0762 27.5566L24.4785 30.8394L40.8301 46.7769L36.9697 69.2842L57.1816 58.6587L77.3926 69.2842L73.5322 46.7769L89.8848 30.8394L67.2871 27.5566L57.1816 7.07812L47.0762 27.5566ZM113.957 63.1343V63.1338L114 63.167V63.1675V63.4146V64V112.697L41.2207 150.098L41 149.908L0 114.594V63.6841L2.49121 62.3975L23.1289 51.7451L24.5049 54.4111L2.73145 65.6494L42.5469 99.8296L111.014 64.6475L92.4219 50.2261L94.2598 47.856L113.957 63.1343ZM3 113.219L41 145.948V102.456L3 69.834V113.219ZM44 145.296L111 110.866V68.0264L44 102.456V145.296Z" fill="#00C3FF"/>
</svg>
