<svg width="42" height="42" viewBox="0 0 42 42" fill="none" xmlns="http://www.w3.org/2000/svg">
<g opacity="0.7">
<path d="M21 41C32.0457 41 41 32.0457 41 21C41 9.9543 32.0457 1 21 1C9.9543 1 1 9.9543 1 21C1 32.0457 9.9543 41 21 41Z" stroke="white" stroke-miterlimit="10"/>
<path fill-rule="evenodd" clip-rule="evenodd" d="M25.4238 20.6523L22.3892 20.6562L22.3877 31.7656H18.2236V20.6562H15.4443V16.8242H18.2236L18.2192 14.5684C18.2178 11.4434 19.0654 9.54492 22.7437 9.54492H25.8076V13.373H23.8936C22.4634 13.373 22.3901 13.9082 22.3901 14.9062L22.3877 16.8242H25.8296L25.4238 20.6523Z" fill="white"/>
</g>
</svg>
