<svg width="120" height="130" viewBox="0 0 162 214" fill="none" xmlns="http://www.w3.org/2000/svg">
<path fill-rule="evenodd" clip-rule="evenodd" d="M82.4311 1.99993C82.4311 0.895362 81.5357 -6.86646e-05 80.4311 -6.86646e-05C79.3265 -6.86646e-05 78.4311 0.895362 78.4311 1.99993V35.9482C78.4311 37.0528 79.3265 37.9482 80.4311 37.9482C81.5357 37.9482 82.4311 37.0528 82.4311 35.9482V1.99993ZM130.65 213.154L80.7482 186.92L30.8435 213.154L40.3766 157.585L0 118.232L55.7959 110.127L80.7482 59.5638L105.699 110.127L161.493 118.232L121.12 157.585L130.65 213.154ZM60.3046 116.333L14.5905 122.973L47.6702 155.214L39.8611 200.743L80.7482 179.25L121.632 200.743L113.823 155.214L146.903 122.973L101.19 116.333L80.7482 74.9069L60.3046 116.333ZM148.955 29.4697C149.736 30.2508 149.736 31.5171 148.955 32.2981L124.95 56.3032C124.169 57.0843 122.903 57.0843 122.122 56.3032C121.341 55.5222 121.341 54.2558 122.122 53.4748L146.127 29.4697C146.908 28.6887 148.174 28.6887 148.955 29.4697ZM40.3203 54.471C41.1014 55.252 41.1014 56.5183 40.3203 57.2994C39.5393 58.0804 38.273 58.0804 37.4919 57.2994L13.4869 33.2943C12.7058 32.5133 12.7058 31.2469 13.4869 30.4659C14.2679 29.6848 15.5342 29.6848 16.3153 30.4659L40.3203 54.471Z" fill="#00C3FF"/>
</svg>
