<svg width="58" height="58" viewBox="0 0 58 58" fill="none" xmlns="http://www.w3.org/2000/svg">
<path d="M24.0839 22.8278C23.9022 22.4449 23.5131 22.1795 23.0611 22.1795H17.0757C16.45 22.1795 15.9429 22.6867 15.9429 23.3123V40.4591C15.9429 41.0848 16.45 41.5919 17.0757 41.5919H23.0611C23.5306 41.5919 23.9333 41.3064 24.1051 40.8993C24.9686 41.0206 25.8582 41.2661 26.7844 41.5226C28.1768 41.9081 29.6165 42.3067 31.1124 42.3067H37.652C39.6736 42.3067 41.3117 41.235 42.0341 39.4396C42.386 38.5649 42.4476 37.657 42.242 36.897C42.6181 36.5589 42.9359 36.1379 43.1763 35.6464C43.6635 34.6504 43.7608 33.5304 43.4847 32.5872C43.9994 32.0898 44.3834 31.4332 44.5842 30.6589C44.7719 29.935 44.7686 29.2208 44.6016 28.6019C45.6234 28.0009 46.3116 26.9088 46.3116 25.6784C46.3116 24.7134 45.9358 23.8241 45.2534 23.1746C44.5982 22.5508 43.7255 22.2072 42.7961 22.2072L33.5784 22.2075C32.8781 21.329 32.6601 20.1368 33.0589 19.1772C33.8772 17.2077 33.8265 15.5406 32.8947 13.7718C32.2031 12.459 30.3432 11.152 28.7801 11.3751C27.8352 11.5102 27.1515 12.178 26.951 13.1617C26.892 13.4511 26.8758 13.7638 26.8571 14.1258C26.8109 15.0189 26.7475 16.2421 25.9765 17.7192C25.4539 18.7205 25.2796 19.7503 25.1257 20.6589C24.9054 21.9605 24.7986 22.5875 24.0839 22.8278ZM18.2085 24.4451H21.9283V39.3263H18.2085V24.4451ZM27.3596 21.0371C27.4916 20.2576 27.628 19.4515 27.9851 18.7676C28.9845 16.8527 29.0691 15.2191 29.1198 14.2431C29.1333 13.9831 29.146 13.7375 29.1711 13.614C29.1712 13.6132 29.1714 13.6123 29.1717 13.6115C29.5646 13.617 30.5317 14.1474 30.8902 14.828C31.5108 16.0057 31.5314 16.949 30.9668 18.3081C30.4576 19.5336 30.4959 20.9556 30.9996 22.2199C30.4485 22.2966 30.0239 22.7684 30.0239 23.3406C30.0239 23.9662 30.5311 24.4734 31.1567 24.4734L42.7961 24.4731C43.1413 24.4731 43.4593 24.5948 43.6913 24.8156C43.8532 24.9696 44.046 25.2444 44.046 25.6785C44.046 26.2861 43.489 26.8115 42.8296 26.8259L39.9138 26.8894C39.2884 26.903 38.7924 27.421 38.806 28.0465C38.8194 28.6637 39.3238 29.1548 39.9381 29.1548C39.9464 29.1548 39.9547 29.1547 39.9632 29.1545L42.3915 29.1017C42.4707 29.3261 42.5119 29.7542 42.3452 30.2446C42.2032 30.6617 41.8223 31.3613 40.8639 31.3613C40.2384 31.3613 39.7311 31.8685 39.7311 32.4941C39.7311 33.1198 40.2384 33.627 40.8639 33.627C41.0357 33.627 41.2042 33.6163 41.3692 33.5953C41.3832 33.9159 41.3173 34.2915 41.1413 34.651C40.9334 35.076 40.5223 35.5829 39.7449 35.5829C39.1194 35.5829 38.6121 36.09 38.6121 36.7157C38.6121 37.3413 39.1194 37.8485 39.7449 37.8485C39.8622 37.8485 39.9782 37.8433 40.0927 37.833C40.0898 38.0503 40.0456 38.3221 39.922 38.6193C39.7444 39.0469 39.1674 40.0411 37.6522 40.0411H31.1126C29.9246 40.0411 28.6931 39.7002 27.3892 39.3391C26.3517 39.0518 25.2878 38.7575 24.1941 38.6261V25.1205C26.7445 24.6583 27.0961 22.5936 27.3596 21.0371Z" fill="white"/>
</svg>
