<svg width="119" height="115" viewBox="0 0 119 115" fill="none" xmlns="http://www.w3.org/2000/svg">
<path fill-rule="evenodd" clip-rule="evenodd" d="M113.033 0H5.62305C2.62695 0 0 2.6665 0 5.70605V72.6494C0 75.5996 2.52246 78 5.62305 78H36.1973L11.6035 102.593L23.2627 114.255L59.5176 78H60H61.6562H113.033C115.914 78 119 75.8501 119 72.6494V5.70605C119 2.71973 116.156 0 113.033 0ZM15.8457 102.593L40.4395 78L41 77.4395L70.1758 48.2632L81.3027 44.5552L77.5938 55.6821L23.2627 110.012L15.8457 102.593ZM116 72.6494C116 73.9731 114.405 75 113.033 75H62.5176L80.2148 57.3022L86.0449 39.812L68.5566 45.6411L39.1973 75H5.62305C4.17676 75 3 73.9453 3 72.6494V5.70605C3 4.31494 4.27539 3 5.62305 3H113.033C114.475 3 116 4.39111 116 5.70605V72.6494ZM13.0723 62H42V59H18.875L47.2988 18.9058L60.2285 37.3682L62.6855 35.6475L47.3125 13.6978L13.0723 62ZM86.6807 24.375C86.6807 19.312 90.7988 15.1934 95.8623 15.1934C100.924 15.1934 105.043 19.312 105.043 24.375C105.043 29.4385 100.924 33.5576 95.8623 33.5576C90.7988 33.5576 86.6807 29.4385 86.6807 24.375ZM89.6807 24.375C89.6807 27.7842 92.4531 30.5576 95.8623 30.5576C99.2705 30.5576 102.043 27.7842 102.043 24.375C102.043 20.9663 99.2705 18.1934 95.8623 18.1934C92.4531 18.1934 89.6807 20.9663 89.6807 24.375Z" fill="#00C3FF"/>
</svg>
