<svg width="136" height="37" viewBox="0 0 136 37" fill="none" xmlns="http://www.w3.org/2000/svg">
<path d="M13.5918 13C13.5918 13 12 12.7007 12 14.3008V21H23V23.5474C23 23.5474 23.6953 24 22.5801 24H12V34H24.7383C24.7383 34 32 32.647 32 24.6123V13H13.5918ZM32 1H8.92188C0.467773 3 0 10.4229 0 10.4229V34H9V12.522C9 10.709 11.0762 10 11.0762 10H32V1Z" fill="white"/>
<path d="M52.3281 13.1025C51.9941 13.3237 51.748 13.4883 51.5742 13.5908C50.9521 13.9766 50.3594 14.2734 49.8105 14.5098C49.0137 14.8354 48.3047 15 47.668 15C45.4844 15 43.6738 14.3315 42.2129 12.9839C40.751 11.6338 40.0293 9.94531 40.0293 7.8999C40.0293 5.93066 40.6807 4.22559 41.9961 2.77197C43.3125 1.31885 44.9043 0.60791 46.7852 0.60791C47.5684 0.60791 48.4053 0.741211 49.2734 1.02441C50.4033 1.37793 51.3125 1.91357 52.0371 2.60938L50.7783 4.00244C50.2441 3.4834 49.5488 3.09766 48.7383 2.86084C48.1328 2.68262 47.4668 2.5957 46.7285 2.5957C45.4111 2.5957 44.2969 3.12744 43.415 4.17969C42.5312 5.24805 42.084 6.50586 42.084 7.98877C42.084 9.45557 42.5898 10.6567 43.6016 11.6201C44.6152 12.584 45.9023 13.0723 47.4648 13.0723C48.1172 13.0723 48.7812 12.8638 49.4609 12.4648C50.0264 12.0352 50.3154 11.8281 50.332 11.8135V8.77441H46.1064L46.7129 6.87744H52.3281V13.1025ZM65.0879 9.39551C65.0879 10.8643 64.5684 12.1392 63.5264 13.2046C62.4844 14.2725 61.1973 14.8203 59.6621 14.8203C58.2441 14.8203 57.002 14.2871 55.9297 13.2354C54.8584 12.1836 54.3379 10.9077 54.3379 9.41113C54.3379 7.92871 54.8457 6.65332 55.8574 5.55811C56.8691 4.46094 58.1162 3.92822 59.5742 3.92822C61.1973 3.92822 62.5127 4.44727 63.5391 5.49902C64.5684 6.52148 65.0879 7.82568 65.0879 9.39551ZM63.1055 9.42773C63.1055 8.43359 62.7725 7.58887 62.1074 6.90674C61.4414 6.20898 60.6172 5.86963 59.6338 5.86963C58.709 5.86963 57.9258 6.22461 57.2754 6.93652C56.623 7.64795 56.3047 8.4624 56.3047 9.38135C56.3047 10.3452 56.6387 11.1611 57.2891 11.8428C57.9395 12.5234 58.751 12.8779 59.7334 12.8779C60.6465 12.8779 61.4277 12.5391 62.0938 11.8574C62.7725 11.1743 63.1074 10.3589 63.1074 9.42773H63.1055ZM77.6758 9.39551C77.6758 10.8643 77.1562 12.1392 76.1133 13.2046C75.0713 14.2725 73.7812 14.8203 72.25 14.8203C70.832 14.8203 69.5879 14.2871 68.5176 13.2354C67.4463 12.1836 66.9258 10.9077 66.9258 9.41113C66.9258 7.92871 67.4336 6.65332 68.4453 5.55811C69.458 4.46094 70.7012 3.92822 72.1621 3.92822C73.7812 3.92822 75.0996 4.44727 76.127 5.49902C77.1562 6.52148 77.6758 7.82568 77.6758 9.39551ZM75.6934 9.42773C75.6934 8.43359 75.3594 7.58887 74.6953 6.90674C74.0293 6.20898 73.2061 5.86963 72.2207 5.86963C71.2949 5.86963 70.5137 6.22461 69.8613 6.93652C69.2109 7.64795 68.8926 8.4624 68.8926 9.38135C68.8926 10.3452 69.2266 11.1611 69.8789 11.8428C70.5273 12.5234 71.3379 12.8779 72.3223 12.8779C73.2344 12.8779 74.0156 12.5391 74.6816 11.8574C75.3594 11.1743 75.6934 10.3589 75.6934 9.42773ZM89.3242 14.5244L87.501 14.8066V13.043L87.1104 13.4854C86.7656 13.8096 86.375 14.0786 85.9512 14.2871C85.332 14.5742 84.6543 14.7207 83.9707 14.7173C82.5508 14.7173 81.3379 14.1978 80.3525 13.1455C79.3691 12.0933 78.877 10.8477 78.877 9.39551C78.877 7.89941 79.3691 6.61035 80.3379 5.54297C81.3086 4.47412 82.4941 3.94141 83.9121 3.94141C84.7227 3.94141 85.4326 4.0752 86.0244 4.34229C86.4453 4.53516 86.8066 4.78662 87.1104 5.09863C87.2109 5.23096 87.3145 5.37988 87.4141 5.5127V0.889648L89.3516 0.605957L89.3242 14.5244ZM87.6162 9.5293C87.6162 8.49268 87.2686 7.61768 86.5605 6.90674C85.8506 6.18066 85.0557 5.82568 84.1445 5.82568C83.1309 5.82568 82.3213 6.16602 81.6992 6.84766C81.1191 7.49902 80.8164 8.30029 80.8164 9.23389C80.8164 10.2852 81.1191 11.1611 81.7266 11.8408C82.334 12.5234 83.1016 12.8638 84.043 12.8638C84.9688 12.8638 85.7793 12.5532 86.5029 11.917C87.2402 11.2642 87.6162 10.4634 87.6162 9.5293ZM99.5527 2.81689H94.127V6.50586H98.3359V8.4043H94.127V14.5098L92.0156 14.8203V0.904297H99.1328L99.5527 2.81689ZM103.908 1.73389L102.605 3.37891L101.361 1.73389L102.677 0.104492L103.908 1.73389ZM103.517 14.5244L101.578 14.792V4.49121L103.517 4.19434V14.5259V14.5244ZM112.271 4.0918L111.357 6.19482C111.24 6.17676 111.118 6.1665 110.998 6.16602C110.811 6.16602 110.621 6.18164 110.433 6.20898C110.244 6.23926 110.041 6.31396 109.826 6.41797C109.421 6.59521 109.072 6.98096 108.77 7.55859C108.434 8.21484 108.26 8.94092 108.262 9.67822V14.5098L106.325 14.8203V4.49121L108.119 4.16504V6.31396C108.35 5.94189 108.596 5.57227 108.826 5.18701C109.158 4.80176 109.551 4.521 109.984 4.35645C110.215 4.26855 110.635 4.19434 111.272 4.13477C111.879 4.0918 112.227 4.06152 112.271 4.0918ZM126.709 14.5244L124.771 14.8066V7.7373C124.771 7.08398 124.626 6.61035 124.337 6.31396C124.047 6.0166 123.612 5.86963 123.049 5.86963C122.371 5.86963 121.848 6.15137 121.502 6.71338C121.268 7.09912 121.139 7.51367 121.139 7.92822V14.5093L119.201 14.8652V7.78125C119.201 7.15967 119.056 6.68457 118.779 6.35938C118.49 6.03223 118.115 5.86963 117.624 5.86963H117.436C116.754 5.86963 116.264 6.15137 115.959 6.729C115.729 7.15967 115.612 7.70703 115.612 8.37305V14.5093L113.602 14.8652V4.49121L115.41 4.17969V5.49902C115.612 5.18701 115.814 4.93555 116.002 4.7583C116.523 4.26855 117.133 4.03125 117.811 4.03125C118.576 4.03125 119.143 4.14941 119.533 4.40283C119.865 4.60938 120.183 5.02441 120.5 5.61572C121.168 4.56396 122.106 4.03125 123.353 4.03125C124.539 4.03125 125.421 4.40283 126 5.15771C126.479 5.77979 126.709 6.69873 126.709 7.89941V14.5244ZM135.565 11.3975C135.565 12.3467 135.233 13.1323 134.568 13.7388C133.902 14.3618 133.063 14.6582 132.049 14.6582C131.283 14.6582 130.603 14.48 129.98 14.124C129.359 13.7695 128.896 13.3682 128.591 12.8955L129.953 11.6797C130.053 11.8281 130.141 11.9463 130.227 12.0347C130.734 12.5532 131.34 12.8198 132.049 12.8198C132.542 12.8198 132.933 12.687 133.208 12.4355C133.498 12.1836 133.628 11.8281 133.628 11.3662C133.628 10.8491 133.295 10.4937 132.629 10.3013C131.312 9.8999 130.603 9.67822 130.502 9.63281C129.895 9.32227 129.461 8.99707 129.186 8.62695C128.881 8.19531 128.722 7.63232 128.722 6.90674C128.722 6.0166 129.055 5.27539 129.707 4.68359C130.357 4.0918 131.14 3.80957 132.035 3.80957C132.717 3.80957 133.352 3.95703 133.931 4.26855C134.51 4.58008 134.929 4.90625 135.176 5.2915L134.018 6.55127C133.844 6.37695 133.654 6.21826 133.454 6.07666C132.991 5.75098 132.542 5.58789 132.123 5.58789C131.718 5.58789 131.385 5.67676 131.125 5.85352C130.819 6.07666 130.661 6.40283 130.661 6.83252C130.661 7.24756 130.805 7.55859 131.108 7.75195C131.371 7.91504 131.92 8.09277 132.787 8.28418C133.655 8.49268 134.32 8.84912 134.799 9.35205C135.336 9.88574 135.565 10.5518 135.565 11.3975Z" fill="white"/>
<path d="M43.8052 30.7241H41.9683V33.8877H40.9316V26.0674H43.5205C44.4014 26.0674 45.0781 26.2679 45.5508 26.6689C46.027 27.07 46.2651 27.6536 46.2651 28.4199C46.2651 28.9069 46.1326 29.3312 45.8677 29.6929C45.6063 30.0545 45.241 30.3249 44.772 30.5039L46.6089 33.8232V33.8877H45.5024L43.8052 30.7241ZM41.9683 29.8809H43.5527C44.0648 29.8809 44.4712 29.7484 44.772 29.4834C45.0763 29.2184 45.2285 28.8639 45.2285 28.4199C45.2285 27.9365 45.0835 27.5659 44.7935 27.3081C44.507 27.0503 44.0916 26.9196 43.5474 26.916H41.9683V29.8809ZM50.1912 33.9951C49.4034 33.9951 48.7625 33.7373 48.2683 33.2217C47.7742 32.7025 47.5271 32.0096 47.5271 31.1431V30.9604C47.5271 30.384 47.6363 29.8701 47.8548 29.4189C48.0768 28.9642 48.3847 28.6097 48.7786 28.3555C49.1761 28.0977 49.6057 27.9688 50.0677 27.9688C50.8232 27.9688 51.4104 28.2176 51.8294 28.7153C52.2483 29.2131 52.4578 29.9256 52.4578 30.853V31.2666H48.5208C48.5351 31.8395 48.7016 32.3032 49.0203 32.6577C49.3426 33.0086 49.7508 33.1841 50.2449 33.1841C50.5958 33.1841 50.893 33.1125 51.1365 32.9692C51.38 32.826 51.593 32.6362 51.7757 32.3999L52.3826 32.8726C51.8956 33.6209 51.1651 33.9951 50.1912 33.9951ZM50.0677 28.7852C49.6666 28.7852 49.33 28.932 49.0579 29.2256C48.7858 29.5156 48.6175 29.9238 48.553 30.4502H51.4641V30.375C51.4355 29.8701 51.2994 29.4798 51.0559 29.2041C50.8124 28.9248 50.483 28.7852 50.0677 28.7852ZM57.4205 33.8877C57.3632 33.7731 57.3166 33.569 57.2808 33.2754C56.8189 33.7552 56.2675 33.9951 55.6265 33.9951C55.0536 33.9951 54.5827 33.834 54.2139 33.5117C53.8487 33.1859 53.6661 32.7741 53.6661 32.2764C53.6661 31.6712 53.8952 31.2021 54.3536 30.8691C54.8155 30.5326 55.4636 30.3643 56.2979 30.3643H57.2647V29.9077C57.2647 29.5604 57.1609 29.2847 56.9532 29.0806C56.7455 28.8729 56.4393 28.769 56.0347 28.769C55.6802 28.769 55.383 28.8586 55.1431 29.0376C54.9032 29.2166 54.7833 29.4333 54.7833 29.6875H53.7842C53.7842 29.3975 53.8863 29.1182 54.0904 28.8496C54.2981 28.5775 54.5774 28.3626 54.9283 28.2051C55.2828 28.0475 55.6713 27.9688 56.0938 27.9688C56.7634 27.9688 57.288 28.137 57.6675 28.4736C58.0471 28.8066 58.244 29.2668 58.2584 29.854V32.5288C58.2584 33.0623 58.3264 33.4867 58.4625 33.8018V33.8877H57.4205ZM55.7715 33.1304C56.0831 33.1304 56.3785 33.0498 56.6578 32.8887C56.9371 32.7275 57.1394 32.5181 57.2647 32.2603V31.0679H56.4859C55.2685 31.0679 54.6597 31.4242 54.6597 32.1367C54.6597 32.4482 54.7636 32.6917 54.9712 32.8672C55.1789 33.0426 55.4457 33.1304 55.7715 33.1304ZM59.7943 30.9336C59.7943 30.042 60.0055 29.3258 60.4281 28.7852C60.8506 28.2409 61.4038 27.9688 62.0877 27.9688C62.7681 27.9688 63.307 28.2015 63.7044 28.667V25.6377H64.6981V33.8877H63.785L63.7367 33.2646C63.3392 33.7516 62.786 33.9951 62.077 33.9951C61.4038 33.9951 60.8542 33.7194 60.4281 33.168C60.0055 32.6165 59.7943 31.8968 59.7943 31.0088V30.9336ZM60.7879 31.0464C60.7879 31.7052 60.924 32.2209 61.1961 32.5933C61.4683 32.9657 61.8442 33.1519 62.3241 33.1519C62.9543 33.1519 63.4144 32.869 63.7044 32.3032V29.6338C63.4072 29.0859 62.9507 28.812 62.3348 28.812C61.8478 28.812 61.4683 29 61.1961 29.376C60.924 29.752 60.7879 30.3088 60.7879 31.0464ZM75.5849 30.23C75.5849 30.9963 75.456 31.6659 75.1981 32.2388C74.9403 32.8081 74.5751 33.2432 74.1024 33.5439C73.6298 33.8447 73.0784 33.9951 72.4481 33.9951C71.8323 33.9951 71.2862 33.8447 70.81 33.5439C70.3337 33.2396 69.9631 32.8081 69.6981 32.2495C69.4368 31.6873 69.3025 31.0374 69.2953 30.2998V29.7358C69.2953 28.9839 69.426 28.3197 69.6874 27.7432C69.9488 27.1667 70.3176 26.7262 70.7938 26.4219C71.2737 26.1139 71.8215 25.96 72.4374 25.96C73.064 25.96 73.6155 26.1121 74.0917 26.4165C74.5715 26.7173 74.9403 27.1559 75.1981 27.7324C75.456 28.3053 75.5849 28.9731 75.5849 29.7358V30.23ZM74.559 29.7251C74.559 28.7977 74.3728 28.0869 74.0004 27.5928C73.628 27.0951 73.107 26.8462 72.4374 26.8462C71.7857 26.8462 71.2719 27.0951 70.8959 27.5928C70.5235 28.0869 70.3319 28.7744 70.3212 29.6553V30.23C70.3212 31.1287 70.5092 31.8359 70.8852 32.3516C71.2647 32.8636 71.7857 33.1196 72.4481 33.1196C73.1142 33.1196 73.6298 32.8779 73.995 32.3945C74.3603 31.9076 74.5482 31.2111 74.559 30.3052V29.7251ZM80.7839 33.313C80.3971 33.7677 79.8296 33.9951 79.0812 33.9951C78.4618 33.9951 77.9891 33.8161 77.6633 33.458C77.341 33.0964 77.1781 32.5628 77.1745 31.8574V28.0762H78.1681V31.8306C78.1681 32.7114 78.5262 33.1519 79.2424 33.1519C80.0015 33.1519 80.5064 32.869 80.757 32.3032V28.0762H81.7507V33.8877H80.8054L80.7839 33.313ZM86.2944 28.9678C86.144 28.9427 85.9811 28.9302 85.8056 28.9302C85.1539 28.9302 84.7117 29.2077 84.479 29.7627V33.8877H83.4853V28.0762H84.4521L84.4682 28.7476C84.7941 28.2284 85.256 27.9688 85.854 27.9688C86.0473 27.9688 86.1941 27.9938 86.2944 28.0439V28.9678ZM93.4053 30.7241H91.5684V33.8877H90.5318V26.0674H93.1206C94.0015 26.0674 94.6782 26.2679 95.1509 26.6689C95.6271 27.07 95.8653 27.6536 95.8653 28.4199C95.8653 28.9069 95.7328 29.3312 95.4678 29.6929C95.2064 30.0545 94.8412 30.3249 94.3721 30.5039L96.209 33.8232V33.8877H95.1026L93.4053 30.7241ZM91.5684 29.8809H93.1529C93.6649 29.8809 94.0713 29.7484 94.3721 29.4834C94.6765 29.2184 94.8286 28.8639 94.8286 28.4199C94.8286 27.9365 94.6836 27.5659 94.3936 27.3081C94.1071 27.0503 93.6918 26.9196 93.1475 26.916H91.5684V29.8809ZM99.7913 33.9951C99.0035 33.9951 98.3626 33.7373 97.8685 33.2217C97.3743 32.7025 97.1272 32.0096 97.1272 31.1431V30.9604C97.1272 30.384 97.2365 29.8701 97.4549 29.4189C97.6769 28.9642 97.9848 28.6097 98.3787 28.3555C98.7762 28.0977 99.2059 27.9688 99.6678 27.9688C100.423 27.9688 101.011 28.2176 101.429 28.7153C101.848 29.2131 102.058 29.9256 102.058 30.853V31.2666H98.1209C98.1352 31.8395 98.3017 32.3032 98.6204 32.6577C98.9427 33.0086 99.3509 33.1841 99.845 33.1841C100.196 33.1841 100.493 33.1125 100.737 32.9692C100.98 32.826 101.193 32.6362 101.376 32.3999L101.983 32.8726C101.496 33.6209 100.765 33.9951 99.7913 33.9951ZM99.6678 28.7852C99.2667 28.7852 98.9301 28.932 98.658 29.2256C98.3859 29.5156 98.2176 29.9238 98.1531 30.4502H101.064V30.375C101.036 29.8701 100.9 29.4798 100.656 29.2041C100.413 28.9248 100.083 28.7852 99.6678 28.7852ZM105.275 32.5396L106.714 28.0762H107.73L105.646 33.8877H104.888L102.783 28.0762H103.798L105.275 32.5396ZM109.985 33.8877H108.992V28.0762H109.985V33.8877ZM108.911 26.5347C108.911 26.3735 108.959 26.2375 109.056 26.1265C109.156 26.0155 109.303 25.96 109.496 25.96C109.69 25.96 109.837 26.0155 109.937 26.1265C110.037 26.2375 110.087 26.3735 110.087 26.5347C110.087 26.6958 110.037 26.8301 109.937 26.9375C109.837 27.0449 109.69 27.0986 109.496 27.0986C109.303 27.0986 109.156 27.0449 109.056 26.9375C108.959 26.8301 108.911 26.6958 108.911 26.5347ZM114.212 33.9951C113.424 33.9951 112.783 33.7373 112.289 33.2217C111.795 32.7025 111.548 32.0096 111.548 31.1431V30.9604C111.548 30.384 111.657 29.8701 111.876 29.4189C112.098 28.9642 112.406 28.6097 112.799 28.3555C113.197 28.0977 113.627 27.9688 114.089 27.9688C114.844 27.9688 115.431 28.2176 115.85 28.7153C116.269 29.2131 116.479 29.9256 116.479 30.853V31.2666H112.542C112.556 31.8395 112.722 32.3032 113.041 32.6577C113.363 33.0086 113.772 33.1841 114.266 33.1841C114.617 33.1841 114.914 33.1125 115.157 32.9692C115.401 32.826 115.614 32.6362 115.797 32.3999L116.403 32.8726C115.916 33.6209 115.186 33.9951 114.212 33.9951ZM114.089 28.7852C113.687 28.7852 113.351 28.932 113.079 29.2256C112.807 29.5156 112.638 29.9238 112.574 30.4502H115.485V30.375C115.456 29.8701 115.32 29.4798 115.077 29.2041C114.833 28.9248 114.504 28.7852 114.089 28.7852ZM119.696 32.5396L121.135 28.0762H122.15L120.066 33.8877H119.309L117.204 28.0762H118.219L119.696 32.5396ZM126.71 32.3462C126.71 32.0776 126.608 31.87 126.404 31.7231C126.203 31.5728 125.851 31.4438 125.346 31.3364C124.845 31.229 124.445 31.1001 124.148 30.9497C123.855 30.7993 123.636 30.6203 123.493 30.4126C123.353 30.2049 123.283 29.9578 123.283 29.6714C123.283 29.1951 123.484 28.7923 123.885 28.4629C124.29 28.1335 124.805 27.9688 125.432 27.9688C126.091 27.9688 126.624 28.1388 127.032 28.479C127.444 28.8192 127.65 29.2542 127.65 29.7842H126.651C126.651 29.512 126.535 29.2775 126.302 29.0806C126.073 28.8836 125.783 28.7852 125.432 28.7852C125.07 28.7852 124.787 28.8639 124.583 29.0215C124.379 29.179 124.277 29.3849 124.277 29.6392C124.277 29.8791 124.372 30.0599 124.562 30.1816C124.752 30.3034 125.093 30.4198 125.588 30.5308C126.085 30.6418 126.488 30.7743 126.796 30.9282C127.104 31.0822 127.331 31.2684 127.478 31.4868C127.629 31.7017 127.704 31.9648 127.704 32.2764C127.704 32.7956 127.496 33.2127 127.081 33.5278C126.665 33.8394 126.127 33.9951 125.464 33.9951C124.999 33.9951 124.587 33.9128 124.229 33.748C123.871 33.5833 123.59 33.3542 123.385 33.0605C123.185 32.7633 123.085 32.4429 123.085 32.0991H124.078C124.096 32.4321 124.229 32.6971 124.476 32.894C124.726 33.0874 125.056 33.1841 125.464 33.1841C125.84 33.1841 126.141 33.1089 126.366 32.9585C126.596 32.8045 126.71 32.6004 126.71 32.3462Z" fill="white"/>
</svg>
