<svg width="42" height="42" viewBox="0 0 42 42" fill="none" xmlns="http://www.w3.org/2000/svg">
<g opacity="0.7">
<path d="M22.5264 19.2891V19.2461C22.5186 19.2598 22.5068 19.2754 22.499 19.2891H22.5264Z" fill="white"/>
<path d="M21 41C32.0457 41 41 32.0457 41 21C41 9.9543 32.0457 1 21 1C9.9543 1 1 9.9543 1 21C1 32.0457 9.9543 41 21 41Z" stroke="white" stroke-miterlimit="10"/>
<path d="M16.333 17.5469H12.3447V29.5449H16.333V17.5469Z" fill="white"/>
<path d="M14.3398 15.9121H14.3115C12.9756 15.9121 12.1104 14.9883 12.1104 13.8398C12.1104 12.6621 13.001 11.7656 14.3662 11.7656C15.7275 11.7656 16.5693 12.6621 16.5947 13.8398C16.5947 14.9883 15.7275 15.9121 14.3398 15.9121Z" fill="white"/>
<path d="M30.708 29.5449H26.7227V23.127C26.7227 21.5117 26.1455 20.4141 24.7021 20.4141C23.6006 20.4141 22.9443 21.1543 22.6572 21.8711C22.5527 22.127 22.5264 22.4863 22.5264 22.8457V29.5449H18.5391C18.5391 29.5449 18.5928 18.6738 18.5391 17.5469H22.5264V19.2461C23.0537 18.4316 24.0029 17.2676 26.1182 17.2676C28.7432 17.2676 30.708 18.9824 30.708 22.6641V29.5449Z" fill="white"/>
</g>
</svg>
