<svg width="72" height="76" viewBox="0 0 72 76" fill="none" xmlns="http://www.w3.org/2000/svg">
<path opacity="0.2" d="M45.6217 39.9945L70.2819 54.3074L72 51.3157L49.058 38L59.5011 31.9387L57.783 28.947L45.6217 36.0055L42.529 34.2105V30.6203L67.1892 16.3074L65.471 13.3157L42.529 26.6314V14.5091H39.0927V28.6258L36 30.4209L32.9073 28.626V0H29.471V26.6315L19.0279 20.5702L17.3097 23.5619L29.471 30.6205V34.2105L26.3783 36.0055L1.71815 21.6926L0 24.6843L22.942 38L12.4989 44.0611L14.217 47.0528L26.3783 39.9945L29.471 41.7895V45.3795L4.81083 59.6925L6.52898 62.6841L29.471 49.3685V61.4909H32.9073V47.374L36 45.5789L39.0927 47.374V76H42.529V49.3685L52.9721 55.4298L54.6903 52.4381L42.529 45.3795V41.7895L45.6217 39.9945ZM36 41.59L32.9073 39.7951V36.2049L36 34.4098L39.0927 36.2049V39.7951L36 41.59Z" fill="white"/>
</svg>
