<svg width="150" height="52" viewBox="0 0 150 52" fill="none" xmlns="http://www.w3.org/2000/svg">
<path fill-rule="evenodd" clip-rule="evenodd" d="M57.4498 30.1257V29.0765L64.5457 22.1824H58.1583V20.4422H68.3679V21.4038L61.1343 28.3396H68.3679V30.1257H57.4498ZM72.1037 20.4422H74.4612V30.1257H72.1037V20.4422ZM78.7647 30.1257V20.4422H80.6649L85.4004 26.1881L90.1195 20.4422H92.0197V30.1257H89.8217V23.4598L85.4988 28.9611H85.0416L80.6649 23.6169V30.1257H78.7647ZM94.8622 30.1257L100.608 20.4422H102.878L108.712 30.1257H106.064L104.843 27.9972H98.4409L97.2196 30.1257H94.8622ZM99.4436 26.2347H103.881L101.626 22.1975L99.4436 26.2347ZM111.115 30.1257V20.4422H113.496V28.3173H121.096V30.1257H111.115ZM122.282 30.1257L128.028 20.4422H130.298L136.131 30.1257H133.484L132.262 27.9972H125.861L124.64 30.1257H122.282ZM126.864 26.2347H131.301L129.046 22.1975L126.864 26.2347ZM138.535 30.1257V20.4422H147.234C148.047 20.4422 148.631 20.5908 148.989 20.8849C149.344 21.1785 149.523 21.6593 149.523 22.3231V23.4828C149.523 23.9255 149.382 24.2885 149.1 24.57C148.818 24.8527 148.409 25.0435 147.871 25.139C148.417 25.2308 148.836 25.4374 149.138 25.7611C149.439 26.0855 149.592 26.4932 149.592 26.9891V28.2291C149.592 28.8633 149.344 29.3356 148.844 29.6521C148.344 29.9686 147.592 30.1257 146.585 30.1257H138.535ZM146.15 22.0217H140.87V24.3109H146.15C146.559 24.3109 146.841 24.2577 146.989 24.1544C147.139 24.0518 147.21 23.8718 147.21 23.6169V22.7012C147.21 22.4487 147.139 22.2736 146.994 22.1745C146.849 22.0718 146.567 22.0217 146.15 22.0217ZM146.15 25.9133H140.87V28.3861H146.15C146.597 28.3861 146.902 28.3209 147.062 28.1953C147.223 28.069 147.303 27.8437 147.303 27.5236V26.7873C147.303 26.4666 147.223 26.2419 147.062 26.1078C146.902 25.9786 146.597 25.9133 146.15 25.9133Z" fill="white"/>
<path d="M30.5792 27.0963L47.5513 36.895L48.7883 34.7526L33.0532 25.668L40.218 21.5314L38.981 19.389L30.5792 24.2397L28.7237 23.1684V21.0257L45.6957 11.227L44.4587 9.0846L28.7237 18.1692V9.89609H26.2496V19.5975L24.3941 20.6688L22.5386 19.5975V0H20.0646V18.1692L12.8998 14.0326L11.6628 16.1751L20.0646 21.0257V23.1684L18.2091 24.2397L1.23701 14.441L0 16.5834L15.7351 25.668L8.57029 29.8045L9.8073 31.947L18.2091 27.0963L20.0646 28.1675V30.3103L3.09253 40.1089L4.32954 42.2514L20.0646 33.1668V41.4399H22.5386V31.7384L24.3941 30.6672L26.2496 31.7384V51.336H28.7237V33.1668L35.8884 37.3033L37.1254 35.1609L28.7237 30.3103V28.1675L30.5792 27.0963ZM24.3941 27.8106L22.5386 26.7393V24.5966L24.3941 23.5254L26.2496 24.5966V26.7393L24.3941 27.8106Z" fill="white"/>
</svg>
