<svg width="130" height="140" viewBox="0 0 156 258" fill="none" xmlns="http://www.w3.org/2000/svg">
<path fill-rule="evenodd" clip-rule="evenodd" d="M52.0623 35.8176C62.3882 21.144 73.1061 10.4838 77.4202 6.41844C86.0038 14.3807 119.084 47.6947 125.35 92.8172C127.029 104.907 126.711 116.299 125.233 126.668C123.821 136.564 121.354 145.519 118.564 153.243H38.072L30.4159 126.414C28.515 115.773 27.6662 104.337 28.7263 92.6762C30.6565 71.4439 41.0435 51.4758 52.0623 35.8176ZM40.4748 159.243H116.241C111.272 171.257 105.943 179.455 103.902 182.395H51.5464L50.3424 180.869L40.4748 159.243ZM48.935 188.27C49.4102 188.438 50.0016 188.514 50.6102 188.395H104.947C106.13 188.395 107.356 187.874 108.156 186.77C108.892 185.754 110.872 182.929 113.403 178.563L140.382 196.549C143.361 198.535 147.401 196.838 148.068 193.32L155.433 154.487C155.733 152.908 155.255 151.282 154.15 150.116L131.37 126.073C132.747 115.6 132.98 104.138 131.293 91.992C124.51 43.1456 87.9846 7.89759 80.6833 1.26926C78.7759 -0.46232 75.9433 -0.397686 74.0972 1.3118C70.241 4.88277 58.4777 16.2753 47.1555 32.3646C35.8595 48.4167 24.8172 69.4041 22.7509 92.133C21.6787 103.928 22.4639 115.436 24.274 126.116L1.38198 150.124C0.289754 151.269 -0.195668 152.864 0.0732451 154.424L6.78148 193.331C7.38186 196.814 11.3066 198.591 14.32 196.746L42.7356 179.344C43.6752 181.226 44.4483 182.681 45.0891 183.809L45.1839 184.017L45.2724 184.129C45.8788 185.179 46.3598 185.919 46.748 186.443C47.0104 186.797 47.2821 187.124 47.5712 187.402C47.8235 187.645 48.2808 188.04 48.935 188.27ZM142.455 190.719L116.306 173.287C121.212 163.891 127.025 150.178 130.174 133.534L149.443 153.871L142.455 190.719ZM6.0715 153.9L25.6893 133.327C27.5961 141.848 30.2249 149.982 32.9585 157.189L32.9854 157.283L33.0385 157.4C35.4587 163.76 37.9564 169.392 40.104 173.92L12.4438 190.859L6.0715 153.9ZM59.734 203.107C59.734 201.451 58.3909 200.107 56.734 200.107C55.0771 200.107 53.734 201.451 53.734 203.107V239.27C53.734 240.927 55.0771 242.27 56.734 242.27C58.3909 242.27 59.734 240.927 59.734 239.27V203.107ZM80.3985 203.107C80.3985 201.451 79.0554 200.107 77.3985 200.107C75.7417 200.107 74.3985 201.451 74.3985 203.107V254.769C74.3985 256.426 75.7417 257.769 77.3985 257.769C79.0554 257.769 80.3985 256.426 80.3985 254.769V203.107ZM101.063 203.107C101.063 201.451 99.7199 200.107 98.063 200.107C96.4062 200.107 95.063 201.451 95.063 203.107V239.27C95.063 240.927 96.4062 242.27 98.063 242.27C99.7199 242.27 101.063 240.927 101.063 239.27V203.107ZM99.4436 80.5965C99.4436 92.3638 89.9043 101.903 78.1369 101.903C66.3696 101.903 56.8303 92.3638 56.8303 80.5965C56.8303 68.8291 66.3696 59.2898 78.1369 59.2898C89.9043 59.2898 99.4436 68.8291 99.4436 80.5965ZM105.444 80.5965C105.444 95.6775 93.218 107.903 78.1369 107.903C63.0559 107.903 50.8303 95.6775 50.8303 80.5965C50.8303 65.5154 63.0559 53.2898 78.1369 53.2898C93.218 53.2898 105.444 65.5154 105.444 80.5965Z" fill="#00C3FF"/>
</svg>
