<svg width="20" height="28" viewBox="0 0 20 28" fill="none" xmlns="http://www.w3.org/2000/svg">
<path d="M11 0H9C4.0376 0 0 4.0376 0 9V19C0 23.9624 4.0376 28 9 28H11C15.9629 28 20 23.9624 20 19V9C20 4.0376 15.9629 0 11 0ZM11 9V12C11 12.5513 10.5513 13 10 13C9.44873 13 9 12.5513 9 12V9C9 8.44873 9.44873 8 10 8C10.5513 8 11 8.44873 11 9ZM18 19C18 22.8599 14.8594 26 11 26H9C5.14014 26 2 22.8599 2 19V9C2 5.14014 5.14014 2 9 2V6.18408C7.83838 6.59863 7 7.69824 7 9V12C7 13.6543 8.3457 15 10 15C11.6543 15 13 13.6543 13 12V9C13 7.69824 12.1611 6.59863 11 6.18408V2C14.8594 2 18 5.14014 18 9V19Z" fill="white"/>
</svg>
