<svg width="75" height="75" viewBox="0 0 75 75" fill="none" xmlns="http://www.w3.org/2000/svg">
<path d="M66.8478 0H8.15217C3.65733 0 0 3.65733 0 8.15217V53.8043C0 58.2992 3.65733 61.9565 8.15217 61.9565H13.0435V73.3696C13.0435 74.0279 13.4399 74.625 14.0498 74.8758C14.252 74.961 14.4637 75 14.6739 75C15.0974 75 15.5154 74.8336 15.8267 74.5223L28.3925 61.9565H66.8478C71.3427 61.9565 75 58.2992 75 53.8043V8.15217C75 3.65733 71.3427 0 66.8478 0ZM71.7391 53.8043C71.7391 56.5008 69.5443 58.6957 66.8478 58.6957H27.7174C27.2835 58.6957 26.8695 58.8668 26.5646 59.1733L16.3043 69.4336V60.3261C16.3043 59.4241 15.5759 58.6957 14.6739 58.6957H8.15217C5.45575 58.6957 3.26087 56.5008 3.26087 53.8043V8.15217C3.26087 5.45575 5.45575 3.26087 8.15217 3.26087H66.8478C69.5443 3.26087 71.7391 5.45575 71.7391 8.15217V53.8043Z" fill="#00C3FF"/>
<path d="M27.7173 29.3483C28.6193 29.3483 29.3478 28.6199 29.3478 27.7179V14.6744C29.3478 13.7724 28.6193 13.0439 27.7173 13.0439C26.8154 13.0439 26.0869 13.7724 26.0869 14.6744V27.7179C26.0869 28.6199 26.8154 29.3483 27.7173 29.3483Z" fill="#00C3FF"/>
<path d="M47.2828 29.3483C48.1848 29.3483 48.9132 28.6199 48.9132 27.7179V14.6744C48.9132 13.7724 48.1848 13.0439 47.2828 13.0439C46.3808 13.0439 45.6523 13.7724 45.6523 14.6744V27.7179C45.6523 28.6199 46.3808 29.3483 47.2828 29.3483Z" fill="#00C3FF"/>
<path d="M60.3667 49C59.4631 49 58.7333 48.3745 58.7333 47.6C58.7333 42.1976 53.6028 37.8 47.3 37.8H27.7C21.3972 37.8 16.2667 42.1976 16.2667 47.6C16.2667 48.3745 15.5369 49 14.6333 49C13.7297 49 13 48.3745 13 47.6C13 40.652 19.5939 35 27.7 35H47.3C55.4061 35 62 40.652 62 47.6C62 48.3745 61.2703 49 60.3667 49Z" fill="#00C3FF"/>
</svg>
