<svg width="75" height="75" viewBox="0 0 75 75" fill="none" xmlns="http://www.w3.org/2000/svg">
<path d="M66.8478 0H8.15217C3.65733 0 0 3.65733 0 8.15217V53.8043C0 58.2992 3.65733 61.9565 8.15217 61.9565H13.0435V73.3696C13.0435 74.0279 13.4399 74.625 14.0498 74.8758C14.252 74.961 14.4637 75 14.6739 75C15.0974 75 15.5154 74.8336 15.8267 74.5223L28.3925 61.9565H66.8478C71.3427 61.9565 75 58.2992 75 53.8043V8.15217C75 3.65733 71.3427 0 66.8478 0ZM71.7391 53.8043C71.7391 56.5008 69.5443 58.6957 66.8478 58.6957H27.7174C27.2835 58.6957 26.8695 58.8668 26.5646 59.1733L16.3043 69.4336V60.3261C16.3043 59.4241 15.5759 58.6957 14.6739 58.6957H8.15217C5.45575 58.6957 3.26087 56.5008 3.26087 53.8043V8.15217C3.26087 5.45575 5.45575 3.26087 8.15217 3.26087H66.8478C69.5443 3.26087 71.7391 5.45575 71.7391 8.15217V53.8043Z" fill="#00C3FF"/>
<path d="M27.7173 29.3478C28.6193 29.3478 29.3478 28.6194 29.3478 27.7174V14.6739C29.3478 13.7719 28.6193 13.0435 27.7173 13.0435C26.8154 13.0435 26.0869 13.7719 26.0869 14.6739V27.7174C26.0869 28.6194 26.8154 29.3478 27.7173 29.3478Z" fill="#00C3FF"/>
<path d="M47.2828 29.3478C48.1848 29.3478 48.9132 28.6194 48.9132 27.7174V14.6739C48.9132 13.7719 48.1848 13.0435 47.2828 13.0435C46.3808 13.0435 45.6523 13.7719 45.6523 14.6739V27.7174C45.6523 28.6194 46.3808 29.3478 47.2828 29.3478Z" fill="#00C3FF"/>
<path d="M60.3265 32.6089C59.4246 32.6089 58.6961 33.3373 58.6961 34.2393C58.6961 40.531 53.5747 45.6524 47.2831 45.6524H27.7179C21.4262 45.6524 16.3048 40.531 16.3048 34.2393C16.3048 33.3373 15.5764 32.6089 14.6744 32.6089C13.7724 32.6089 13.0439 33.3373 13.0439 34.2393C13.0439 42.331 19.6262 48.9132 27.7179 48.9132H47.2831C55.3747 48.9132 61.957 42.331 61.957 34.2393C61.957 33.3373 61.2285 32.6089 60.3265 32.6089Z" fill="#00C3FF"/>
</svg>
