<svg width="42" height="42" viewBox="0 0 42 42" fill="none" xmlns="http://www.w3.org/2000/svg">
<g opacity="0.7">
<path d="M21 41C32.0457 41 41 32.0457 41 21C41 9.9543 32.0457 1 21 1C9.9543 1 1 9.9543 1 21C1 32.0457 9.9543 41 21 41Z" stroke="white" stroke-miterlimit="10"/>
<path d="M30.4463 16.8926C30.457 17.0879 30.4609 17.2871 30.4609 17.4844C30.4609 23.5488 25.8457 30.5391 17.4077 30.5391C14.8169 30.5391 12.4048 29.7793 10.375 28.4785C10.7319 28.5176 11.0981 28.5391 11.4702 28.5391C13.6201 28.5391 15.5981 27.8066 17.1665 26.5762C15.1587 26.5391 13.4639 25.2129 12.8804 23.3906C13.1636 23.4434 13.4497 23.4727 13.7441 23.4727C14.1626 23.4727 14.5698 23.416 14.9536 23.3125C12.8555 22.8926 11.2739 21.0371 11.2739 18.8145C11.2739 18.7949 11.2739 18.7754 11.2739 18.7559C11.894 19.0996 12.6001 19.3047 13.3521 19.3301C12.1216 18.5078 11.311 17.1035 11.311 15.5117C11.311 14.6699 11.5356 13.8809 11.9307 13.2051C14.1934 15.9785 17.5737 17.8066 21.3862 17.9961C21.311 17.6621 21.269 17.3125 21.269 16.9512C21.269 14.418 23.3223 12.3652 25.8555 12.3652C27.1748 12.3652 28.3672 12.9219 29.2031 13.8145C30.25 13.6074 31.2305 13.2266 32.1172 12.7012C31.7773 13.7715 31.0469 14.6719 30.1016 15.2383C31.0293 15.1289 31.9121 14.8809 32.7363 14.5156C32.1211 15.4355 31.3438 16.2441 30.4463 16.8926Z" fill="white"/>
</g>
</svg>
