<svg width="99" height="43" viewBox="0 0 99 43" fill="none" xmlns="http://www.w3.org/2000/svg">
<path d="M64.1533 19.623C59.8652 19.623 56.3574 23.1318 56.3574 27.5181C56.3574 31.9028 59.8652 35.4121 64.1533 35.4121C68.4424 35.4121 71.9502 31.9028 71.9502 27.5181C71.9502 23.1318 68.4424 19.623 64.1533 19.623ZM64.1533 32.1963C61.6201 32.1963 59.5723 30.1494 59.5723 27.6162C59.5723 25.0811 61.6201 23.0342 64.1533 23.0342C66.6875 23.0342 68.7344 25.0811 68.7344 27.6162C68.7344 30.0518 66.5898 32.1963 64.1533 32.1963ZM81.5 23.4248C79.2607 23.4248 77.5049 25.2764 77.5049 27.5181V35.0215H74.0938V20.1113H77.5049V22.4502C77.5049 22.4502 78.9668 20.1113 81.8906 20.1113H82.8652V23.4248H81.5ZM47.4883 20.1113L50.0225 30.3442L52.752 20.1113H56.1621L51.875 35.0215H48.5605L45.9297 24.5952L43.2969 35.0215H39.9844L35.5977 20.1113H38.9121L41.835 30.3442L44.2715 20.1113H47.4883Z" fill="white"/>
<path d="M92.8057 26.9331C95.1465 25.5693 96.8008 23.0347 96.8008 20.1118H93.3906C93.3906 22.646 91.3447 24.6919 88.9082 24.6919H88.4209V12.9004H85.0098V35.022H88.4209V28.0063H88.8105C89.1992 28.0063 89.5898 28.2007 89.6875 28.4927L94.4619 35.022H98.459L92.8057 26.9331Z" fill="white"/>
<path d="M27.7051 19.6235C24.002 19.6235 21.1748 22.061 20.1016 25.9595C18.3496 23.231 16.9844 20.1118 16.2051 17.4814H12.3047V27.8115C12.3047 29.8579 10.6484 31.5142 8.60352 31.5142C6.55664 31.5142 4.89844 29.8579 4.89844 27.8115V17.4814H1V27.8115C1 32.0996 4.41211 35.5093 8.60352 35.5093C12.793 35.5093 16.2051 32.0996 16.2051 27.8115V26.0571C16.9844 27.6167 17.959 29.2739 19.0312 30.7349L16.5938 42.1372H20.5898L22.3438 33.853C23.9043 34.8281 25.6582 35.4126 27.7051 35.4126C31.9922 35.4126 35.5 31.9033 35.5 27.4214C35.5 23.1323 31.9922 19.6235 27.7051 19.6235ZM27.7051 31.4165C26.1445 31.4165 24.5859 30.7349 23.3184 29.6626L23.707 28.103V28.0063C24.002 26.3496 24.8779 23.5225 27.8008 23.5225C29.9463 23.5225 31.7012 25.2769 31.7012 27.4214C31.6025 29.6626 29.751 31.4165 27.7051 31.4165Z" fill="white"/>
<path d="M1.39746 6.0791L1.79492 2.17969H5.80176V3.09814H2.63818L2.40186 5.23047C2.78499 5.00488 3.22005 4.89209 3.70703 4.89209C4.4196 4.89209 4.98535 5.12842 5.4043 5.60107C5.82324 6.07015 6.03271 6.70573 6.03271 7.50781C6.03271 8.31348 5.81429 8.94906 5.37744 9.41455C4.94417 9.87646 4.33724 10.1074 3.55664 10.1074C2.86556 10.1074 2.3016 9.91585 1.86475 9.53271C1.4279 9.14958 1.17904 8.61963 1.11816 7.94287H2.05811C2.11898 8.39046 2.27832 8.72884 2.53613 8.95801C2.79395 9.18359 3.13411 9.29639 3.55664 9.29639C4.01855 9.29639 4.38021 9.13883 4.6416 8.82373C4.90658 8.50863 5.03906 8.07357 5.03906 7.51855C5.03906 6.99577 4.89583 6.57682 4.60938 6.26172C4.3265 5.94303 3.94873 5.78369 3.47607 5.78369C3.04281 5.78369 2.70264 5.87858 2.45557 6.06836L2.19238 6.2832L1.39746 6.0791ZM7.24121 9.479C7.24121 9.30713 7.29134 9.1639 7.3916 9.04932C7.49544 8.93473 7.64941 8.87744 7.85352 8.87744C8.05762 8.87744 8.21159 8.93473 8.31543 9.04932C8.42285 9.1639 8.47656 9.30713 8.47656 9.479C8.47656 9.64372 8.42285 9.78158 8.31543 9.89258C8.21159 10.0036 8.05762 10.0591 7.85352 10.0591C7.64941 10.0591 7.49544 10.0036 7.3916 9.89258C7.29134 9.78158 7.24121 9.64372 7.24121 9.479ZM14.9219 6.66455C14.9219 7.82829 14.7231 8.69303 14.3257 9.25879C13.9282 9.82454 13.307 10.1074 12.4619 10.1074C11.6276 10.1074 11.0099 9.83171 10.6089 9.28027C10.2078 8.72526 10.0002 7.89811 9.98584 6.79883V5.47217C9.98584 4.32275 10.1846 3.46875 10.582 2.91016C10.9795 2.35156 11.6025 2.07227 12.4512 2.07227C13.2926 2.07227 13.9121 2.34261 14.3096 2.8833C14.707 3.42041 14.9111 4.25114 14.9219 5.37549V6.66455ZM13.9282 5.30566C13.9282 4.46419 13.8101 3.85189 13.5737 3.46875C13.3374 3.08203 12.9632 2.88867 12.4512 2.88867C11.9427 2.88867 11.5721 3.08024 11.3394 3.46338C11.1066 3.84652 10.9867 4.43555 10.9795 5.23047V6.82031C10.9795 7.66536 11.1012 8.2902 11.3447 8.69482C11.5918 9.09587 11.9642 9.29639 12.4619 9.29639C12.9525 9.29639 13.3159 9.10661 13.5522 8.72705C13.7922 8.34749 13.9175 7.74951 13.9282 6.93311V5.30566Z" fill="white"/>
<path d="M31.2012 0L32.9883 3.62158L36.9844 4.20215L34.0928 7.02051L34.7754 11L31.2012 9.12158L27.627 11L28.3105 7.02051L25.418 4.20215L29.4141 3.62158L31.2012 0Z" fill="white"/>
<path d="M44.5801 0L46.3672 3.62158L50.3633 4.20215L47.4707 7.02051L48.1543 11L44.5801 9.12158L41.0059 11L41.6875 7.02051L38.7969 4.20215L42.793 3.62158L44.5801 0Z" fill="white"/>
<path d="M57.959 0L59.7461 3.62158L63.7422 4.20215L60.8506 7.02051L61.5332 11L57.959 9.12158L54.3848 11L55.0684 7.02051L52.1758 4.20215L56.1719 3.62158L57.959 0Z" fill="white"/>
<path d="M71.3379 0L73.125 3.62158L77.1211 4.20215L74.2285 7.02051L74.9121 11L71.3379 9.12158L67.7637 11L68.4463 7.02051L65.5547 4.20215L69.5508 3.62158L71.3379 0Z" fill="white"/>
<path d="M84.7168 0L86.5039 3.62158L90.5 4.20215L87.6094 7.02051L88.292 11L84.7168 9.12158L81.1436 11L81.8262 7.02051L78.9336 4.20215L82.9307 3.62158L84.7168 0Z" fill="white"/>
</svg>
