<svg width="25" height="20" viewBox="0 0 25 20" fill="none" xmlns="http://www.w3.org/2000/svg">
<path fill-rule="evenodd" clip-rule="evenodd" d="M1.08301 18.2143H9.4V17.6786H1.08301C0.81543 17.6786 0.6 17.3865 0.6 17.1446V4.46429H21.8V6.42857H22.4V0.960781C22.4 0.386091 21.7883 0 21.217 0H1.08301C0.475781 0 0 0.422014 0 0.960781V17.1446C0 17.6506 0.444727 18.2143 1.08301 18.2143ZM21.8 3.92857H0.6V0.960781C0.6 0.718471 0.807617 0.535714 1.08301 0.535714H21.217C21.4865 0.535714 21.8 0.721435 21.8 0.960781V3.92857ZM2.3999 1.96429H4.1999V2.5H2.3999V1.96429ZM7.1999 1.96429H5.3999V2.5H7.1999V1.96429ZM17.2715 15.8901C15.6395 15.8901 14.3115 14.7042 14.3115 13.2465C14.3115 11.7889 15.6395 10.603 17.2715 10.603C18.9039 10.603 20.2318 11.7889 20.2318 13.2465C20.2318 14.7042 18.9039 15.8901 17.2715 15.8901ZM17.2715 11.1387C15.9701 11.1387 14.9115 12.0843 14.9115 13.2465C14.9115 14.4088 15.9701 15.3544 17.2715 15.3544C18.573 15.3544 19.6318 14.4088 19.6318 13.2465C19.6318 12.0843 18.573 11.1387 17.2715 11.1387ZM15.6001 20H19.0001V18.4747C19.4624 18.3641 19.8214 18.2183 20.1341 18.0675L21.4403 19.2226L23.9593 16.98L22.6966 15.8429C22.9007 15.5259 23.0679 15.2105 23.1952 14.8214H25.0001V11.7857H23.264C23.1429 11.268 22.9745 10.9651 22.7696 10.6415L23.9622 9.54346L21.4562 7.28716L20.2608 8.32293C19.8474 8.1155 19.4315 7.9589 19.0001 7.84816V6.25H15.6001V7.83561C15.0161 7.95454 14.6659 8.12125 14.3087 8.31238L13.1165 7.27216L10.597 9.50736L11.7825 10.6381C11.58 10.9561 11.4034 11.2655 11.28 11.7857H9.6001V14.8214H11.3485C11.4755 15.2125 11.6415 15.5272 11.8438 15.8423L10.5782 16.9758L13.0872 19.2186L14.431 18.068C14.747 18.2342 15.0386 18.38 15.6001 18.4866V20ZM18.4001 19.4643H16.2001V18.0375L15.9493 18.0002C15.3008 17.9042 15.0471 17.7705 14.696 17.5857L14.6958 17.5855L14.3417 17.4022L13.0962 18.4685L11.4259 16.9754L12.5987 15.925L12.4767 15.7456C12.2118 15.3557 12.0073 14.9931 11.8708 14.4904L11.8151 14.2857H10.2001V12.3214H11.7827L11.8245 12.0976C11.9433 11.4624 12.1253 11.18 12.3772 10.7892L12.5239 10.5612L11.4329 9.52079L13.12 8.02429L14.222 8.98577L14.4772 8.84748L14.4774 8.84738C14.9199 8.6073 15.2397 8.43382 15.9538 8.3177L16.2001 8.27767V6.78571H18.4001V8.26477L18.6294 8.31447C19.1536 8.42817 19.6513 8.61503 20.1507 8.88576L20.3489 8.99318L21.4479 8.04068L23.122 9.54764L22.0245 10.558L22.1585 10.7663C22.4138 11.1629 22.5981 11.4495 22.719 12.0976L22.7608 12.3214H24.4001V14.2857H22.7294L22.6735 14.49C22.5372 14.9888 22.3312 15.3526 22.064 15.7455L21.9423 15.9245L23.112 16.9779L21.4388 18.4673L20.2335 17.4015L20.0353 17.5032C19.6114 17.7209 19.211 17.8892 18.6353 18.003L18.4001 18.0495V19.4643Z" fill="white"/>
</svg>
