<svg width="25" height="20" viewBox="0 0 25 20" fill="none" xmlns="http://www.w3.org/2000/svg">
<path fill-rule="evenodd" clip-rule="evenodd" d="M22.6744 3.92157H23.9341C24.5219 3.92157 25 4.40535 25 5V18.9216C25 19.5162 24.5219 20 23.9341 20H13.6628C13.075 20 12.5969 19.5162 12.5969 18.9216V15.098H10.0775V18.7255C10.0775 19.3201 9.59946 19.8039 9.01163 19.8039H3.97287C3.38504 19.8039 2.90698 19.3201 2.90698 18.7255V15.098H1.01101C0.443995 15.098 0 14.6053 0 13.9761V1.14468C0 0.513461 0.453458 0 1.01101 0H21.6816C22.3031 0 22.6744 0.582012 22.6744 1.14468V3.92157ZM9.01163 19.2157C9.27886 19.2157 9.49612 18.9958 9.49612 18.7255V9.31373C9.49612 9.04345 9.27886 8.82353 9.01163 8.82353H3.97287C3.70564 8.82353 3.48837 9.04345 3.48837 9.31373V14.5098V15.098V18.7255C3.48837 18.9958 3.70564 19.2157 3.97287 19.2157H9.01163ZM12.5969 14.5098V5C12.5969 4.40535 13.075 3.92157 13.6628 3.92157H22.093V1.14468C22.093 0.877087 21.9358 0.588235 21.6816 0.588235H1.01101C0.753997 0.588235 0.581395 0.875938 0.581395 1.14468V13.9761C0.581395 14.2328 0.74567 14.5098 1.01101 14.5098H2.90698V9.31373C2.90698 8.71908 3.38504 8.23529 3.97287 8.23529H9.01163C9.59946 8.23529 10.0775 8.71908 10.0775 9.31373V14.5098H12.5969ZM23.9341 19.4118C24.2013 19.4118 24.4186 19.1918 24.4186 18.9216V5C24.4186 4.72972 24.2013 4.5098 23.9341 4.5098H13.6628C13.3956 4.5098 13.1783 4.72972 13.1783 5V18.9216C13.1783 19.1918 13.3956 19.4118 13.6628 19.4118H23.9341ZM19.4067 17.4053C19.4067 17.7705 19.1141 18.0666 18.7531 18.0666C18.3921 18.0666 18.0995 17.7705 18.0995 17.4053C18.0995 17.0401 18.3921 16.744 18.7531 16.744C19.1141 16.744 19.4067 17.0401 19.4067 17.4053ZM4.06975 2.15686H2.32556V2.7451H4.06975V2.15686ZM5.23254 2.15686H6.97673V2.7451H5.23254V2.15686Z" fill="white"/>
</svg>
