<svg width="25" height="23" viewBox="0 0 25 23" fill="none" xmlns="http://www.w3.org/2000/svg">
<path fill-rule="evenodd" clip-rule="evenodd" d="M23.7465 0H1.18131C0.551881 0 0 0.536776 0 1.14865V14.6246C0 15.2185 0.529929 15.7017 1.18131 15.7017H7.60447L2.43771 20.6523L4.88712 23L12.5037 15.7017H12.605H12.953H23.7465C24.3517 15.7017 25 15.2689 25 14.6246V1.14865C25 0.54749 24.4026 0 23.7465 0ZM3.32893 20.6523L8.49568 15.7017L8.61345 15.5888L14.7428 9.71555L17.0804 8.96911L16.3012 11.209L4.88712 22.1458L3.32893 20.6523ZM24.3697 14.6246C24.3697 14.891 24.0347 15.0978 23.7465 15.0978H13.1339L16.8519 11.5351L18.0767 8.0143L14.4027 9.18771L8.23472 15.0978H1.18131C0.87747 15.0978 0.630252 14.8854 0.630252 14.6246V1.14865C0.630252 0.868613 0.898191 0.60391 1.18131 0.60391H23.7465C24.0493 0.60391 24.3697 0.883946 24.3697 1.14865V14.6246ZM2.74634 12.4808H8.82359V11.8769H3.9654L9.93679 3.80579L12.6531 7.52234L13.1693 7.17596L9.93966 2.75741L2.74634 12.4808ZM18.2102 4.90677C18.2102 3.88757 19.0754 3.05848 20.1391 3.05848C21.2025 3.05848 22.0678 3.88757 22.0678 4.90677C22.0678 5.92607 21.2025 6.75526 20.1391 6.75526C19.0754 6.75526 18.2102 5.92607 18.2102 4.90677ZM18.8405 4.90677C18.8405 5.59305 19.4229 6.15135 20.1391 6.15135C20.8551 6.15135 21.4376 5.59305 21.4376 4.90677C21.4376 4.22059 20.8551 3.66239 20.1391 3.66239C19.4229 3.66239 18.8405 4.22059 18.8405 4.90677Z" fill="white"/>
</svg>
