<svg width="20" height="33" viewBox="0 0 20 33" fill="none" xmlns="http://www.w3.org/2000/svg">
<path fill-rule="evenodd" clip-rule="evenodd" d="M8.74715 1.40219C9.23182 0.866649 10.0154 0.866739 10.4921 1.39769C12.1206 3.21121 14.8283 6.83893 15.4427 11.4094C15.6497 12.9495 15.6105 14.4009 15.4281 15.7223C15.2588 16.9491 14.9661 18.0626 14.6335 19.0288H4.83632L3.91169 15.6812C3.67758 14.3253 3.57347 12.8696 3.70396 11.3867C4.07632 7.155 7.0064 3.32563 8.74715 1.40219ZM5.22314 20.0288H14.2562C13.7657 21.2225 13.2565 22.1038 12.9564 22.5793C12.8856 22.6914 12.7536 22.7668 12.5925 22.7668H6.47585L6.37291 22.632L5.22314 20.0288ZM6.03763 23.7425C6.11388 23.7703 6.20839 23.7835 6.30597 23.7668H12.5925C13.0678 23.7668 13.5331 23.5391 13.802 23.1131C13.8952 22.9655 14.0066 22.7823 14.1305 22.5658L15.1259 23.2514C16.6189 24.2797 18.6756 23.4269 19.0029 21.6439L19.2731 20.1724C19.4146 19.4015 19.1864 18.6089 18.6566 18.0312L16.4495 15.6246C16.6159 14.2869 16.6419 12.8247 16.4338 11.2762C15.7799 6.41155 12.9159 2.60016 11.2362 0.729574C10.3573 -0.24919 8.88256 -0.237703 8.00571 0.731171C6.24155 2.68049 3.11072 6.72013 2.70781 11.299C2.57548 12.8028 2.66965 14.2695 2.88957 15.6317L0.662928 18.0441C0.1391 18.6116 -0.0930055 19.3894 0.0341277 20.1512L0.292975 21.7023C0.587326 23.4661 2.58437 24.3595 4.09551 23.4034L5.26142 22.6658C5.34965 22.8449 5.42541 22.9909 5.49088 23.1101L5.5061 23.1446L5.52039 23.1633C5.59562 23.2974 5.65635 23.3938 5.70638 23.4636C5.74103 23.5119 5.77904 23.5596 5.82139 23.6016C5.85726 23.6373 5.92974 23.7032 6.03763 23.7425ZM15.6932 22.4279L14.6049 21.6783C15.1841 20.5178 15.8543 18.8703 16.2469 16.8832L17.9196 18.7071C18.2375 19.0537 18.3744 19.5293 18.2895 19.9918L18.0194 21.4634C17.823 22.5331 16.5889 23.0448 15.6932 22.4279ZM1.39777 18.7223L3.12724 16.8485C3.35924 17.8589 3.66366 18.8217 3.97927 19.6819L3.98352 19.6972L3.99191 19.7162C4.27867 20.4945 4.57397 21.1876 4.832 21.7541L3.56085 22.5584C2.65417 23.132 1.45594 22.5959 1.27933 21.5377L1.02049 19.9866C0.944207 19.5295 1.08347 19.0629 1.39777 18.7223ZM7.55294 25.5381C7.55294 25.2619 7.32908 25.0381 7.05294 25.0381C6.7768 25.0381 6.55294 25.2619 6.55294 25.5381V30.1752C6.55294 30.4513 6.7768 30.6752 7.05294 30.6752C7.32908 30.6752 7.55294 30.4513 7.55294 30.1752V25.5381ZM10.1178 25.5381C10.1178 25.2619 9.8939 25.0381 9.61776 25.0381C9.34162 25.0381 9.11776 25.2619 9.11776 25.5381V32.1625C9.11776 32.4387 9.34162 32.6625 9.61776 32.6625C9.8939 32.6625 10.1178 32.4387 10.1178 32.1625V25.5381ZM12.6826 25.5381C12.6826 25.2619 12.4587 25.0381 12.1826 25.0381C11.9064 25.0381 11.6826 25.2619 11.6826 25.5381V30.1752C11.6826 30.4513 11.9064 30.6752 12.1826 30.6752C12.4587 30.6752 12.6826 30.4513 12.6826 30.1752V25.5381ZM12.0987 9.82852C12.0987 11.241 10.9986 12.33 9.70951 12.33C8.42045 12.33 7.32028 11.241 7.32028 9.82852C7.32028 8.41602 8.42045 7.32703 9.70951 7.32703C10.9986 7.32703 12.0987 8.41602 12.0987 9.82852ZM13.0987 9.82852C13.0987 11.7623 11.5813 13.33 9.70951 13.33C7.83769 13.33 6.32028 11.7623 6.32028 9.82852C6.32028 7.8947 7.83769 6.32703 9.70951 6.32703C11.5813 6.32703 13.0987 7.8947 13.0987 9.82852Z" fill="white"/>
</svg>
