<svg width="52" height="49" viewBox="0 0 52 49" fill="none" xmlns="http://www.w3.org/2000/svg">
<path fill-rule="evenodd" clip-rule="evenodd" d="M31.9991 43.3342V48.96H19.924V43.3282C18.638 42.9576 17.5638 42.4865 16.6416 42.0179L12.4383 46.1163L3.85367 37.9131L8.03928 33.8985C7.43552 32.9487 6.9037 32.0186 6.49451 30.528H0V19.008H6.36244C6.73389 17.7832 7.22091 16.6075 7.81759 15.4966L3.82654 11.7115L12.3882 3.51675L16.2271 7.22559C17.4217 6.6015 18.6593 6.09553 19.924 5.71387V0H31.9991V5.70909C33.1488 6.04406 34.5456 6.53681 35.92 7.23741L39.9281 3.53362L48.4963 11.702L44.5159 15.4941C45.1202 16.6137 45.6108 17.7902 45.9822 19.008H51.9231V30.528H45.8513C45.4392 32.0212 44.9003 32.9482 44.2894 33.9033L48.4603 37.9387L39.8603 46.1087L35.5025 42.0092C34.3858 42.5568 33.2278 42.995 31.9991 43.3342ZM16.2142 39.1404L17.0249 39.5857C18.6569 40.4814 19.9287 40.986 21.4145 41.3277L22.339 41.5403V46.656H29.5841V41.5403L30.5086 41.3277C32.1701 40.9458 33.6754 40.3774 35.1105 39.5902L35.9064 39.1537L39.8521 42.8653L45.0536 37.924L41.2441 34.2385L42.0059 33.0477L42.0064 33.0469C42.7662 31.8714 43.3155 31.0214 43.7057 29.151L43.8997 28.224H49.5081V21.312H44.1037L43.8803 20.4308C43.4723 18.8196 42.8314 17.282 41.9764 15.8608L41.5159 15.0955L45.0789 11.7014L39.9022 6.76575L36.2802 10.1123L35.4831 9.65053C34.1128 8.85628 32.337 8.16075 30.482 7.69191L29.5841 7.46494V2.304H22.339V7.46494L21.441 7.69191C19.7884 8.10984 18.1758 8.76937 16.6487 9.65278L15.8333 10.1242L12.38 6.78825L7.2439 11.7042L10.8181 15.0936L10.3576 15.8602C9.51389 17.264 8.87711 18.8018 8.46498 20.4306L8.24152 21.312H2.41503V28.224H8.44788L8.64127 29.1518C9.03512 31.0441 9.58582 31.9005 10.3488 33.086L11.087 34.2425L7.26277 37.9102L12.4206 42.8386L16.2142 39.1404ZM17.8167 26.52H21.7167L22.4607 28.32H24.5007L20.7447 19.92H18.8247L15.0807 28.32H17.0727L17.8167 26.52ZM19.7727 21.828L21.1047 25.044H18.4407L19.7727 21.828ZM30.9402 20.292C30.3962 20.044 29.7522 19.92 29.0082 19.92H25.3722V28.32H27.3162V26.004H29.0082C29.7522 26.004 30.3962 25.884 30.9402 25.644C31.4922 25.396 31.9162 25.044 32.2122 24.588C32.5082 24.124 32.6562 23.584 32.6562 22.968C32.6562 22.344 32.5082 21.804 32.2122 21.348C31.9162 20.892 31.4922 20.54 30.9402 20.292ZM30.2322 24.048C29.9282 24.296 29.4842 24.42 28.9002 24.42H27.3162V21.504H28.9002C29.4842 21.504 29.9282 21.632 30.2322 21.888C30.5362 22.136 30.6882 22.496 30.6882 22.968C30.6882 23.432 30.5362 23.792 30.2322 24.048ZM35.9881 19.92H34.0441V28.32H35.9881V19.92Z" fill="white"/>
</svg>
