<svg width="61" height="45" viewBox="0 0 61 45" fill="none" xmlns="http://www.w3.org/2000/svg">
<path fill-rule="evenodd" clip-rule="evenodd" d="M0.108398 3.00025C0.108398 1.34339 1.45154 0.000244141 3.1084 0.000244141H44.1084C45.7653 0.000244141 47.1084 1.34339 47.1084 3.00024V10.5055V15.4845H45.1084V11.5055H2.1084V27.2529V42.0002C2.1084 42.5525 2.55611 43.0002 3.1084 43.0002H44.1084C44.6607 43.0002 45.1084 42.5525 45.1084 42.0002V40.3792H47.1084V42.0002C47.1084 43.6571 45.7653 45.0002 44.1084 45.0002H3.1084C1.45154 45.0002 0.108398 43.6571 0.108398 42.0002V27.2529V10.5055V3.00025ZM2.1084 9.50551H45.1084V3.00024C45.1084 2.44796 44.6607 2.00024 44.1084 2.00024H3.1084C2.55612 2.00024 2.1084 2.44796 2.1084 3.00025V9.50551ZM9.40937 6.52656H5.04044V4.52656H9.40937V6.52656ZM15.5259 6.52656H11.1569V4.52656H15.5259V6.52656ZM60.5947 25.7676V31.1048H57.7027C57.5042 31.6266 57.2407 32.1511 56.9054 32.6922L59.038 34.5544L54.694 38.4717L52.4509 36.4856C51.8497 36.7805 51.2786 37.0021 50.5302 37.1711V40.0002H44.6592V37.1869C43.7463 37.0104 43.3247 36.7754 42.8494 36.5089L40.6743 38.5L36.3565 34.6001L38.5013 32.6946C38.1751 32.1646 37.9154 31.6394 37.7153 31.1048H34.5947V25.7676H37.5733C37.7787 24.8594 38.0653 24.3092 38.394 23.7719L36.3814 21.7456L40.6707 17.846L42.6389 19.6362C43.1918 19.3219 43.6977 19.0453 44.6592 18.8448V16.3638H50.5302V18.8622C51.4091 19.0789 52.0981 19.3781 52.6712 19.6736L54.7642 17.9032L59.044 21.8505L57.0297 23.7804C57.3565 24.3147 57.6409 24.8639 57.8452 25.7676H60.5947ZM54.6869 37.0463L57.437 34.566L55.4898 32.8655L55.7225 32.5173C56.2027 31.7983 56.5415 31.123 56.758 30.4532L56.876 30.0882H59.4764V26.7842H56.9019L56.8265 26.3564C56.6164 25.1645 56.2966 24.6581 55.8543 23.9578L55.8538 23.957L55.6463 23.6286L57.4883 21.8639L54.7303 19.3204L52.8181 20.9379L52.4566 20.7383C51.8096 20.3812 50.9938 19.9853 49.8512 19.7575L49.4119 19.6698V17.3805H45.7775V19.6878L45.315 19.7616C44.218 19.9367 43.8033 20.1727 43.1754 20.5302C43.0708 20.5898 42.9624 20.6515 42.8467 20.7153L42.4716 20.9221L40.6707 19.284L37.9234 21.7814L39.7668 23.6369L39.5647 23.9568C39.1222 24.6579 38.8025 25.1646 38.5917 26.3565L38.5161 26.7842H35.713V30.0882H38.5439L38.6616 30.4539C38.8849 31.1482 39.2186 31.8232 39.6821 32.5174L39.9126 32.8625L37.9498 34.606L40.6688 37.0622L42.6681 35.2321L43.0408 35.4273C43.1836 35.502 43.3105 35.5731 43.4315 35.6409L43.4315 35.6409C43.9371 35.9242 44.2713 36.1115 45.3066 36.262L45.7775 36.3305V38.9836H49.4119V36.3472L49.8613 36.2655C50.8638 36.0833 51.4792 35.8265 52.2636 35.4164L52.6297 35.225L54.6869 37.0463ZM42.5947 28.182C42.5947 25.6757 44.8375 23.6366 47.5943 23.6366C50.3517 23.6366 52.5947 25.6757 52.5947 28.182C52.5947 30.6884 50.3517 32.7275 47.5943 32.7275C44.8375 32.7275 42.5947 30.6884 42.5947 28.182ZM43.7046 28.182C43.7046 30.1322 45.4496 31.7187 47.5943 31.7187C49.7396 31.7187 51.4849 30.1322 51.4849 28.182C51.4849 26.2319 49.7396 24.6453 47.5943 24.6453C45.4496 24.6453 43.7046 26.2319 43.7046 28.182ZM6.7364 29.2002H10.6364L11.3804 31.0002H13.4204L9.6644 22.6002H7.7444L4.0004 31.0002H5.9924L6.7364 29.2002ZM8.6924 24.5082L10.0244 27.7242H7.3604L8.6924 24.5082ZM19.8599 22.9722C19.3159 22.7242 18.6719 22.6002 17.9279 22.6002H14.2919V31.0002H16.2359V28.6842H17.9279C18.6719 28.6842 19.3159 28.5642 19.8599 28.3242C20.4119 28.0762 20.8359 27.7242 21.1319 27.2682C21.4279 26.8042 21.5759 26.2642 21.5759 25.6482C21.5759 25.0242 21.4279 24.4842 21.1319 24.0282C20.8359 23.5722 20.4119 23.2202 19.8599 22.9722ZM19.1519 26.7282C18.8479 26.9762 18.4039 27.1002 17.8199 27.1002H16.2359V24.1842H17.8199C18.4039 24.1842 18.8479 24.3122 19.1519 24.5682C19.4559 24.8162 19.6079 25.1762 19.6079 25.6482C19.6079 26.1122 19.4559 26.4722 19.1519 26.7282ZM24.9078 22.6002H22.9638V31.0002H24.9078V22.6002Z" fill="white"/>
</svg>
