<svg width="50" height="46" viewBox="0 0 50 46" fill="none" xmlns="http://www.w3.org/2000/svg">
<path fill-rule="evenodd" clip-rule="evenodd" d="M3.47559 0.000244141C1.81873 0.000244141 0.475586 1.34339 0.475586 3.00025V10.5457V42.1821C0.475586 43.8389 1.81873 45.1821 3.47559 45.1821H46.7998C48.4567 45.1821 49.7998 43.8389 49.7998 42.1821V10.5457V3.00024C49.7998 1.34339 48.4567 0.000244141 46.7998 0.000244141H3.47559ZM2.47559 3.00025C2.47559 2.44796 2.9233 2.00024 3.47559 2.00024H46.7998C47.3521 2.00024 47.7998 2.44796 47.7998 3.00024V9.5457H2.47559V3.00025ZM2.47559 11.5457H47.7998V42.1821C47.7998 42.7343 47.3521 43.1821 46.7998 43.1821H3.47559C2.9233 43.1821 2.47559 42.7343 2.47559 42.1821V11.5457ZM6.02599 7.00024H10.1214V5.00024H6.02599V7.00024ZM12.8516 7.00024H16.947V5.00024H12.8516V7.00024ZM26.5406 27.9564L25.592 25.1138L24.6434 27.9564L21.6155 37.0302C21.4644 37.4832 21.4004 38.0317 21.5693 38.5898C21.7231 39.098 22.0397 39.9212 22.6495 40.6339C23.2822 41.3733 24.2426 42.0002 25.592 42.0002C26.9414 42.0002 27.9018 41.3733 28.5345 40.6339C29.1443 39.9212 29.4609 39.098 29.6147 38.5898C29.7836 38.0317 29.7196 37.4832 29.5685 37.0302L26.5406 27.9564ZM23.5127 37.6632L25.592 31.4321L27.6713 37.6632C27.7268 37.8297 27.7207 37.9435 27.7004 38.0104C27.585 38.3918 27.3699 38.9187 27.0149 39.3336C26.6826 39.7219 26.2449 40.0002 25.592 40.0002C24.9391 40.0002 24.5014 39.7219 24.1691 39.3336C23.8141 38.9187 23.599 38.3918 23.4836 38.0104C23.4633 37.9435 23.4572 37.8297 23.5127 37.6632ZM32.5664 24.3523L35.8833 20.7077C33.2814 18.4046 30.0081 17.0006 26.5519 16.6983L26.6436 21.6606C28.8337 21.9556 30.8959 22.8891 32.5664 24.3523ZM24.6405 21.5707C22.0791 21.6836 19.6343 22.6662 17.7096 24.352L14.3927 20.7074C17.201 18.2218 20.7912 16.7835 24.5495 16.6473L24.6405 21.5707ZM33.951 25.8023L37.2977 22.1249C39.4528 24.5693 40.8142 27.6015 41.2153 30.8184H36.2274C35.8967 28.9877 35.1159 27.2628 33.951 25.8023ZM12.9782 22.1246L16.3249 25.802C15.1599 27.2626 14.379 28.9876 14.0482 30.8184H9.06037C9.46148 27.6013 10.823 24.569 12.9782 22.1246ZM7.0466 30.8184C6.97338 31.4794 6.93621 32.147 6.93621 32.8184H8.93621H13.869H15.869C15.869 30.3629 16.8456 28.0079 18.5838 26.2715C20.322 24.5352 22.6796 23.5597 25.1378 23.5597C27.5961 23.5597 29.9536 24.5352 31.6919 26.2715C33.4301 28.0079 34.4066 30.3629 34.4066 32.8184H36.4066H41.3395H43.3395C43.3395 32.147 43.3023 31.4794 43.2291 30.8184C42.7764 26.732 40.9465 22.8969 38.0083 19.9619C34.5949 16.5522 29.9652 14.6366 25.1378 14.6366C20.3105 14.6366 15.6808 16.5522 12.2673 19.9619C9.32915 22.8969 7.49922 26.732 7.0466 30.8184Z" fill="white"/>
</svg>
