<svg width="32" height="32" viewBox="0 0 32 32" fill="none" xmlns="http://www.w3.org/2000/svg">
<path d="M30.7349 15.8665C30.7349 24.0783 24.0785 30.7352 15.867 30.7352C7.65622 30.7352 1 24.0784 1 15.8665C1 7.65612 7.65582 1 15.867 1C24.0786 1 30.7349 7.65618 30.7349 15.8665Z" stroke="white" stroke-width="2"/>
<path d="M22.8048 5.87069C21.193 5.92586 19.786 6.81568 18.7383 8.0436C17.5783 9.39176 16.8076 10.9892 16.251 12.6214C15.2568 11.806 14.4904 10.751 12.8943 10.2921C11.661 9.93754 10.3661 10.0835 9.17494 10.9708C8.61134 11.3921 8.22231 12.0284 8.03755 12.6285C7.55884 14.184 8.54061 15.5698 8.98651 16.0664L9.96177 17.1107C10.1624 17.3158 10.647 17.85 10.4099 18.6156C10.1553 19.4494 9.1506 19.9878 8.12045 19.6712C7.66012 19.53 6.9992 19.1874 7.14746 18.7056C7.20829 18.5078 7.34975 18.359 7.42586 18.1903C7.49489 18.0429 7.52856 17.9337 7.54978 17.8678C7.73793 17.2541 7.48046 16.4549 6.82265 16.2514C6.20841 16.063 5.5803 16.2124 5.3367 17.0026C5.06027 17.9006 5.49033 19.5306 7.79282 20.2396C10.4906 21.07 12.7716 19.6005 13.0955 17.6859C13.2995 16.4865 12.7574 15.5945 11.7655 14.4489L10.9566 13.554C10.4671 13.0648 10.299 12.2307 10.8057 11.5899C11.2335 11.0489 11.8424 10.8186 12.8403 11.0896C14.2974 11.4846 14.9462 12.4955 16.0292 13.3109C15.5828 14.7785 15.2899 16.2511 15.0257 17.5716L14.8633 18.5565C14.0892 22.6171 13.4978 24.8474 11.9615 26.1277C11.652 26.3481 11.2095 26.6774 10.5429 26.7012C10.1926 26.7117 10.0798 26.4709 10.0749 26.3656C10.0673 26.1209 10.2738 26.008 10.4111 25.8982C10.6168 25.7862 10.9271 25.6003 10.9056 25.0053C10.8836 24.3025 10.301 23.6928 9.45957 23.7205C8.82891 23.7417 7.86808 24.3348 7.90429 25.4212C7.94136 26.5436 8.98707 27.3842 10.5641 27.331C11.407 27.3021 13.2896 26.9598 15.1442 24.7549C17.3033 22.2269 17.9073 19.3297 18.3617 17.2089L18.869 14.4087C19.1497 14.4424 19.4515 14.4653 19.7792 14.4732C22.4682 14.5301 23.8126 13.1378 23.833 12.1243C23.8469 11.5112 23.4313 10.9071 22.8487 10.9216C22.4325 10.9332 21.9094 11.2107 21.7843 11.7865C21.661 12.3509 22.6396 12.8611 21.8749 13.3576C21.3316 13.709 20.3581 13.9563 18.9864 13.7557L19.2357 12.3773C19.7447 9.76353 20.3725 6.54887 22.7542 6.47022C22.9282 6.46201 23.5625 6.47758 23.5775 6.89801C23.5815 7.0375 23.5467 7.07428 23.3826 7.39512C23.2151 7.64523 23.1523 7.85913 23.1605 8.10358C23.1831 8.77017 23.6904 9.20927 24.4255 9.18381C25.4081 9.15099 25.6899 8.19468 25.6738 7.70323C25.6325 6.54746 24.415 5.8175 22.8048 5.87069Z" fill="white"/>
</svg>
