<svg width="70" height="70" viewBox="0 0 70 70" fill="none" xmlns="http://www.w3.org/2000/svg">
<path fill-rule="evenodd" clip-rule="evenodd" d="M5 13C5 11.3431 6.34315 10 8 10H55.5C57.1569 10 58.5 11.3431 58.5 13V21.5V27H56.5V22.5H7V56.5C7 57.0523 7.44772 57.5 8 57.5H55.5C56.0523 57.5 56.5 57.0523 56.5 56.5V54.5H58.5V56.5C58.5 58.1569 57.1569 59.5 55.5 59.5H8C6.34315 59.5 5 58.1569 5 56.5V21.5V13ZM7 20.5H56.5V13C56.5 12.4477 56.0523 12 55.5 12H8C7.44772 12 7 12.4477 7 13V20.5ZM15.5 17H10.5V15H15.5V17ZM22.5 17H17.5V15H22.5V17ZM65 38.3441V44.2151H62.1079C61.9094 44.7891 61.646 45.366 61.3107 45.9611L63.4433 48.0096L59.0993 52.3186L56.8562 50.1339C56.255 50.4583 55.6838 50.7021 54.9355 50.888V54H49.0645V50.9053C48.1515 50.7112 47.73 50.4527 47.2547 50.1596L45.0796 52.3497L40.7618 48.0598L42.9066 45.9639C42.5804 45.3808 42.3207 44.8031 42.1206 44.2151H39V38.3441H41.9786C42.1839 37.3451 42.4706 36.7398 42.7993 36.1489L40.7866 33.92L45.076 29.6303L47.0442 31.5996C47.597 31.2538 48.1029 30.9495 49.0645 30.7291V28H54.9355V30.7482C55.8143 30.9865 56.5034 31.3157 57.0765 31.6407L59.1694 29.6933L63.4493 34.0353L61.4349 36.1582C61.7617 36.746 62.0462 37.35 62.2504 38.3441H65ZM59.0922 50.7507L61.8423 48.0224L59.8951 46.1518L60.1277 45.7688C60.608 44.9779 60.9468 44.2351 61.1633 43.4982L61.2812 43.0968H63.8817V39.4624H61.3072L61.2318 38.9918C61.0217 37.6808 60.7019 37.1237 60.2596 36.3533L60.2591 36.3524L60.0516 35.9912L61.8936 34.0501L59.1356 31.2522L57.2234 33.0314L56.8619 32.8119C56.2148 32.4191 55.3991 31.9836 54.2565 31.733L53.8172 31.6366V29.1183H50.1828V31.6564L49.7203 31.7375C48.6233 31.9301 48.2086 32.1897 47.5807 32.583C47.4761 32.6485 47.3677 32.7164 47.252 32.7865L46.8768 33.0141L45.076 31.2122L42.3286 33.9593L44.172 36.0004L43.97 36.3523C43.5274 37.1234 43.2077 37.6808 42.997 38.992L42.9213 39.4624H40.1183V43.0968H42.9492L43.0669 43.4991C43.2902 44.2628 43.6238 45.0053 44.0874 45.7689L44.3178 46.1486L42.3551 48.0664L45.0741 50.7682L47.0734 48.7551L47.4461 48.9698C47.5889 49.052 47.7158 49.1302 47.8368 49.2047L47.8368 49.2048C48.3424 49.5164 48.6766 49.7224 49.7118 49.8879L50.1828 49.9633V52.8817H53.8172V49.9817L54.2666 49.8918C55.2691 49.6914 55.8845 49.4089 56.6689 48.9578L57.035 48.7473L59.0922 50.7507ZM47 40.9999C47 38.243 49.2428 36 51.9996 36C54.7569 36 57 38.243 57 40.9999C57 43.757 54.7569 46 51.9996 46C49.2428 46 47 43.757 47 40.9999ZM48.1099 40.9999C48.1099 43.1451 49.8549 44.8904 51.9996 44.8904C54.1448 44.8904 55.8901 43.1451 55.8901 40.9999C55.8901 38.8549 54.1448 37.1097 51.9996 37.1097C49.8549 37.1097 48.1099 38.8549 48.1099 40.9999ZM12.847 42.05H17.072L17.878 44H20.088L16.019 34.9H13.939L9.883 44H12.041L12.847 42.05ZM14.966 36.967L16.409 40.451H13.523L14.966 36.967ZM27.0641 35.303C26.4748 35.0343 25.7771 34.9 24.9711 34.9H21.0321V44H23.1381V41.491H24.9711C25.7771 41.491 26.4748 41.361 27.0641 41.101C27.6621 40.8323 28.1215 40.451 28.4421 39.957C28.7628 39.4543 28.9231 38.8693 28.9231 38.202C28.9231 37.526 28.7628 36.941 28.4421 36.447C28.1215 35.953 27.6621 35.5717 27.0641 35.303ZM26.2971 39.372C25.9678 39.6407 25.4868 39.775 24.8541 39.775H23.1381V36.616H24.8541C25.4868 36.616 25.9678 36.7547 26.2971 37.032C26.6265 37.3007 26.7911 37.6907 26.7911 38.202C26.7911 38.7047 26.6265 39.0947 26.2971 39.372ZM32.5327 34.9H30.4267V44H32.5327V34.9Z" fill="white"/>
</svg>
