<svg width="70" height="70" viewBox="0 0 70 70" fill="none" xmlns="http://www.w3.org/2000/svg">
<path fill-rule="evenodd" clip-rule="evenodd" d="M27.481 37.331V41.6582H18.6203V37.3265C17.6766 37.0414 16.8883 36.679 16.2117 36.3186L13.1273 39.4709L6.82783 33.1613L9.89924 30.0735C9.4562 29.3429 9.06595 28.6275 8.76569 27.481H4V18.6203H8.66877C8.94134 17.6781 9.29872 16.7739 9.73656 15.9194L6.80793 13.0081L13.0905 6.70495L15.9075 9.55766C16.7841 9.07763 17.6922 8.68846 18.6203 8.3949V4H27.481V8.39122C28.3247 8.64887 29.3496 9.02788 30.3582 9.56675L33.2993 6.71793L39.5867 13.0007L36.6658 15.9175C37.1093 16.7787 37.4693 17.6836 37.7418 18.6203H42.1013V27.481H37.6458C37.3434 28.6295 36.9479 29.3425 36.4997 30.0772L39.5603 33.181L33.2496 39.4651L30.0518 36.3119C29.2324 36.7331 28.3827 37.0701 27.481 37.331ZM15.898 34.1054L16.4929 34.4478C17.6905 35.1368 18.6237 35.5249 19.714 35.7878L20.3924 35.9513V39.8861H25.7089V35.9513L26.3873 35.7878C27.6065 35.494 28.711 35.0568 29.7641 34.4513L30.3482 34.1156L33.2435 36.9704L37.0604 33.1698L34.265 30.335L34.824 29.4191L34.8244 29.4185C35.3819 28.5143 35.785 27.8606 36.0714 26.4219L36.2137 25.7089H40.3291V20.3924H36.3634L36.1994 19.7147C35.9 18.4753 35.4297 17.2927 34.8024 16.1996L34.4645 15.6109L37.079 13.0003L33.2803 9.20397L30.6225 11.778L30.0376 11.4228C29.0321 10.8119 27.7289 10.2769 26.3678 9.91633L25.7089 9.74176V5.77215H20.3924V9.74176L19.7335 9.91633C18.5207 10.2378 17.3374 10.7451 16.2169 11.4246L15.6185 11.7871L13.0844 9.22127L9.31559 13.0025L11.9383 15.6094L11.6004 16.1991C10.9813 17.2788 10.514 18.4617 10.2116 19.7144L10.0476 20.3924H5.77215V25.7089H10.1991L10.341 26.4225C10.63 27.878 11.0341 28.5367 11.5939 29.4485L12.1356 30.338L9.32944 33.1592L13.1143 36.9499L15.898 34.1054ZM23.2055 15.7852C27.2331 15.7852 30.51 19.0625 30.51 23.0907C30.51 27.1188 27.2331 30.3959 23.2055 30.3959C19.1784 30.3959 15.9023 27.1188 15.9023 23.0907C15.9023 19.0625 19.1784 15.7852 23.2055 15.7852ZM23.2055 17.5573C20.1558 17.5573 17.6745 20.0397 17.6745 23.0907C17.6745 26.1416 20.1558 28.6237 23.2055 28.6237C26.2562 28.6237 28.7379 26.1416 28.7379 23.0907C28.7379 20.0397 26.2562 17.5573 23.2055 17.5573ZM50.8988 43.7588C47.5375 43.7588 44.8027 46.494 44.8027 49.8562C44.8027 53.2175 47.5375 55.9523 50.8988 55.9523C54.2597 55.9523 56.9941 53.2175 56.9941 49.8562C56.9941 46.494 54.2597 43.7588 50.8988 43.7588ZM50.8988 54.1801C48.5145 54.1801 46.5749 52.2403 46.5749 49.8562C46.5749 47.4712 48.5145 45.5309 50.8988 45.5309C53.2828 45.5309 55.2219 47.4712 55.2219 49.8562C55.2219 52.2403 53.2828 54.1801 50.8988 54.1801ZM65.9993 54.2149H62.5848C62.5257 54.3409 62.4625 54.4814 62.3996 54.621L62.3853 54.6527C62.2339 54.9887 62.0591 55.3761 61.8675 55.754L64.3942 58.0127L58.9375 63.3629L56.2049 60.7992C55.6498 61.1144 55.0674 61.3926 54.0373 61.6061V65.2908H46.9487V61.514C46.3135 61.3046 45.7481 61.0794 45.2414 60.8345L42.7346 63.4724L37.3394 58.1732L39.9007 55.7672C39.7065 55.377 39.5343 54.9761 39.3854 54.6296L39.3643 54.5804C39.3115 54.4577 39.2569 54.331 39.205 54.2149H35.4297V45.7971H39.0012C39.1882 45.2392 39.4361 44.5939 39.7493 43.9564L37.3247 41.6917L42.6736 36.3155L44.9455 38.6315C45.4448 38.2951 45.9488 37.9767 46.9487 37.7379V34.7212H54.0373V37.7318C55.1423 37.9743 55.8289 38.2956 56.4679 38.662L59.121 36.3296L64.4435 41.6052L62.0314 43.9441C62.3629 44.6128 62.616 45.273 62.7942 45.7971H65.9993V54.2149ZM58.9107 60.9076L61.8017 58.0724L59.6116 56.114L59.9945 55.4843C60.2727 55.0274 60.5366 54.4416 60.7694 53.9248L60.7695 53.9245C60.9776 53.463 61.1419 53.0984 61.3028 52.8488L61.5642 52.4427H64.2272V47.5693H61.4837L61.2964 46.9339C61.1255 46.3544 60.7516 45.2306 60.1676 44.2128L59.8249 43.6153L61.9125 41.5913L59.0483 38.7529L56.6648 40.8484L56.1088 40.511L56.1076 40.5102C55.1958 39.9571 54.6025 39.5971 53.0102 39.3409L52.2651 39.2208V36.4933H48.7208V39.2208L47.9758 39.3409C46.7743 39.5342 46.4094 39.7809 45.8572 40.1543L45.8567 40.1547C45.6823 40.2726 45.4976 40.3972 45.2812 40.5285L44.6807 40.8924L42.665 38.837L39.8713 41.645L41.9684 43.604L41.6184 44.2132C41.0827 45.1458 40.715 46.2075 40.5004 46.9339L40.3131 47.5693H37.2018V52.4427H40.233L40.4948 52.8492C40.6587 53.1038 40.8154 53.4683 41.0135 53.9297L41.0147 53.9325C41.2364 54.4482 41.4873 55.0321 41.7629 55.4843L42.1363 56.0984L39.8973 58.2018L42.6914 60.9457L44.8979 58.6234L45.5019 58.9702C46.1811 59.3602 47.0257 59.7009 48.0844 60.0116L48.7208 60.1983V63.5187H52.2651V60.0961L53.0227 59.985C54.4493 59.7758 54.9188 59.5007 55.629 59.0847L55.6295 59.0844L56.4576 58.6063L58.9107 60.9076Z" fill="white"/>
</svg>
