<svg width="70" height="70" viewBox="0 0 70 70" fill="none" xmlns="http://www.w3.org/2000/svg">
<path fill-rule="evenodd" clip-rule="evenodd" d="M42.4118 58.1056V65H28.2941V58.0983C26.7907 57.6441 25.5347 57.0668 24.4566 56.4925L19.5423 61.5151L9.50551 51.4621L14.3991 46.5423C13.6932 45.3783 13.0715 44.2385 12.5931 42.4118H5V28.2941H12.4386C12.8729 26.7931 13.4423 25.3524 14.1399 23.9909L9.47381 19.3524L19.4837 9.30974L23.972 13.8549C25.3686 13.0901 26.8155 12.47 28.2941 12.0023V5H42.4118V11.9964C43.756 12.4069 45.389 13.0108 46.9959 13.8694L51.682 9.33042L61.6995 19.3406L57.0457 23.9878C57.7523 25.3599 58.3258 26.8017 58.7601 28.2941H65.7059V42.4118H58.6071C58.1252 44.2416 57.4952 45.3776 56.781 46.5481L61.6574 51.4935L51.6027 61.5057L46.5078 56.4818C45.2022 57.1529 43.8483 57.6899 42.4118 58.1056ZM23.9568 52.9662L24.9046 53.5118C26.8127 54.6096 28.2996 55.2279 30.0368 55.6467L31.1176 55.9073V62.1765H39.5882V55.9073L40.6691 55.6467C42.6117 55.1787 44.3716 54.4821 46.0494 53.5173L46.98 52.9824L51.5931 57.531L57.6744 51.4755L53.2206 46.959L54.1112 45.4997L54.1118 45.4986C55.0001 44.0581 55.6423 43.0165 56.0986 40.7243L56.3254 39.5882H62.8824V31.1176H56.5639L56.3026 30.0378C55.8256 28.0632 55.0763 26.1789 54.0767 24.4373L53.5384 23.4994L57.704 19.34L51.6517 13.2914L47.417 17.3926L46.4851 16.8266C44.883 15.8533 42.8068 15.0009 40.6381 14.4264L39.5882 14.1482V7.82353H31.1176V14.1482L30.0678 14.4264C28.1356 14.9385 26.2502 15.7468 24.4648 16.8294L23.5115 17.4071L19.474 13.3189L13.4692 19.3434L17.648 23.497L17.1096 24.4366C16.1232 26.1568 15.3787 28.0415 14.8968 30.0375L14.6356 31.1176H7.82353V39.5882H14.8768L15.1029 40.7253C15.5634 43.0442 16.2073 44.0938 17.0993 45.5465L17.9623 46.9638L13.4913 51.4586L19.5216 57.4983L23.9568 52.9662ZM23.723 39.45H29.248L30.302 42H33.192L27.871 30.1H25.151L19.847 42H22.669L23.723 39.45ZM26.494 32.803L28.381 37.359H24.607L26.494 32.803ZM42.3146 30.627C41.544 30.2757 40.6316 30.1 39.5776 30.1H34.4266V42H37.1806V38.719H39.5776C40.6316 38.719 41.544 38.549 42.3146 38.209C43.0966 37.8577 43.6973 37.359 44.1166 36.713C44.536 36.0557 44.7456 35.2907 44.7456 34.418C44.7456 33.534 44.536 32.769 44.1166 32.123C43.6973 31.477 43.0966 30.9783 42.3146 30.627ZM41.3116 35.948C40.881 36.2993 40.252 36.475 39.4246 36.475H37.1806V32.344H39.4246C40.252 32.344 40.881 32.5253 41.3116 32.888C41.7423 33.2393 41.9576 33.7493 41.9576 34.418C41.9576 35.0753 41.7423 35.5853 41.3116 35.948ZM49.4658 30.1H46.7118V42H49.4658V30.1Z" fill="white"/>
</svg>
