<svg width="70" height="70" viewBox="0 0 70 70" fill="none" xmlns="http://www.w3.org/2000/svg">
<path fill-rule="evenodd" clip-rule="evenodd" d="M60.6753 17.9999V15.4919H54.9563L58.0153 12.6039C58.8893 11.7933 59.4783 11.0713 59.7823 10.4379C60.0863 9.80459 60.2383 9.12692 60.2383 8.40492C60.2383 7.60692 60.0293 6.91659 59.6113 6.33392C59.206 5.73859 58.6297 5.28259 57.8823 4.96592C57.1477 4.63659 56.2863 4.47192 55.2983 4.47192C54.1203 4.47192 53.0753 4.69359 52.1633 5.13692C51.2513 5.56759 50.5357 6.16926 50.0163 6.94192L52.2583 8.38592C52.575 7.94259 52.9677 7.61326 53.4363 7.39792C53.905 7.16992 54.4307 7.05592 55.0133 7.05592C55.71 7.05592 56.2357 7.20159 56.5903 7.49292C56.9577 7.77159 57.1413 8.17692 57.1413 8.70892C57.1413 9.07626 57.0463 9.44992 56.8563 9.82992C56.6663 10.1973 56.299 10.6406 55.7543 11.1599L50.6243 16.0049V17.9999H60.6753ZM29.0993 43.6599L41.6993 60.9999H48.5993L32.6993 39.2799L47.5193 18.9999H40.9793L29.3393 35.1399L17.5793 18.9999H10.7393L25.5593 39.4599L9.7793 60.9999H16.6793L29.0993 43.6599Z" fill="white"/>
</svg>
