<svg width="70" height="70" viewBox="0 0 70 70" fill="none" xmlns="http://www.w3.org/2000/svg">
<path fill-rule="evenodd" clip-rule="evenodd" d="M5 11C5 9.34315 6.34315 8 8 8H56C57.6569 8 59 9.34314 59 11V25.5H57V20.5H7V54.5C7 55.0523 7.44772 55.5 8 55.5H33V57.5H8C6.34315 57.5 5 56.1569 5 54.5V11ZM7 18.5H57V11C57 10.4477 56.5523 10 56 10H8C7.44772 10 7 10.4477 7 11V18.5ZM15.5 15.5H11V13.5H15.5V15.5ZM23 15.5H18.5V13.5H23V15.5ZM31.0434 29.5H58.4346L66.3603 37.9918L44.4813 62.0053L23.6767 38L31.0434 29.5ZM31.4693 32.0624L35.4194 37H27.19L31.4693 32.0624ZM27.19 39H36.7638L42.1252 56.233L27.19 39ZM46.6523 56.653L62.7361 39H51.752L46.6523 56.653ZM53.3012 37L58 31.9656L62.6988 37H53.3012ZM55.6988 31.5H46.885L51.0425 36.4889L55.6988 31.5ZM48.865 37L44.6948 31.9959L39.8575 37H48.865ZM37.5709 36.4878L42.3925 31.5H33.5806L37.5709 36.4878ZM38.8584 39H49.6702L44.4645 57.0197L38.8584 39Z" fill="white"/>
</svg>
