<svg width="50" height="53" viewBox="0 0 50 53" fill="none" xmlns="http://www.w3.org/2000/svg">
<path fill-rule="evenodd" clip-rule="evenodd" d="M44.2957 26.9633C44.2957 37.6787 35.6485 46.3508 24.9988 46.3508C14.3501 46.3508 5.70312 37.6788 5.70312 26.9633C5.70312 16.2499 14.3495 7.57886 24.9988 7.57886C35.6487 7.57886 44.2957 16.25 44.2957 26.9633ZM46.2957 26.9633C46.2957 38.7753 36.761 48.3508 24.9988 48.3508C13.2374 48.3508 3.70312 38.7753 3.70312 26.9633C3.70312 15.1532 13.237 5.57886 24.9988 5.57886C36.761 5.57886 46.2957 15.1532 46.2957 26.9633ZM28.921 16.7221C30.3084 15.0752 32.1716 13.8818 34.3061 13.8079C36.4383 13.7365 38.0505 14.7155 38.1052 16.2656C38.1266 16.9247 37.7534 18.2073 36.4522 18.2513C35.4788 18.2855 34.807 17.6965 34.7771 16.8025C34.7662 16.4747 34.8494 16.1878 35.0712 15.8524C35.108 15.7795 35.1398 15.7176 35.1674 15.6641C35.3026 15.4014 35.3337 15.3411 35.3293 15.1857C35.3095 14.6218 34.4695 14.6009 34.239 14.6119C31.0851 14.7174 30.2537 19.0288 29.5797 22.5343L29.2496 24.383C31.066 24.652 32.3552 24.3204 33.0746 23.8491C33.6873 23.4462 33.4549 23.0366 33.212 22.6083C33.0533 22.3286 32.8902 22.041 32.9547 21.742C33.1203 20.9698 33.813 20.5975 34.3642 20.5819C35.1356 20.5626 35.686 21.3727 35.6676 22.195C35.6407 23.5542 33.8603 25.4216 30.2994 25.3453C29.8656 25.3347 29.4658 25.3039 29.0941 25.2588L28.4223 29.0143L28.4041 29.1004C27.8043 31.9368 26.992 35.7785 24.1616 39.1348C21.7057 42.0919 19.2126 42.5511 18.0965 42.5898C16.0081 42.6611 14.6234 41.5338 14.5743 40.0284C14.5263 38.5713 15.7987 37.776 16.6338 37.7475C17.7481 37.7103 18.5195 38.5281 18.5487 39.4706C18.5772 40.2686 18.1662 40.5179 17.8938 40.6682C17.8678 40.6893 17.8399 40.7104 17.8113 40.7322C17.6396 40.8624 17.44 41.0138 17.4487 41.2951C17.4551 41.4362 17.6046 41.7592 18.0684 41.7451C18.9252 41.7142 19.5025 41.2971 19.9105 41.0023C19.9228 40.9934 19.935 40.9846 19.947 40.976C21.9814 39.2589 22.7645 36.2676 23.7896 30.8216L24.0046 29.5007L24.0173 29.4368C24.3639 27.6823 24.7495 25.7311 25.3336 23.7865C24.897 23.4535 24.5136 23.0963 24.1372 22.7455C23.2771 21.9439 22.4528 21.1758 21.1107 20.8073C19.7893 20.4438 18.983 20.7527 18.4165 21.4782C17.7455 22.3377 17.968 23.4563 18.6162 24.1124L19.6874 25.3127C21.0009 26.8491 21.7188 28.0455 21.4487 29.654C21.0197 32.2218 17.9991 34.1927 14.4267 33.079C11.3776 32.1281 10.8081 29.9421 11.1742 28.7377C11.4968 27.6778 12.3285 27.4775 13.1419 27.7302C14.013 28.003 14.354 29.075 14.1048 29.898C14.1032 29.9032 14.1015 29.9085 14.0997 29.9141C14.0714 30.0037 14.0268 30.1444 13.9407 30.3306C13.8993 30.4235 13.8433 30.5119 13.7862 30.6022C13.7041 30.7318 13.6195 30.8653 13.572 31.0216C13.3757 31.6678 14.2509 32.1274 14.8605 32.3167C16.2247 32.7413 17.5551 32.0192 17.8923 30.9009C18.2063 29.8741 17.5645 29.1577 17.2989 28.8826L16.0074 27.482C15.4169 26.8161 14.1168 24.9575 14.7507 22.8712C14.9954 22.0664 15.5106 21.213 16.2569 20.648C17.8342 19.458 19.5491 19.2622 21.1823 19.7377C22.7714 20.2004 23.7394 21.1152 24.6816 22.0055C24.9925 22.2993 25.3006 22.5904 25.6273 22.8617C26.3643 20.6726 27.3849 18.5302 28.921 16.7221Z" fill="white"/>
</svg>
