<svg width="51" height="64" viewBox="0 0 51 64" fill="none" xmlns="http://www.w3.org/2000/svg">
<path fill-rule="evenodd" clip-rule="evenodd" d="M32.9396 35.5829C32.929 35.589 32.9186 35.5953 32.9083 35.6018L32.7915 35.4698C31.7183 36.4201 30.3359 39.0293 31.2066 42.8846H26.8705V28.9437L30.9991 22.4194L31.9703 20.8847H30.1541H24.6607L26.758 16.8455L24.983 15.9239L22.1272 21.4238L21.3687 22.8847H23.0147H28.3379L25.0254 28.1192L24.8705 28.3641V28.6539V42.8846H19.7724C20.708 38.9936 19.2323 36.3646 18.1045 35.4186L17.9974 35.5462C15.4069 34.0297 13.3296 31.7588 12.0506 29.0264C10.634 26.0002 10.2794 22.5847 11.0442 19.3321C11.8089 16.0794 13.6483 13.1798 16.2649 11.1018C18.8815 9.02384 22.1224 7.88905 25.4637 7.88088C28.805 7.87271 32.0515 8.99164 34.6782 11.0568C37.3049 13.1219 39.1584 16.0126 39.939 19.2614C40.7197 22.5103 40.3818 25.9275 38.9801 28.9606C37.694 31.7435 35.5813 34.0538 32.9396 35.5829ZM18.467 42.8846L17.7574 42.6924C18.6713 39.3191 17.3407 37.3884 16.8191 36.9508L16.9233 36.8266C14.1569 35.1434 11.9375 32.6769 10.5562 29.7259C8.98223 26.3635 8.58827 22.5685 9.43798 18.9544C10.2877 15.3404 12.3314 12.1185 15.2387 9.80968C18.1461 7.50084 21.7471 6.23996 25.4597 6.23088C29.1722 6.22181 32.7794 7.46506 35.698 9.75967C38.6166 12.0543 40.676 15.2661 41.5434 18.876C42.4107 22.4858 42.0353 26.2827 40.4779 29.6528C39.0906 32.6544 36.8379 35.1613 34.0222 36.8596L34.1174 36.9672C33.6303 37.3985 32.3566 39.3414 33.2286 42.7391L32.6617 42.8846H34.808C36.9958 42.8846 38.7695 44.6583 38.7695 46.8462C38.7695 49.0341 36.9959 50.8077 34.808 50.8077H34.0099V53.1539C34.0099 55.363 32.219 57.1539 30.0099 57.1539H22.683C20.4738 57.1539 18.683 55.363 18.683 53.1539V50.8077H17.8849C15.697 50.8077 13.9234 49.0341 13.9234 46.8462C13.9234 44.6583 15.697 42.8846 17.8849 42.8846H18.467ZM20.683 53.1539V50.8077H32.0099V53.1539C32.0099 54.2584 31.1144 55.1539 30.0099 55.1539H22.683C21.5784 55.1539 20.683 54.2584 20.683 53.1539ZM15.9234 46.8462C15.9234 45.7629 16.8016 44.8846 17.8849 44.8846H25.8705H34.808C35.8913 44.8846 36.7695 45.7629 36.7695 46.8462C36.7695 47.9295 35.8913 48.8077 34.808 48.8077H33.0099H19.683H17.8849C16.8016 48.8077 15.9234 47.9295 15.9234 46.8462Z" fill="white"/>
</svg>
