<svg width="65" height="70" viewBox="0 0 65 70" fill="none" xmlns="http://www.w3.org/2000/svg">
<path fill-rule="evenodd" clip-rule="evenodd" d="M21 32C23.7614 32 26 29.7614 26 27C26 24.2386 23.7614 22 21 22C18.2386 22 16 24.2386 16 27C16 29.7614 18.2386 32 21 32ZM21 34C24.866 34 28 30.866 28 27C28 23.134 24.866 20 21 20C17.134 20 14 23.134 14 27C14 30.866 17.134 34 21 34Z" fill="white"/>
<path d="M8.99935 8.50002C5.99935 11.5 8.99935 12.5 8.99935 12.5L13.4994 7.99996C13.4994 7.99996 11.9993 5.50002 8.99935 8.50002Z" fill="white"/>
<path fill-rule="evenodd" clip-rule="evenodd" d="M12.0233 8.06255C11.7292 7.97754 10.9907 7.92359 9.7072 9.20709C9.0245 9.88979 8.77703 10.3685 8.69923 10.6537C8.63216 10.8997 8.68173 11.0257 8.73259 11.1105C8.76016 11.1564 8.7966 11.2018 8.8401 11.2457L12.0233 8.06255ZM13.5724 6.64173C13.3385 6.46573 13.0454 6.29428 12.6913 6.17626C11.4582 5.76524 9.95404 6.13183 8.29299 7.79288C7.47569 8.61017 6.97316 9.38148 6.76971 10.1275C6.55553 10.9128 6.69346 11.5992 7.01761 12.1395C7.16997 12.3934 7.3546 12.6011 7.53997 12.7685C7.25486 13.4726 7.38634 14.3074 7.9399 14.8935L15.7731 23.1866L17.2271 21.8133L9.39385 13.5202L14.4995 8.41449L43.0854 37.0004L37.5434 42.5424L37.4997 42.5861L25.7072 30.7928L24.293 32.207L36.0854 44.0003C36.6265 44.5414 37.4006 44.7077 38.0848 44.499L40.0849 46.4996C40.866 47.2808 42.1324 47.2809 42.9135 46.4998L47.0126 42.4006C47.7831 41.6301 47.795 40.3846 47.0394 39.5995L45.0295 37.5113C45.2053 36.853 45.035 36.1215 44.5185 35.6051L15.9137 7.00028C15.2799 6.3665 14.3267 6.24702 13.5724 6.64173ZM43.7982 39.116L39.6642 43.25L41.4993 45.0856L45.5984 40.9864L43.7982 39.116ZM7.5553 45.0118C6.76144 50.0189 7.87502 55.0465 11.265 61.4936C11.7518 62.4193 12.7396 62.9999 13.8222 62.9999H18.4228C14.4376 57.8285 12.3644 53.2858 12.2039 48.6257C12.0269 43.488 14.1833 38.4189 18.1683 32.445L19.8321 33.5549C15.9238 39.4138 14.0475 44.05 14.2027 48.5568C14.3544 52.9604 16.4538 57.4428 20.9743 62.9999H50.001C51.6578 62.9999 53.001 61.6568 53.001 59.9999V55.9139L48.4142 60.4999C47.6332 61.2809 46.3669 61.2808 45.5859 60.4998L43.5001 58.414C42.719 57.633 42.7191 56.3666 43.5002 55.5856L56.0867 42.9999C56.8678 42.2189 58.1342 42.2189 58.9152 43.0001L61.0004 45.0857C61.7812 45.8667 61.7812 47.1329 61.0003 47.9139L55.001 53.9141V59.9999C55.001 62.7613 52.7624 64.9999 50.001 64.9999H13.8222C12.0338 64.9999 10.3442 64.0398 9.4948 62.4244C5.98535 55.7501 4.69559 50.2766 5.57997 44.6987C6.45681 39.1683 9.45234 33.6764 14.1811 26.9262L15.8191 28.0737C11.121 34.7802 8.35671 39.9572 7.5553 45.0118ZM59.586 46.4998L57.5009 44.4142L44.9143 56.9998L47.0001 59.0856L59.586 46.4998Z" fill="white"/>
</svg>
