<svg width="25" height="30" viewBox="0 0 25 30" fill="none" xmlns="http://www.w3.org/2000/svg">
<path fill-rule="evenodd" clip-rule="evenodd" d="M12.5398 12.3664L7.23363 14.9139L8.24703 9.51791L3.95422 5.69678L9.88684 4.90969L12.5398 0L15.1928 4.90969L21.1254 5.69678L16.8324 9.51791L17.8458 14.9139L12.5398 12.3664ZM10.3237 5.45887L5.3681 6.11629L8.95397 9.30806L8.1074 13.8156L12.5398 11.6876L16.9721 13.8156L16.1255 9.30806L19.7116 6.11629L14.7559 5.45887L12.5398 1.35768L10.3237 5.45887ZM24.9906 12.5839V12.5838L25 12.5904V12.5905V12.64V12.7573V22.5097L9.03963 30L8.99123 29.9619L0 22.8896V12.694L0.546318 12.4363L5.07213 10.303L5.37388 10.8369L0.599001 13.0876L9.33045 19.9328L24.3451 12.8869L20.268 9.99878L20.671 9.52412L24.9906 12.5839ZM0.657895 22.6142L8.99123 29.1689V20.4587L0.657895 13.9256V22.6142ZM9.64912 29.0383L24.3421 22.143V13.5636L9.64912 20.4587V29.0383Z" fill="white"/>
</svg>
