<svg width="63" height="70" viewBox="0 0 63 70" fill="none" xmlns="http://www.w3.org/2000/svg">
<path fill-rule="evenodd" clip-rule="evenodd" d="M12.5 9C12.5 8.44772 12.0523 8 11.5 8C10.9477 8 10.5 8.44772 10.5 9V10H10C7.23858 10 5 12.2386 5 15V57C5 59.7614 7.23858 62 10 62H34.5H34.8976L35.1866 61.727L44.1866 53.227L44.5 52.931V52.5V15C44.5 12.2386 42.2614 10 39.5 10H39V9C39 8.44772 38.5523 8 38 8C37.4477 8 37 8.44772 37 9V10H32.5V9C32.5 8.44772 32.0523 8 31.5 8C30.9477 8 30.5 8.44772 30.5 9V10H25.5V9C25.5 8.44772 25.0523 8 24.5 8C23.9477 8 23.5 8.44772 23.5 9V10H19V9C19 8.44772 18.5523 8 18 8C17.4477 8 17 8.44772 17 9V10H12.5V9ZM10 12H10.5V13.5C10.5 14.0523 10.9477 14.5 11.5 14.5C12.0523 14.5 12.5 14.0523 12.5 13.5V12H17V13.5C17 14.0523 17.4477 14.5 18 14.5C18.5523 14.5 19 14.0523 19 13.5V12H23.5V13.5C23.5 14.0523 23.9477 14.5 24.5 14.5C25.0523 14.5 25.5 14.0523 25.5 13.5V12H30.5V13.5C30.5 14.0523 30.9477 14.5 31.5 14.5C32.0523 14.5 32.5 14.0523 32.5 13.5V12H37V13.5C37 14.0523 37.4477 14.5 38 14.5C38.5523 14.5 39 14.0523 39 13.5V12H39.5C41.1569 12 42.5 13.3431 42.5 15V51.5H38.5C35.7386 51.5 33.5 53.7386 33.5 56.5V60H10C8.34315 60 7 58.6569 7 57V15C7 13.3431 8.34315 12 10 12ZM38.5 53.5H40.9848L35.5 58.6801V56.5C35.5 54.8431 36.8431 53.5 38.5 53.5ZM11.5 22.5C10.9477 22.5 10.5 22.9477 10.5 23.5C10.5 24.0523 10.9477 24.5 11.5 24.5H38C38.5523 24.5 39 24.0523 39 23.5C39 22.9477 38.5523 22.5 38 22.5H11.5ZM11.25 33C10.6977 33 10.25 33.4477 10.25 34C10.25 34.5523 10.6977 35 11.25 35H24.5H38C38.5523 35 39 34.5523 39 34C39 33.4477 38.5523 33 38 33H24.5H11.25ZM11.5 43.5C10.9477 43.5 10.5 43.9477 10.5 44.5C10.5 45.0523 10.9477 45.5 11.5 45.5H38C38.5523 45.5 39 45.0523 39 44.5C39 43.9477 38.5523 43.5 38 43.5H11.5ZM11.5 53C10.9477 53 10.5 53.4477 10.5 54C10.5 54.5523 10.9477 55 11.5 55H20.75H30C30.5523 55 31 54.5523 31 54C31 53.4477 30.5523 53 30 53H20.75H11.5ZM55.3572 9.53557C54.8168 8.38716 53.1832 8.38717 52.6428 9.53557L49.0952 17.0742L49 17.2765V17.5V55.5V59.5V60.118L49.5528 60.3944L50 59.5C49.5528 60.3944 49.553 60.3945 49.5532 60.3946L49.5536 60.3948L49.5546 60.3953L49.5571 60.3966L49.5643 60.4001L49.5874 60.4114C49.6066 60.4207 49.6333 60.4334 49.667 60.4492C49.7343 60.4806 49.8299 60.524 49.9498 60.5754C50.1891 60.6779 50.5278 60.8134 50.9338 60.9487C51.7337 61.2153 52.8487 61.5 54 61.5C55.1513 61.5 56.2663 61.2153 57.0662 60.9487C57.4722 60.8134 57.8109 60.6779 58.0502 60.5754C58.1701 60.524 58.2657 60.4806 58.333 60.4492C58.3667 60.4334 58.3934 60.4207 58.4126 60.4114L58.4357 60.4001L58.4429 60.3966L58.4454 60.3953L58.4464 60.3948L58.4468 60.3946C58.447 60.3945 58.4472 60.3944 58 59.5L58.4472 60.3944L59 60.118V59.5V55.5V17.5V17.2765L58.9048 17.0742L56.9048 12.8242L55.3572 9.53557ZM51.5662 59.0513C51.3529 58.9802 51.1617 58.9091 51 58.8451V55.5V18.9706C51.7946 19.2307 52.8802 19.5 54 19.5C55.1198 19.5 56.2054 19.2307 57 18.9706V55.5V58.8451C56.8383 58.9091 56.6471 58.9802 56.4338 59.0513C55.7337 59.2847 54.8487 59.5 54 59.5C53.1513 59.5 52.2663 59.2847 51.5662 59.0513ZM51.5662 17.0513C51.4918 17.0265 51.42 17.0017 51.3512 16.9772L54 11.3485L55.0952 13.6758L56.6488 16.9772C56.58 17.0017 56.5082 17.0265 56.4338 17.0513C55.7337 17.2847 54.8487 17.5 54 17.5C53.1513 17.5 52.2663 17.2847 51.5662 17.0513Z" fill="white"/>
</svg>
