<svg width="70" height="70" viewBox="0 0 70 70" fill="none" xmlns="http://www.w3.org/2000/svg">
<path fill-rule="evenodd" clip-rule="evenodd" d="M22.279 15.1488C23.4352 11.7432 26.7873 5 35.2685 5C43.4593 5 47.1849 11.2784 48.6343 14.8034C49.1569 16.0742 49.3148 17.4872 49.3148 18.987V28.2778H21.8241V18.5267C21.8241 17.3186 21.926 16.1887 22.279 15.1488ZM51.3148 18.987V28.2778H57.537H58.537V29.2778V60.5926C58.537 64.4586 55.403 67.5926 51.537 67.5926H19C15.134 67.5926 12 64.4586 12 60.5926V29.2778V28.2778H13H19.8241V18.5267C19.8241 17.2233 19.9309 15.8441 20.3852 14.5059C21.6021 10.9213 25.4133 3 35.2685 3C44.7339 3 48.9526 10.3183 50.484 14.0428C51.148 15.6576 51.3148 17.3668 51.3148 18.987ZM14 60.5926V30.2778H20.8241H50.3148H56.537V60.5926C56.537 63.354 54.2985 65.5926 51.537 65.5926H19C16.2386 65.5926 14 63.354 14 60.5926ZM30.25 43.621C30.25 42.0223 30.8659 40.9938 31.7349 40.3363C32.6424 39.6496 33.9145 39.3056 35.269 39.3056C36.6235 39.3056 37.8951 39.6496 38.8022 40.3362C39.6708 40.9936 40.2866 42.0222 40.287 43.6212C40.2875 45.2452 39.7393 46.1131 39.2243 46.6656C38.9902 46.9167 38.7617 47.1057 38.5249 47.3015C38.4958 47.3256 38.4665 47.3498 38.4371 47.3742C38.4174 47.3906 38.3976 47.4071 38.3778 47.4237C38.2474 47.5329 38.0823 47.6744 37.9447 47.8314C37.8126 47.982 37.6112 48.2507 37.5604 48.6266C37.5367 48.8014 37.5382 49.1184 37.5405 49.4018C37.5424 49.6345 37.5467 49.9177 37.5514 50.2303L37.5514 50.2307L37.5571 50.6193C37.5706 51.5616 37.5817 52.6941 37.5518 53.6827C37.5178 54.8065 37.4059 55.494 37.128 55.9155C36.9262 56.2217 36.5109 56.5648 35.2685 56.5648C34.1456 56.5648 33.7338 56.2167 33.5066 55.8601C33.2073 55.3903 33.0819 54.6825 32.9857 53.6666C32.9871 52.9009 33.0215 52.1669 33.0537 51.4808C33.0659 51.2193 33.0778 50.9648 33.0875 50.7182C33.1048 50.2771 33.1148 49.8539 33.1003 49.4867C33.0868 49.1438 33.05 48.7433 32.9195 48.4028C32.8098 48.1166 32.6232 47.9091 32.4944 47.7812C32.3596 47.6473 32.2021 47.5188 32.073 47.414L32.0348 47.383C31.7686 47.1672 31.51 46.9575 31.2581 46.678C30.7697 46.1362 30.25 45.2667 30.25 43.621ZM35.269 37.3056C33.6155 37.3056 31.8781 37.7199 30.5281 38.7414C29.1396 39.792 28.25 41.4212 28.25 43.621C28.25 45.7737 28.9614 47.1171 29.7725 48.017C30.1326 48.4165 30.5012 48.7149 30.7592 48.9237L30.7593 48.9237L30.8127 48.967C30.9374 49.0682 31.0143 49.1327 31.0665 49.1822C31.0691 49.1963 31.0718 49.2129 31.0747 49.2322C31.0867 49.3149 31.0963 49.4244 31.1019 49.5653C31.113 49.8497 31.106 50.2073 31.089 50.64C31.0805 50.8586 31.0694 51.0951 31.0576 51.3454L31.0576 51.3455C31.0243 52.0573 30.9857 52.8796 30.9857 53.713V53.7593L30.99 53.8055C31.0813 54.7874 31.2188 55.9913 31.8198 56.9347C32.4974 57.9983 33.633 58.5648 35.2685 58.5648C36.901 58.5648 38.0937 58.0846 38.7979 57.0162C39.4261 56.0631 39.5182 54.8246 39.5509 53.7432C39.5823 52.7052 39.5703 51.5325 39.5569 50.5907L39.551 50.1926V50.1924C39.5464 49.8833 39.5423 49.6109 39.5404 49.3855C39.5393 49.2449 39.5394 49.1388 39.5399 49.0618C39.571 49.0341 39.6107 48.9999 39.6615 48.9573C39.6965 48.9281 39.7354 48.896 39.7775 48.8613L39.7775 48.8613C40.0149 48.6657 40.3562 48.3845 40.6872 48.0294C41.5161 47.1402 42.2876 45.7953 42.287 43.6207C42.2865 41.4212 41.3973 39.7921 40.0092 38.7415C38.6595 37.7199 36.9226 37.3056 35.269 37.3056ZM31.1106 49.2277C31.111 49.2282 31.1113 49.2285 31.1113 49.2285C31.1114 49.2285 31.1104 49.2271 31.1079 49.2243C31.1091 49.2259 31.11 49.227 31.1106 49.2277ZM39.4427 49.1571C39.4425 49.1571 39.4442 49.1548 39.4482 49.1503C39.4449 49.1547 39.4429 49.157 39.4427 49.1571Z" fill="white"/>
</svg>
