<svg width="70" height="70" viewBox="0 0 70 70" fill="none" xmlns="http://www.w3.org/2000/svg">
<path fill-rule="evenodd" clip-rule="evenodd" d="M44.5 42C54.7173 42 63 33.7173 63 23.5C63 13.2827 54.7173 5 44.5 5C34.2827 5 26 13.2827 26 23.5C26 33.7173 34.2827 42 44.5 42ZM44.5 44C55.8218 44 65 34.8218 65 23.5C65 12.1782 55.8218 3 44.5 3C33.1782 3 24 12.1782 24 23.5C24 29.1599 26.2937 34.284 30.0022 37.9936L5.32244 60.7533C5.10704 60.952 4.99858 61.2232 5.00001 61.4947C4.99865 61.7524 5.09627 62.0105 5.29289 62.2071L9.79289 66.7071C10.0273 66.9415 10.349 67.0352 10.6533 66.9882C10.9873 67.0378 11.3371 66.9179 11.5668 66.6407L33.1664 40.5848C36.4129 42.7427 40.3096 44 44.5 44ZM10.5883 64.674L31.5476 39.3906L31.4886 39.3423L7.43692 61.5227L10.5883 64.674ZM49.8737 17.9071C49.3083 17.4281 48.6791 17.0612 48.0074 16.8023C48.005 16.7915 48.0026 16.7807 48 16.7699C47.9513 16.567 47.8147 15.9552 48 15.7365C48.3296 15.3474 50.1192 15.3211 51.2841 16.3079C52.449 17.2946 52.8296 18.8181 52.5 19.2072C52.3147 19.426 51.4923 19.5147 51.2841 19.5C51.2656 19.4987 51.2472 19.4978 51.2289 19.4972C50.8696 18.9046 50.418 18.3682 49.8737 17.9071ZM46.3301 14.3584C45.8675 14.9045 45.6228 15.5843 45.6092 16.3333C45.0898 16.3188 44.5613 16.3552 44.031 16.4413L43.7683 13.2681C43.7144 12.6169 43.1428 12.1327 42.4916 12.1867C41.8404 12.2406 41.3562 12.8121 41.4101 13.4633L41.699 16.9528C41.7038 17.0129 41.713 17.0715 41.7263 17.1285C40.7467 17.5574 39.7988 18.1554 38.9317 18.9135L36.5615 16.9057C36.0359 16.4605 35.248 16.5257 34.8028 17.0513C34.3576 17.5769 34.4228 18.3648 34.9484 18.81L37.2378 20.7493C36.47 21.7825 35.9062 22.8965 35.5476 24.026L32.7451 24.404C32.0519 24.4975 31.5033 25.1401 31.5204 25.8399C31.5278 26.1911 31.6774 26.4904 31.9121 26.6892C32.1444 26.886 32.4606 26.9836 32.806 26.9359L35.0849 26.6291C34.9972 28.9383 35.7937 31.0991 37.4851 32.5319C39.1627 33.953 41.402 34.3879 43.6468 33.94L43.882 36.6614C43.9104 37.0044 44.0757 37.3017 44.3186 37.5075C44.5641 37.7154 44.8892 37.8292 45.2345 37.8006C45.9226 37.7413 46.4318 37.1351 46.3724 36.447L46.1034 33.3403C46.1063 33.2591 46.1012 33.1778 46.0882 33.0975C47.2739 32.5081 48.4007 31.6673 49.3784 30.592L51.3598 32.2704C51.8863 32.7164 52.6756 32.6511 53.1216 32.1246C53.5676 31.5981 53.5022 30.8089 52.9757 30.3629L50.8575 28.5685C51.3744 27.6718 51.7508 26.7353 51.9862 25.7963L55.7038 25.4886C56.4529 25.4266 57.0098 24.7691 56.9478 24.0201C56.8858 23.271 56.2284 22.7141 55.4793 22.7761L52.2701 23.0418C52.2506 22.6398 52.2033 22.2445 52.1281 21.8592C52.8655 21.7224 53.4971 21.369 53.9604 20.822C55.3199 19.2171 54.7081 16.5408 52.5691 14.7289C50.43 12.9169 47.6896 12.7535 46.3301 14.3584ZM47.4474 18.8407C45.0536 17.9172 41.4897 18.9602 39.3382 21.5C37.1642 24.0664 36.6172 27.8506 37.9399 30.0644L47.4474 18.8407ZM49.0723 20.0168L39.3894 31.4475C41.7824 32.7156 45.7863 31.7096 48.0816 29C50.3997 26.2634 50.765 22.1423 49.0723 20.0168Z" fill="white"/>
</svg>
