<svg width="70" height="70" viewBox="0 0 70 70" fill="none" xmlns="http://www.w3.org/2000/svg">
<path fill-rule="evenodd" clip-rule="evenodd" d="M11 10C9.34315 10 8 11.3431 8 13V21.5V56.5C8 58.1569 9.34315 59.5 11 59.5H59C60.6569 59.5 62 58.1569 62 56.5V21.5V13C62 11.3431 60.6569 10 59 10H11ZM10 13C10 12.4477 10.4477 12 11 12H59C59.5523 12 60 12.4477 60 13V20.5H10V13ZM10 22.5H60V56.5C60 57.0523 59.5523 57.5 59 57.5H11C10.4477 57.5 10 57.0523 10 56.5V22.5ZM14 17.5H18.5V15.5H14V17.5ZM21.5 17.5H26V15.5H21.5V17.5ZM36.4487 40.6838L35.5 37.8377L34.5513 40.6838L31.2084 50.7125C31.0573 51.166 30.9952 51.709 31.1574 52.2623C31.3162 52.804 31.6515 53.707 32.3078 54.4918C32.9868 55.3037 34.0255 56 35.5 56C36.9745 56 38.0132 55.3037 38.6922 54.4918C39.3485 53.707 39.6838 52.804 39.8426 52.2623C40.0048 51.709 39.9427 51.166 39.7916 50.7125L36.4487 40.6838ZM33.1058 51.345L35.5 44.1623L37.8942 51.345C37.9494 51.5105 37.9447 51.627 37.9234 51.6997C37.801 52.1173 37.5635 52.7238 37.158 53.2087C36.7752 53.6665 36.2629 54 35.5 54C34.7371 54 34.2248 53.6665 33.842 53.2087C33.4365 52.7238 33.199 52.1173 33.0766 51.6997C33.0553 51.627 33.0506 51.5105 33.1058 51.345ZM43.1029 36.9002L47.015 32.5969C44.0817 29.9672 40.3685 28.375 36.4503 28.0585L36.5584 33.9154C38.9837 34.2282 41.2669 35.2652 43.1029 36.9002ZM34.5563 33.8235C31.7207 33.9267 29.0121 35.0167 26.8971 36.9002L22.985 32.5969C26.1419 29.7668 30.2021 28.1384 34.449 28.0084L34.5563 33.8235ZM44.4857 38.3524L48.4293 34.0144C50.9204 36.8053 52.4748 40.298 52.8886 44H47.0194C46.6757 41.9349 45.8046 39.9881 44.4857 38.3524ZM21.5707 34.0144L25.5143 38.3524C24.1954 39.9881 23.3243 41.9349 22.9806 44L17.1114 44C17.5252 40.298 19.0796 36.8053 21.5707 34.0144ZM15.1002 44C15.0337 44.6617 15 45.3291 15 46L17 46H22.8154H24.8154C24.8154 43.2989 25.8884 40.7084 27.7984 38.7984C29.7084 36.8884 32.2989 35.8154 35 35.8154C37.7011 35.8154 40.2916 36.8884 42.2016 38.7984C44.1116 40.7084 45.1846 43.2989 45.1846 46H47.1846H53H55C55 45.3291 54.9663 44.6617 54.8998 44C54.4407 39.4302 52.4185 35.1342 49.1421 31.8579C45.3914 28.1071 40.3043 26 35 26C29.6957 26 24.6086 28.1071 20.8579 31.8579C17.5815 35.1342 15.5593 39.4302 15.1002 44Z" fill="white"/>
</svg>
