<svg width="150" height="193" viewBox="0 0 150 193" fill="none" xmlns="http://www.w3.org/2000/svg">
<path fill-rule="evenodd" clip-rule="evenodd" d="M77.248 13C77.248 11.8954 76.3526 11 75.248 11C74.1435 11 73.248 11.8954 73.248 13V40.1178C73.248 41.2223 74.1435 42.1178 75.248 42.1178C76.3526 42.1178 77.248 41.2223 77.248 40.1178V13ZM115.362 181.669L75.5013 160.714L35.6377 181.669L43.2526 137.28L11 105.846L55.5695 99.3712L75.5013 58.9819L95.4318 99.3712L140 105.846L107.75 137.28L115.362 181.669ZM59.1711 104.329L22.6548 109.633L49.0787 135.387L42.8409 171.756L75.5013 154.587L108.159 171.756L101.921 135.387L128.345 109.633L91.8302 104.329L75.5013 71.2379L59.1711 104.329ZM130.27 34.6581C131.051 35.4391 131.051 36.7054 130.27 37.4865L111.095 56.6616C110.313 57.4427 109.047 57.4427 108.266 56.6616C107.485 55.8806 107.485 54.6142 108.266 53.8332L127.441 34.6581C128.222 33.877 129.489 33.877 130.27 34.6581ZM43.4923 54.6292C44.2734 55.4103 44.2734 56.6766 43.4923 57.4577C42.7113 58.2387 41.445 58.2387 40.6639 57.4577L21.4888 38.2825C20.7077 37.5015 20.7077 36.2351 21.4888 35.4541C22.2698 34.673 23.5361 34.673 24.3172 35.4541L43.4923 54.6292Z" fill="#00C3FF"/>
</svg>
