<svg width="21" height="29" viewBox="0 0 21 29" fill="none" xmlns="http://www.w3.org/2000/svg">
<path fill-rule="evenodd" clip-rule="evenodd" d="M10.959 0.5C10.959 0.223858 10.7351 0 10.459 0C10.1828 0 9.95898 0.223858 9.95898 0.5V5.07997C9.95898 5.35611 10.1828 5.57997 10.459 5.57997C10.7351 5.57997 10.959 5.35611 10.959 5.07997V0.5ZM15.75 21.4899L16.9892 28.9868L10.5002 25.4476L4.01079 28.9868L5.25043 21.4899L0 16.1808L7.2555 15.0873L10.5002 8.26587L13.7447 15.0873L21 16.1808L15.75 21.4899ZM7.8418 15.9246L1.89729 16.8204L6.19886 21.1701L5.18339 27.3124L10.5002 24.4127L15.8166 27.3124L14.8011 21.1701L19.1027 16.8204L13.1584 15.9246L10.5002 10.3358L7.8418 15.9246ZM19.5328 4.03673C19.7244 4.23555 19.7244 4.5579 19.5328 4.75672L16.4112 7.99525C16.2196 8.19407 15.9089 8.19407 15.7172 7.99525C15.5256 7.79643 15.5256 7.47408 15.7172 7.27526L18.8388 4.03673C19.0304 3.83791 19.3411 3.83791 19.5328 4.03673ZM5.40627 7.40966C5.59791 7.60848 5.59791 7.93083 5.40627 8.12965C5.21463 8.32847 4.90392 8.32847 4.71229 8.12965L1.59075 4.89112C1.39911 4.6923 1.39911 4.36995 1.59075 4.17113C1.78239 3.97231 2.0931 3.97231 2.28473 4.17113L5.40627 7.40966Z" fill="white"/>
</svg>
