<svg width="79" height="70" viewBox="0 0 79 70" fill="none" xmlns="http://www.w3.org/2000/svg">
<path d="M53.6 54C53.0477 54 52.6 54.4477 52.6 55C52.6 55.5523 53.0477 56 53.6 56V54ZM67.4 56C67.9523 56 68.4 55.5523 68.4 55C68.4 54.4477 67.9523 54 67.4 54V56ZM52.8165 47.1786C52.4733 47.6113 52.5459 48.2403 52.9786 48.5835C53.4113 48.9267 54.0403 48.8541 54.3835 48.4214L52.8165 47.1786ZM68.1835 31.0214C68.5267 30.5887 68.4541 29.9597 68.0214 29.6165C67.5887 29.2733 66.9597 29.3459 66.6165 29.7786L68.1835 31.0214ZM19.2407 39.3492C18.8813 39.7685 18.9299 40.3998 19.3492 40.7593C19.7685 41.1187 20.3998 41.0701 20.7593 40.6508L19.2407 39.3492ZM42.3593 15.4508C42.7187 15.0315 42.6701 14.4002 42.2508 14.0407C41.8315 13.6813 41.2002 13.7299 40.8407 14.1492L42.3593 15.4508ZM22.4 63C21.8477 63 21.4 63.4477 21.4 64C21.4 64.5523 21.8477 65 22.4 65V63ZM41.6 65C42.1523 65 42.6 64.5523 42.6 64C42.6 63.4477 42.1523 63 41.6 63V65ZM7 8H57.6V6H7V8ZM58.6 9V23.2H60.6V9H58.6ZM59.6 24.2H72V22.2H59.6V24.2ZM73 25.2V62H75V25.2H73ZM72 63H47.8V65H72V63ZM47.8 24.2H59.6V22.2H47.8V24.2ZM46.8 62V56.2H44.8V62H46.8ZM6 54.2V46H4V54.2H6ZM6 46V9H4V46H6ZM46.8 56.2V46H44.8V56.2H46.8ZM46.8 46V25.2H44.8V46H46.8ZM5 47H45.8V45H5V47ZM53.6 56H67.4V54H53.6V56ZM54.3835 48.4214L68.1835 31.0214L66.6165 29.7786L52.8165 47.1786L54.3835 48.4214ZM20.7593 40.6508L42.3593 15.4508L40.8407 14.1492L19.2407 39.3492L20.7593 40.6508ZM22.4 65H27.2V63H22.4V65ZM7 57.2H29.6V55.2H7V57.2ZM28.1558 64.2941L30.5558 56.4941L28.6442 55.9059L26.2442 63.7059L28.1558 64.2941ZM29.6 57.2H34.4V55.2H29.6V57.2ZM34.4 57.2H45.8V55.2H34.4V57.2ZM27.2 65H36.8V63H27.2V65ZM36.8 65H41.6V63H36.8V65ZM33.4442 56.4941L35.8442 64.2941L37.7558 63.7059L35.3558 55.9059L33.4442 56.4941ZM47.8 22.2C46.1431 22.2 44.8 23.5431 44.8 25.2H46.8C46.8 24.6477 47.2477 24.2 47.8 24.2V22.2ZM47.8 63C47.2477 63 46.8 62.5523 46.8 62H44.8C44.8 63.6569 46.1431 65 47.8 65V63ZM72 24.2C72.5523 24.2 73 24.6477 73 25.2H75C75 23.5431 73.6569 22.2 72 22.2V24.2ZM57.6 8C58.1523 8 58.6 8.44772 58.6 9H60.6C60.6 7.34315 59.2569 6 57.6 6V8ZM7 6C5.34315 6 4 7.34315 4 9H6C6 8.44772 6.44772 8 7 8V6ZM73 62C73 62.5523 72.5523 63 72 63V65C73.6569 65 75 63.6569 75 62H73ZM4 54.2C4 55.8569 5.34315 57.2 7 57.2V55.2C6.44772 55.2 6 54.7523 6 54.2H4Z" fill="white"/>
</svg>
