<svg width="70" height="70" viewBox="0 0 70 70" fill="none" xmlns="http://www.w3.org/2000/svg">
<path fill-rule="evenodd" clip-rule="evenodd" d="M33.3952 0.4323C34.0892 0.0876752 34.9037 0.0842774 35.6005 0.42311L62.7781 13.6389C64.6189 14.534 64.6627 17.1409 62.8531 18.0974L35.6759 32.4621C34.9382 32.852 34.0545 32.8482 33.3202 32.4518L6.70875 18.0868C4.92478 17.1238 4.9686 14.5495 6.78432 13.6478L33.3952 0.4323ZM34.7259 2.22173C34.5865 2.15397 34.4236 2.15464 34.2848 2.22357L7.6739 15.4391C7.31075 15.6194 7.30199 16.1343 7.65878 16.3269L34.2702 30.6918C34.4171 30.7711 34.5938 30.7719 34.7413 30.6939L61.9185 16.3292C62.2804 16.1379 62.2717 15.6165 61.9035 15.4375L34.7259 2.22173ZM62.2742 24.4145C63.9408 23.4767 66.0003 24.681 66.0003 26.5933V53.0029C66.0003 53.9033 65.5161 54.7341 64.7328 55.178L41.0453 68.601C39.3787 69.5454 37.3128 68.3415 37.3128 66.4259V39.9228C37.3128 39.0197 37.7998 38.1869 38.5867 37.744L62.2742 24.4145ZM64.0003 26.5933C64.0003 26.2108 63.5884 25.97 63.2551 26.1575L39.5676 39.487C39.4102 39.5756 39.3128 39.7422 39.3128 39.9228V66.4259C39.3128 66.8091 39.7259 67.0498 40.0593 66.861L63.7468 53.4379C63.9034 53.3491 64.0003 53.183 64.0003 53.0029V26.5933ZM6.31986 26.9149C5.99096 26.7358 5.58916 26.9686 5.58086 27.343L5.01966 52.6599C5.01562 52.8421 5.11104 53.012 5.26871 53.1035L28.9369 66.8288C29.2703 67.0221 29.6878 66.7816 29.6878 66.3962V39.9368C29.6878 39.7537 29.5877 39.5853 29.4269 39.4977L6.31986 26.9149ZM3.58135 27.2986C3.62285 25.4266 5.63184 24.263 7.27633 25.1585L30.3833 37.7412C31.1874 38.1791 31.6878 39.0213 31.6878 39.9368V66.3962C31.6878 68.3229 29.6003 69.5254 27.9336 68.5589L4.26539 54.8336C3.47708 54.3765 2.99995 53.5266 3.02015 52.6155L3.58135 27.2986Z" fill="white"/>
</svg>
