<svg width="70" height="70" viewBox="0 0 70 70" fill="none" xmlns="http://www.w3.org/2000/svg">
<path d="M11 17.5L11.7071 16.7929L10.9618 16.0476L10.2567 16.831L11 17.5ZM14.5 21L13.7929 21.7071L14.5 22.4142L15.2071 21.7071L14.5 21ZM43.5 14C44.0523 14 44.5 13.5523 44.5 13C44.5 12.4477 44.0523 12 43.5 12V14ZM16.9145 58L15.9146 58.0132L16.9145 58ZM43 59C43.5523 59 44 58.5523 44 58C44 57.4477 43.5523 57 43 57V59ZM25 31.5V30.5H24V31.5H25ZM25 39.5H24V40.5H25V39.5ZM33 39.5V40.5H34V39.5H33ZM33 31.5H34V30.5H33V31.5ZM38.5 31.5V30.5H37.5V31.5H38.5ZM38.5 39.5H37.5V40.5H38.5V39.5ZM46 39.5V40.5H47V39.5H46ZM46 31.5H47V30.5H46V31.5ZM38.5 26H37.5V27H38.5V26ZM46 26V27H47V26H46ZM46 18H47V17H46V18ZM38.5 18V17H37.5V18H38.5ZM25 45V44H24V45H25ZM25 52.5H24V53.5H25V52.5ZM33 52.5V53.5H34V52.5H33ZM33 45H34V44H33V45ZM37.5 52.5C37.5 53.0523 37.9477 53.5 38.5 53.5C39.0523 53.5 39.5 53.0523 39.5 52.5H37.5ZM38.5 45V44H37.5V45H38.5ZM42.5 46C43.0523 46 43.5 45.5523 43.5 45C43.5 44.4477 43.0523 44 42.5 44V46ZM25 25C24.4477 25 24 25.4477 24 26C24 26.5523 24.4477 27 25 27V25ZM33 26V27H34V26H33ZM34 18C34 17.4477 33.5523 17 33 17C32.4477 17 32 17.4477 32 18H34ZM58.6888 49.4635L58.1927 48.5953L58.6888 49.4635ZM58.6644 48.5822L58.2172 49.4766L58.6644 48.5822ZM53.2481 52.5725L53.7442 53.4408L53.2481 52.5725ZM53.2236 45.8618L52.7764 46.7562L53.2236 45.8618ZM17.5 10V8H15.5V10H17.5ZM18.5 7H51.5V5H18.5V7ZM52.5 8V39H54.5V8H52.5ZM53.5 40H61.5V38H53.5V40ZM62.5 41V56H64.5V41H62.5ZM48.5 56V41H46.5V56H48.5ZM49.5 40H53.5V38H49.5V40ZM61.5 57H53.5V59H61.5V57ZM53.5 57H49.5V59H53.5V57ZM52.5 58V62.5H54.5V58H52.5ZM51.5 63.5H18.9739V65.5H51.5V63.5ZM16.5 25.5H8V27.5H16.5V25.5ZM7 24.5V12H5V24.5H7ZM8 11H19.5V9H8V11ZM19.5 25.5H16.5V27.5H19.5V25.5ZM7.24329 23.169L11.7433 18.169L10.2567 16.831L5.75671 21.831L7.24329 23.169ZM10.2929 18.2071L13.7929 21.7071L15.2071 20.2929L11.7071 16.7929L10.2929 18.2071ZM20.5 14V24.5H22.5V14H20.5ZM15.2071 21.7071L22.2071 14.7071L20.7929 13.2929L13.7929 20.2929L15.2071 21.7071ZM20.5 12V13H22.5V12H20.5ZM20.5 13V14H22.5V13H20.5ZM21.5 14H43.5V12H21.5V14ZM17.9739 62.5132L17.9144 57.9868L15.9146 58.0132L15.9741 62.5395L17.9739 62.5132ZM17.9144 57.9868L17.4999 26.4868L15.5001 26.5132L15.9146 58.0132L17.9144 57.9868ZM16.9145 59H43V57H16.9145V59ZM51.5 46.309V52.1384H53.5V46.309H51.5ZM53.7442 53.4408L59.185 50.3318L58.1927 48.5953L52.7519 51.7043L53.7442 53.4408ZM59.1116 47.6878L53.6708 44.9674L52.7764 46.7562L58.2172 49.4766L59.1116 47.6878ZM24 31.5V39.5H26V31.5H24ZM25 40.5H33V38.5H25V40.5ZM34 39.5V31.5H32V39.5H34ZM33 30.5H25V32.5H33V30.5ZM37.5 31.5V39.5H39.5V31.5H37.5ZM38.5 40.5H46V38.5H38.5V40.5ZM47 39.5V31.5H45V39.5H47ZM46 30.5H38.5V32.5H46V30.5ZM38.5 27H46V25H38.5V27ZM47 26V18H45V26H47ZM46 17H38.5V19H46V17ZM37.5 18V26H39.5V18H37.5ZM24 45V52.5H26V45H24ZM25 53.5H33V51.5H25V53.5ZM34 52.5V45H32V52.5H34ZM33 44H25V46H33V44ZM39.5 52.5V45H37.5V52.5H39.5ZM38.5 46H42.5V44H38.5V46ZM25 27H33V25H25V27ZM34 26V18H32V26H34ZM59.185 50.3318C60.2252 49.7374 60.1832 48.2235 59.1116 47.6878L58.2172 49.4766C57.86 49.298 57.846 48.7934 58.1927 48.5953L59.185 50.3318ZM19.5 27.5C21.1569 27.5 22.5 26.1569 22.5 24.5H20.5C20.5 25.0523 20.0523 25.5 19.5 25.5V27.5ZM19.5 11C20.0523 11 20.5 11.4477 20.5 12H22.5C22.5 10.3431 21.1569 9 19.5 9V11ZM18.9739 63.5C18.4267 63.5 17.9811 63.0603 17.9739 62.5132L15.9741 62.5395C15.9957 64.1808 17.3324 65.5 18.9739 65.5V63.5ZM52.5 62.5C52.5 63.0523 52.0523 63.5 51.5 63.5V65.5C53.1569 65.5 54.5 64.1569 54.5 62.5H52.5ZM48.5 41C48.5 40.4477 48.9477 40 49.5 40V38C47.8431 38 46.5 39.3431 46.5 41H48.5ZM62.5 56C62.5 56.5523 62.0523 57 61.5 57V59C63.1569 59 64.5 57.6569 64.5 56H62.5ZM61.5 40C62.0523 40 62.5 40.4477 62.5 41H64.5C64.5 39.3431 63.1569 38 61.5 38V40ZM7 12C7 11.4477 7.44772 11 8 11V9C6.34315 9 5 10.3431 5 12H7ZM51.5 52.1384C51.5 53.2901 52.7442 54.0122 53.7442 53.4408L52.7519 51.7043C53.0853 51.5138 53.5 51.7545 53.5 52.1384H51.5ZM51.5 7C52.0523 7 52.5 7.44772 52.5 8H54.5C54.5 6.34315 53.1569 5 51.5 5V7ZM46.5 56C46.5 57.6569 47.8431 59 49.5 59V57C48.9477 57 48.5 56.5523 48.5 56H46.5ZM8 25.5C7.44772 25.5 7 25.0523 7 24.5H5C5 26.1569 6.34315 27.5 8 27.5V25.5ZM53.5 46.309C53.5 46.6807 53.1088 46.9225 52.7764 46.7562L53.6708 44.9674C52.6735 44.4687 51.5 45.1939 51.5 46.309H53.5ZM17.5 8C17.5 7.44772 17.9477 7 18.5 7V5C16.8431 5 15.5 6.34315 15.5 8H17.5Z" fill="white"/>
</svg>
