<svg width="60" height="60" viewBox="0 0 60 60" fill="none" xmlns="http://www.w3.org/2000/svg">
<path fill-rule="evenodd" clip-rule="evenodd" d="M6.47852 6.47778H53.5233V53.5226H6.47852V6.47778ZM4.47852 4.47778H6.47852H53.5233H55.5233V6.47778V53.5226V55.5226H53.5233H6.47852H4.47852V53.5226V6.47778V4.47778ZM21.8622 45.1067L17.9118 47.5001L17.9116 47.4997C19.0552 49.9279 21.3078 51.94 25.1886 51.94C29.4859 51.94 32.4312 49.6504 32.4312 44.6204V28.0392H27.58V44.5518C27.58 46.9798 26.5748 47.604 24.9807 47.604C23.3177 47.604 22.6244 46.4594 21.8622 45.1067ZM39.0161 44.6902L35.0662 46.9796C36.4868 49.7897 39.3975 51.9406 43.9022 51.9406C48.5109 51.9406 51.9415 49.5472 51.9415 45.1759C51.9415 41.1176 49.6198 39.3139 45.496 37.5445L44.2833 37.0242C42.2043 36.1223 41.3033 35.5322 41.3033 34.0753C41.3033 32.896 42.2043 31.9941 43.6251 31.9941C45.0113 31.9941 45.9118 32.5837 46.7437 34.0753L50.521 31.6469C48.9272 28.837 46.7094 27.7615 43.6253 27.7615C39.2936 27.7615 36.5215 30.5368 36.5215 34.1793C36.5215 38.1339 38.8431 40.0073 42.3432 41.4985L43.5557 42.0193C45.7735 42.9903 47.0903 43.5802 47.0903 45.2452C47.0903 46.6328 45.8086 47.6389 43.7983 47.6389C41.4075 47.6389 40.0561 46.3902 39.0161 44.6902Z" fill="white"/>
</svg>
