<svg width="70" height="70" viewBox="0 0 70 70" fill="none" xmlns="http://www.w3.org/2000/svg">
<g clip-path="url(#clip0)">
<path fill-rule="evenodd" clip-rule="evenodd" d="M62.4617 20.615C65.5205 20.615 68.0001 18.1354 68.0001 15.0765C68.0001 12.0177 65.5205 9.53809 62.4617 9.53809C59.4029 9.53809 56.9232 12.0177 56.9232 15.0765C56.9232 18.1354 59.4029 20.615 62.4617 20.615ZM62.4617 22.615C66.625 22.615 70.0001 19.2399 70.0001 15.0765C70.0001 10.9132 66.625 7.53809 62.4617 7.53809C58.2983 7.53809 54.9232 10.9132 54.9232 15.0765C54.9232 19.2399 58.2983 22.615 62.4617 22.615ZM53.4305 18.5876C54.8398 18.9162 56.5721 19.7625 57.6032 21.8057C58.0973 22.7849 58.2904 23.676 58.2552 24.5002C58.2202 25.3212 57.9615 26.0016 57.6662 26.5606C57.476 26.9206 57.2297 27.2945 57.0373 27.5867L57.0372 27.587L57.0371 27.5871L57.0371 27.5871C56.9583 27.7068 56.8885 27.8127 56.8353 27.8984C56.6016 28.2749 56.5653 28.4284 56.5653 28.4965C56.5653 29.136 56.8316 31.0273 57.194 33.0646C57.554 35.0885 57.9721 37.053 58.2308 37.8218C58.268 37.9323 58.3923 38.1932 58.6364 38.6224C58.868 39.0295 59.174 39.5309 59.5322 40.0962C60.248 41.2257 61.1532 42.5801 62.0455 43.8885C62.9368 45.1955 63.8108 46.4503 64.4623 47.3788C64.788 47.8429 65.0578 48.2252 65.2462 48.4913C65.2811 48.5407 65.3132 48.586 65.3424 48.6272C65.3918 48.6969 65.4327 48.7545 65.4642 48.7989L65.5214 48.8793L65.5359 48.8998L65.5395 48.9049L65.5404 48.9061L65.5406 48.9064L64.7262 49.4867C65.6309 49.0605 65.631 49.0607 65.631 49.0609L65.6312 49.0613L65.6318 49.0624L65.6333 49.0657L65.6382 49.0761L65.6548 49.1123C65.6633 49.1308 65.6738 49.154 65.6861 49.1816L65.7128 49.2416C65.7613 49.3516 65.8282 49.5076 65.9045 49.6971C66.0558 50.0733 66.2487 50.5934 66.4049 51.1518C66.558 51.6986 66.6924 52.3392 66.6924 52.9395C66.6924 53.5005 66.5729 54.3 65.9135 54.8139C65.254 55.3278 64.4654 55.2482 63.9251 55.1001C63.3586 54.9448 62.7977 54.6459 62.3352 54.3567C61.8619 54.0607 61.4354 53.739 61.131 53.4952C61.034 53.4175 60.9482 53.3468 60.876 53.2862L60.8732 53.3187C60.7961 54.1591 60.402 55.0142 59.4446 55.4885C58.5177 55.9477 57.5802 55.794 56.8187 55.451C56.072 55.1148 55.4005 54.5605 54.8615 54.0263C54.3135 53.4834 53.8513 52.9097 53.5292 52.4779C53.367 52.2605 53.2376 52.0754 53.1478 51.9431C53.1211 51.9039 53.0979 51.8692 53.0783 51.8396L53.0431 51.7861L53.0142 51.7415L53.011 51.7365L49.32 46.2508L44.4015 54.5356L44.3166 54.6785L44.1902 54.7862L43.5416 54.0251C44.1902 54.7862 44.1899 54.7865 44.1896 54.7868L44.1889 54.7874L44.1873 54.7887L44.1838 54.7917L44.1745 54.7994L44.1478 54.8212C44.1263 54.8385 44.0976 54.8611 44.062 54.888C43.9909 54.9417 43.8918 55.013 43.7678 55.0931C43.5219 55.2521 43.1683 55.4523 42.7353 55.6161C41.8702 55.9434 40.6118 56.1489 39.2989 55.4847C38.3964 55.0282 37.6845 54.5334 37.2663 53.7471C36.8678 52.9978 36.8215 52.1287 36.816 51.1944C36.8112 50.3714 37.0865 49.4864 37.4267 48.688C37.7749 47.8707 38.2325 47.0503 38.6776 46.3302C38.9506 45.8886 39.223 45.4781 39.4697 45.1209L34.8081 44.4104V47.7375C34.8091 47.7491 34.8103 47.7623 34.8115 47.777C34.8123 47.7869 34.8132 47.7975 34.814 47.8088C34.82 47.8846 34.8272 47.9912 34.8329 48.1214C34.8443 48.3804 34.8503 48.7399 34.8276 49.1401C34.7858 49.8762 34.6377 50.9986 34.0309 51.7948C33.5665 52.4041 32.7934 52.7721 32.1169 53.0121C31.3976 53.2672 30.582 53.446 29.8368 53.5722C29.0859 53.6994 28.3758 53.7784 27.8555 53.8255C27.5945 53.8492 27.3794 53.865 27.2284 53.875C27.1529 53.88 27.0932 53.8835 27.0518 53.8859L27.0036 53.8884L26.9903 53.8891L26.9864 53.8893L26.9851 53.8894L26.9847 53.8894C26.9845 53.8894 26.9844 53.8894 26.9374 52.8905L26.9844 53.8894L26.9727 53.89L26.9727 53.8899L10.9411 54.4572L10.8012 54.4621L10.6653 54.4285L10.9057 53.4578C10.6653 54.4285 10.6647 54.4283 10.6642 54.4282L10.663 54.4279L10.6604 54.4273L10.6547 54.4258L10.6406 54.4221L10.6249 54.4178L10.6024 54.4114C10.5726 54.4028 10.5343 54.3911 10.4887 54.3758C10.3976 54.3452 10.2762 54.2997 10.1344 54.2354C9.8526 54.1074 9.47972 53.8995 9.10557 53.5752C8.33097 52.9036 7.61551 51.784 7.61551 50.054C7.61551 48.324 8.33097 47.2044 9.10557 46.5328C9.47972 46.2085 9.8526 46.0006 10.1344 45.8726C10.2762 45.8083 10.3976 45.7628 10.4887 45.7322C10.5343 45.7169 10.5726 45.7052 10.6024 45.6966C10.6173 45.6923 10.6301 45.6887 10.6406 45.6859L10.6547 45.6822L10.6604 45.6807L10.663 45.6801L10.6642 45.6798C10.6647 45.6797 10.6653 45.6795 10.9057 46.6502L10.6653 45.6795L10.7478 45.6591L10.8325 45.6529L25.2553 44.5943C25.2382 44.4365 25.2198 44.2635 25.2003 44.0774C25.1013 43.1325 24.9752 41.8474 24.867 40.4893C24.759 39.1335 24.6679 37.6937 24.6404 36.443C24.6139 35.2359 24.6415 34.0756 24.8227 33.3576C25.1751 31.9607 26.3293 30.2441 28.0944 28.4953C29.8876 26.7185 32.4004 24.82 35.6229 23.0784C38.882 21.317 42.6992 20.158 45.6685 19.4405C47.1596 19.0801 48.4508 18.8278 49.3706 18.6654C49.8308 18.5841 50.1986 18.5253 50.4528 18.4865C50.5799 18.4671 50.6787 18.4528 50.7464 18.4432L50.8244 18.4323L50.8453 18.4295L50.8456 18.4294L50.8466 18.4293L50.8489 18.429L50.8512 18.4287L50.8529 18.4284L50.8535 18.4284L50.8546 18.4282L50.8704 18.4261C50.8829 18.4246 50.8993 18.4226 50.9193 18.4203C50.9594 18.4159 51.0142 18.4104 51.0822 18.405C51.218 18.3944 51.4075 18.3842 51.6379 18.3842C52.0962 18.3842 52.73 18.4243 53.4305 18.5876ZM64.7262 49.4867L65.5407 48.9065L65.5927 48.9795L65.6309 49.0605L64.7262 49.4867ZM51.1158 20.4111L51.1154 20.4111L51.1119 20.4116L51.0956 20.4138L51.0273 20.4234C50.9661 20.432 50.8742 20.4454 50.7542 20.4637C50.5141 20.5003 50.1618 20.5566 49.7184 20.6349C48.8311 20.7916 47.5815 21.0357 46.1383 21.3845C43.2388 22.0852 39.6127 23.1955 36.5738 24.8379C33.4981 26.5001 31.1441 28.289 29.502 29.916C27.8317 31.571 26.982 32.9745 26.7619 33.8469C26.6568 34.2635 26.6127 35.1597 26.6399 36.3991C26.6662 37.5948 26.754 38.9916 26.8607 40.3304C26.9672 41.667 27.0916 42.9348 27.1894 43.8691C27.2383 44.336 27.2805 44.7189 27.3105 44.9849L27.3322 45.1763L27.3455 45.2916L27.3547 45.3713L27.3571 45.3914L27.3577 45.3963L27.3578 45.3974L27.3578 45.3976L27.4812 46.4363L26.438 46.5129L11.0945 47.639C11.0606 47.6513 11.0152 47.6692 10.9614 47.6937C10.8138 47.7607 10.6141 47.872 10.4157 48.044C10.0452 48.3652 9.61551 48.9475 9.61551 50.054C9.61551 51.1605 10.0452 51.7428 10.4157 52.064C10.6141 52.236 10.8138 52.3473 10.9614 52.4143C10.9943 52.4293 11.0241 52.4418 11.05 52.4521L26.892 51.8915L26.8949 51.8914L26.901 51.8911L26.94 51.889C26.9751 51.887 27.028 51.8839 27.0965 51.8794C27.2335 51.8703 27.4322 51.8557 27.6749 51.8337C28.1619 51.7895 28.818 51.7163 29.5027 51.6003C30.1932 51.4833 30.8826 51.3278 31.4484 51.1271C32.057 50.9113 32.349 50.7021 32.4402 50.5824C32.653 50.3032 32.7912 49.7237 32.8308 49.0267C32.8487 48.7105 32.8442 48.4206 32.8349 48.2094C32.8302 48.1045 32.8245 48.0208 32.8202 47.9651C32.819 47.9504 32.818 47.9377 32.817 47.9271C32.8162 47.9176 32.8155 47.9098 32.815 47.9038L32.8137 47.8907L32.8137 47.8903L32.8136 47.89L32.8136 47.8897L32.8136 47.8892L32.8135 47.8889L32.8081 47.8377V47.7848V43.2464V42.0824L33.9588 42.2578L41.402 43.3924L43.1099 43.6527L42.0337 45.0038L42.0336 45.0039L42.0336 45.004L42.0335 45.004L42.0324 45.0055L42.0264 45.013L42.0005 45.046C41.9772 45.0758 41.9423 45.1208 41.8973 45.1795C41.8074 45.2971 41.6777 45.4693 41.5215 45.6843C41.2083 46.1151 40.7925 46.7126 40.3789 47.3818C39.9634 48.0539 39.5612 48.7806 39.2667 49.4719C38.9641 50.1822 38.8136 50.7674 38.816 51.1828C38.8216 52.1413 38.8916 52.5438 39.0321 52.808C39.153 53.0353 39.4027 53.2959 40.2017 53.7001C40.8501 54.0281 41.4874 53.9499 42.0276 53.7455C42.2972 53.6435 42.5237 53.5159 42.6822 53.4134C42.7198 53.3891 42.753 53.3666 42.7814 53.3467L48.4073 43.8705L49.2143 42.5111L50.0968 43.8227L54.6773 50.6304L54.6855 50.6426L54.6929 50.6543L54.6931 50.6545L54.6932 50.6547L54.6934 50.6551L54.6935 50.6552L54.6976 50.6616L54.7176 50.6925C54.7361 50.7208 54.7646 50.764 54.8024 50.8197C54.8781 50.9312 54.9903 51.0918 55.1323 51.2821C55.4185 51.6658 55.8152 52.1558 56.2691 52.6056C56.7321 53.0643 57.2057 53.4319 57.64 53.6274C58.0593 53.8163 58.3385 53.8045 58.5567 53.6964C58.7445 53.6033 58.8513 53.4656 58.8816 53.136C58.9165 52.7552 58.8232 52.2371 58.6254 51.6493C58.4336 51.0791 58.1728 50.5275 57.9542 50.111C57.846 49.9048 57.7506 49.7365 57.6832 49.6211C57.6496 49.5635 57.6231 49.5194 57.6056 49.4907L57.6023 49.4853L57.5709 49.4439C57.5314 49.3914 57.4738 49.3146 57.4003 49.2159C57.2535 49.0184 57.0433 48.7328 56.788 48.3781C56.2776 47.6693 55.5851 46.6816 54.8566 45.5668C53.4247 43.3755 51.7661 40.5625 51.1666 38.4088C50.7559 36.9333 50.5372 36.1664 50.4258 35.7881C50.3843 35.7129 50.3519 35.6311 50.3303 35.5438L50.3506 35.5387L50.3506 35.5387C50.3303 35.5437 50.3303 35.5437 50.3303 35.5437L50.3303 35.5435L50.3302 35.5432L50.3299 35.5421L50.3291 35.5387L50.3263 35.5272L50.3172 35.4894C50.3105 35.4613 50.3004 35.418 50.2921 35.3779C50.2884 35.3605 50.2818 35.328 50.2764 35.2927C50.2743 35.2796 50.2678 35.2371 50.2649 35.1842C50.2638 35.1634 50.2603 35.0961 50.2702 35.0111C50.2749 34.9709 50.2874 34.8813 50.3275 34.7745C50.3593 34.6899 50.4671 34.4329 50.7601 34.262C51.1228 34.0504 51.4865 34.1236 51.6956 34.2235C51.8706 34.3072 51.9754 34.4204 52.0115 34.4609C52.0912 34.5503 52.1363 34.6346 52.1471 34.6548L52.1478 34.6561C52.1776 34.7117 52.1966 34.76 52.202 34.7738L52.2022 34.7744C52.2173 34.8129 52.2306 34.8523 52.24 34.881C52.3141 35.1071 52.5286 35.8438 53.0933 37.8725C53.5996 39.6914 55.0901 42.2679 56.5308 44.4728C57.2386 45.556 57.9133 46.5181 58.4111 47.2096C58.6598 47.5551 58.8639 47.8323 59.0053 48.0225C59.076 48.1176 59.131 48.1909 59.1681 48.2401L59.2094 48.2947L59.21 48.2955L62.0091 51.6235C62.025 51.6374 62.0447 51.6546 62.0679 51.6745C62.141 51.7373 62.2483 51.8277 62.3812 51.9341C62.6493 52.1488 63.0101 52.4199 63.3956 52.6609C63.792 52.9088 64.1615 53.0911 64.4539 53.1713C64.5549 53.199 64.6237 53.2088 64.6679 53.2115C64.6797 53.1614 64.6924 53.076 64.6924 52.9395C64.6924 52.6051 64.6122 52.1669 64.4789 51.6907C64.3489 51.2261 64.1839 50.7789 64.049 50.4436C63.9821 50.2773 63.9238 50.1415 63.8828 50.0486L63.8562 49.9888L63.8336 49.957C63.7829 49.8855 63.7085 49.7807 63.6136 49.6467C63.424 49.3787 63.1526 48.9942 62.8252 48.5276C62.1705 47.5946 61.2911 46.3321 60.3931 45.0153C59.4962 43.6999 58.5764 42.3242 57.8429 41.1668C57.4765 40.5886 57.1518 40.0574 56.898 39.6113C56.6568 39.1873 56.4411 38.7745 56.3352 38.4595C56.0213 37.5264 55.5806 35.4147 55.2249 33.4149C54.8716 31.4285 54.5653 29.3486 54.5653 28.4965C54.5653 27.8189 54.8869 27.2449 55.1362 26.8434C55.2467 26.6655 55.3474 26.5134 55.4423 26.3702L55.4425 26.3698L55.4426 26.3697L55.4427 26.3696L55.4427 26.3696C55.6055 26.1239 55.7508 25.9045 55.8978 25.6263C56.1034 25.2371 56.2385 24.8499 56.2571 24.4148C56.2755 23.9828 56.1823 23.4294 55.8177 22.7067C55.1311 21.3461 54.0006 20.7742 52.9765 20.5354C52.4603 20.4151 51.9848 20.3842 51.6379 20.3842C51.4657 20.3842 51.3287 20.3918 51.2386 20.3989C51.1937 20.4024 51.1607 20.4058 51.1412 20.408L51.1242 20.4099L51.1234 20.41L51.1224 20.4102L51.1222 20.4102L51.1209 20.4104L51.1158 20.4111ZM60.8839 52.7723L60.8839 52.7723L61.2909 52.3232L60.8839 52.7723ZM50.3542 35.5378L50.3542 35.5379L51.3012 35.3042L50.3542 35.5378ZM64.7337 53.2089L64.7333 53.2091L64.7294 53.21C64.7322 53.209 64.7338 53.2087 64.7339 53.2088C64.7339 53.2088 64.7339 53.2089 64.7337 53.2089ZM52.2721 35.0645L52.272 35.0644L52.2716 35.0627L52.2698 35.0551L52.2632 35.0279C52.2596 35.0125 52.2562 34.9979 52.2535 34.9861C52.2521 34.9795 52.2508 34.9738 52.2499 34.9692C52.2491 34.9654 52.249 34.9649 52.2494 34.9668C52.2497 34.9686 52.2504 34.9723 52.2513 34.9776C52.2518 34.9805 52.2524 34.9839 52.253 34.9877L52.253 34.9881C52.2539 34.994 52.2588 35.025 52.2615 35.0672L52.2721 35.0645ZM11.1578 52.4901C11.1596 52.4906 11.1595 52.4906 11.1577 52.4901L11.1578 52.4901ZM48.6034 29.7699L49.791 29.6611L49.6911 30.8495L49.1185 37.6572L49.033 38.6738L48.0183 38.568L37.1397 37.4334L35.2045 37.2315L36.4951 35.7755L37.2434 36.4388C36.4951 35.7755 36.4952 35.7753 36.4953 35.7752L36.4956 35.7748L36.4964 35.7739L36.4986 35.7715L36.5055 35.7638L36.5292 35.7376C36.5493 35.7154 36.5781 35.6839 36.6151 35.6441C36.6891 35.5645 36.7962 35.4514 36.9329 35.3123C37.206 35.0345 37.5993 34.6512 38.0855 34.2229C39.0504 33.3732 40.4156 32.3163 41.9604 31.5677C43.4953 30.824 45.1586 30.3778 46.4162 30.1173C47.0496 29.9861 47.5904 29.8998 47.9749 29.8462C48.1674 29.8193 48.3212 29.8006 48.4284 29.7884C48.4624 29.7845 48.4918 29.7813 48.5162 29.7787C48.5303 29.7772 48.5428 29.7759 48.5536 29.7748L48.5883 29.7713L48.5983 29.7704L48.6015 29.7701L48.6026 29.77L48.603 29.7699C48.6032 29.7699 48.6034 29.7699 48.6946 30.7657L48.6034 29.7699ZM47.5932 31.9296C47.3604 31.9696 47.101 32.0179 46.822 32.0757C45.6462 32.3193 44.1605 32.7241 42.8325 33.3676C41.5467 33.9906 40.3623 34.8898 39.4734 35.6659L47.2111 36.4729L47.5932 31.9296ZM8.11521 45.5214L7.30376 44.937L7.30205 44.9394L7.30095 44.9409L7.29443 44.95L7.29165 44.9539L-0.40645 55.7086L-0.972656 56.4996H0.000127614H8.61551H10.1617L8.90861 55.5945L8.90857 55.5945L8.90846 55.5944L8.90828 55.5943L8.90794 55.594L8.90359 55.5909L8.8834 55.5759C8.86497 55.5621 8.83688 55.5407 8.8004 55.5123C8.72741 55.4553 8.62108 55.37 8.49169 55.2592C8.23236 55.0372 7.88324 54.7157 7.52502 54.3186C6.79691 53.5114 6.08464 52.4509 5.93723 51.3196C5.79105 50.1978 6.29326 48.7776 6.89701 47.5693C7.19184 46.9792 7.49754 46.4654 7.72973 46.099C7.84564 45.9161 7.94275 45.7707 8.01036 45.6717C8.04416 45.6222 8.07055 45.5844 8.0882 45.5594L8.10517 45.5354L8.11254 45.5251L8.11349 45.5238L8.11361 45.5236L8.11521 45.5214ZM0.972911 55.4996L5.02087 49.8444C4.91618 50.387 4.87823 50.9317 4.94562 51.4488C5.13232 52.8817 6.0071 54.1288 6.7825 54.9884C6.95077 55.1749 7.11689 55.346 7.2741 55.4996H0.972911Z" fill="white"/>
</g>
<defs>
<clipPath id="clip0">
<rect width="70" height="70" fill="white"/>
</clipPath>
</defs>
</svg>
