<svg width="64" height="70" viewBox="0 0 64 70" fill="none" xmlns="http://www.w3.org/2000/svg">
<path fill-rule="evenodd" clip-rule="evenodd" d="M15.7979 31.114H14.9605C10.1993 31.114 7 27.9613 7 23.2603C7 18.7222 9.98499 15.6359 14.4735 15.4258C17.7496 9.07307 24.4254 5 31.6531 5C38.8866 5 45.5677 9.08014 48.8405 15.4428C52.9741 15.8148 56 19.0472 56 23.2603C56 27.4825 52.9598 30.7186 48.8115 31.0781C47.4609 33.7517 45.5145 36.1388 43.1404 38L42.0985 36.7054C44.2163 35.0448 45.9647 32.9298 47.2016 30.5609V15.9331C44.1655 10.2729 38.1575 6.65353 31.6531 6.65353C24.9246 6.65353 18.7232 10.5225 15.7979 16.5204V31.114ZM48.8765 29.3575C52.0357 28.9772 54.3251 26.4578 54.3251 23.2012C54.3251 19.944 52.0357 17.4239 48.8765 17.0436V29.3575ZM14.1231 29.3664V17.0347C10.7852 17.3676 8.67486 19.7137 8.67486 23.2012C8.67486 26.6879 10.7852 29.0335 14.1231 29.3664ZM31.9994 11C24.8316 11 19 16.8317 19 24C19 31.1683 24.8316 37 31.9994 37C39.1679 37 45 31.1683 45 24C45 16.8317 39.1679 11 31.9994 11ZM31.9994 35.3114C25.7625 35.3114 20.6886 30.2372 20.6886 24C20.6886 17.7628 25.7625 12.6886 31.9994 12.6886C38.2367 12.6886 43.3114 17.7628 43.3114 24C43.3114 30.2372 38.2367 35.3114 31.9994 35.3114ZM31.9992 41C18.7081 41 9 50.7352 9 64.1482V65H55V64.1482C55 50.7352 45.2911 41 31.9992 41ZM10.7449 63.2964C11.1439 51.3127 19.951 42.7036 31.981 42.7036C44.0115 42.7036 52.8194 51.3127 53.2184 63.2964H10.7449Z" fill="white"/>
</svg>
