<svg width="70" height="70" viewBox="0 0 70 70" fill="none" xmlns="http://www.w3.org/2000/svg">
<path fill-rule="evenodd" clip-rule="evenodd" d="M15 8C13.3431 8 12 9.34315 12 11V23.5V38.5V52.5V60C12 61.6569 13.3431 63 15 63H55.5C57.1569 63 58.5 61.6569 58.5 60V52.5V38.5V23.5V11C58.5 9.34315 57.1569 8 55.5 8H15ZM14 11C14 10.4477 14.4477 10 15 10H55.5C56.0523 10 56.5 10.4477 56.5 11V22.5H14V11ZM14 24.5H56.5V37.5H14V24.5ZM14 39.5H56.5V51.5H14V39.5ZM14 53.5H56.5V60C56.5 60.5523 56.0523 61 55.5 61H15C14.4477 61 14 60.5523 14 60V53.5ZM21 15.5C20.4477 15.5 20 15.9477 20 16.5C20 17.0523 20.4477 17.5 21 17.5H38.5C39.0523 17.5 39.5 17.0523 39.5 16.5C39.5 15.9477 39.0523 15.5 38.5 15.5H21ZM21 29.5C20.4477 29.5 20 29.9477 20 30.5C20 31.0523 20.4477 31.5 21 31.5H38.5C39.0523 31.5 39.5 31.0523 39.5 30.5C39.5 29.9477 39.0523 29.5 38.5 29.5H21ZM21 44.5C20.4477 44.5 20 44.9477 20 45.5C20 46.0523 20.4477 46.5 21 46.5H38.5C39.0523 46.5 39.5 46.0523 39.5 45.5C39.5 44.9477 39.0523 44.5 38.5 44.5H21ZM49.5 15.5C49.5 16.8807 48.3807 18 47 18C45.6193 18 44.5 16.8807 44.5 15.5C44.5 14.1193 45.6193 13 47 13C48.3807 13 49.5 14.1193 49.5 15.5ZM51.5 15.5C51.5 17.9853 49.4853 20 47 20C44.5147 20 42.5 17.9853 42.5 15.5C42.5 13.0147 44.5147 11 47 11C49.4853 11 51.5 13.0147 51.5 15.5ZM47 33C48.3807 33 49.5 31.8807 49.5 30.5C49.5 29.1193 48.3807 28 47 28C45.6193 28 44.5 29.1193 44.5 30.5C44.5 31.8807 45.6193 33 47 33ZM47 35C49.4853 35 51.5 32.9853 51.5 30.5C51.5 28.0147 49.4853 26 47 26C44.5147 26 42.5 28.0147 42.5 30.5C42.5 32.9853 44.5147 35 47 35ZM49.5 45.5C49.5 46.8807 48.3807 48 47 48C45.6193 48 44.5 46.8807 44.5 45.5C44.5 44.1193 45.6193 43 47 43C48.3807 43 49.5 44.1193 49.5 45.5ZM51.5 45.5C51.5 47.9853 49.4853 50 47 50C44.5147 50 42.5 47.9853 42.5 45.5C42.5 43.0147 44.5147 41 47 41C49.4853 41 51.5 43.0147 51.5 45.5Z" fill="white"/>
</svg>
