<svg width="150" height="192" viewBox="0 0 150 192" fill="none" xmlns="http://www.w3.org/2000/svg">
<path fill-rule="evenodd" clip-rule="evenodd" d="M56.633 33.7639C63.8069 23.4042 71.3861 15.8685 74.3727 13.0562C80.1786 18.437 102.628 41.0273 106.877 71.6305C108.015 79.8248 107.8 87.5456 106.797 94.573C105.84 101.289 104.164 107.365 102.27 112.605H47.6903L42.4962 94.4035C41.2078 87.1922 40.6323 79.4406 41.3509 71.5365C42.6278 57.4897 49.3649 44.2596 56.633 33.7639ZM49.2922 116.605H100.722C97.3426 124.788 93.7116 130.368 92.3311 132.355H56.8278L56 131.306L49.2922 116.605ZM55.0852 136.273C55.4032 136.385 55.799 136.436 56.2061 136.355H92.8618C93.7928 136.355 94.7028 135.921 95.2757 135.121C95.8421 134.33 97.1267 132.466 98.7402 129.68L116.237 141.345C118.62 142.934 121.852 141.576 122.386 138.762L127.132 113.733C127.372 112.471 126.99 111.17 126.106 110.237L110.889 94.1764C111.823 87.0796 111.982 79.3116 110.839 71.0803C106.365 38.8601 82.7822 15.3779 76.9972 10.035C75.5093 8.66082 73.2279 8.64434 71.731 10.0495C68.6968 12.898 60.8141 20.7 53.3445 31.4867C45.8907 42.2505 38.7331 56.1507 37.3673 71.1743C36.6406 79.1677 37.1737 86.9672 38.4016 94.2055L23.1052 110.247C22.2314 111.163 21.8431 112.439 22.0582 113.687L26.3863 138.79C26.8666 141.575 30.0063 142.997 32.4171 141.521L50.8876 130.21C51.5316 131.5 52.0604 132.497 52.4978 133.266L52.561 133.405L52.62 133.48C53.0308 134.191 53.3563 134.692 53.6188 135.046C53.7959 135.285 53.9789 135.505 54.1729 135.692C54.3425 135.855 54.6483 136.119 55.0852 136.273ZM118.456 138.017L100.675 126.163C104.006 119.788 107.96 110.468 110.093 99.1517L123.202 112.988L118.456 138.017ZM26 113.007L39.3441 99.0132C40.6367 104.806 42.4233 110.337 44.2813 115.236L44.2992 115.299L44.3346 115.376C45.9788 119.697 47.6757 123.522 49.1333 126.594L30.3281 138.11L26 113.007ZM62.3581 146.355C62.3581 145.251 61.4627 144.355 60.3581 144.355C59.2536 144.355 58.3581 145.251 58.3581 146.355V170.855C58.3581 171.96 59.2536 172.855 60.3581 172.855C61.4627 172.855 62.3581 171.96 62.3581 170.855V146.355ZM76.3581 146.355C76.3581 145.251 75.4627 144.355 74.3581 144.355C73.2536 144.355 72.3581 145.251 72.3581 146.355V181.355C72.3581 182.46 73.2536 183.355 74.3581 183.355C75.4627 183.355 76.3581 182.46 76.3581 181.355V146.355ZM90.3581 146.355C90.3581 145.251 89.4627 144.355 88.3581 144.355C87.2536 144.355 86.3581 145.251 86.3581 146.355V170.855C86.3581 171.96 87.2536 172.855 88.3581 172.855C89.4627 172.855 90.3581 171.96 90.3581 170.855V146.355ZM89.3581 63.3554C89.3581 71.3635 82.8663 77.8554 74.8581 77.8554C66.85 77.8554 60.3581 71.3635 60.3581 63.3554C60.3581 55.3473 66.85 48.8554 74.8581 48.8554C82.8663 48.8554 89.3581 55.3473 89.3581 63.3554ZM93.3581 63.3554C93.3581 73.5727 85.0754 81.8554 74.8581 81.8554C64.6409 81.8554 56.3581 73.5727 56.3581 63.3554C56.3581 53.1381 64.6409 44.8554 74.8581 44.8554C85.0754 44.8554 93.3581 53.1381 93.3581 63.3554Z" fill="#00C3FF"/>
</svg>
