<svg width="61" height="62" viewBox="0 0 61 62" fill="none" xmlns="http://www.w3.org/2000/svg">
<path fill-rule="evenodd" clip-rule="evenodd" d="M5 8C5 6.34315 6.34315 5 8 5H54C55.6569 5 57 6.34315 57 8V14.2609V54C57 55.6569 55.6569 57 54 57H8C6.34315 57 5 55.6569 5 54V14.2609V8ZM8 7C7.44772 7 7 7.44772 7 8V13.2609H55V8C55 7.44772 54.5523 7 54 7H8ZM55 15.2609H7V54C7 54.5523 7.44771 55 8 55H54C54.5523 55 55 54.5523 55 54V15.2609ZM17.2069 10.913H12.8966V8.91304H17.2069V10.913ZM24.1034 10.913H19.7931V8.91304H24.1034V10.913ZM11.8966 22.2174C11.8966 21.1128 12.792 20.2174 13.8966 20.2174H47.6724C48.777 20.2174 49.6724 21.1128 49.6724 22.2174V25.8696C49.6724 26.9741 48.777 27.8696 47.6724 27.8696H13.8966C12.792 27.8696 11.8966 26.9741 11.8966 25.8696V22.2174ZM47.6724 22.2174H13.8966V25.8696H47.6724V22.2174ZM11.8966 34.8261C11.8966 33.7215 12.792 32.8261 13.8966 32.8261H23.9655C25.0701 32.8261 25.9655 33.7215 25.9655 34.8261V48.913C25.9655 50.0176 25.0701 50.913 23.9655 50.913H13.8966C12.792 50.913 11.8966 50.0176 11.8966 48.913V34.8261ZM23.9655 34.8261H13.8966V48.913H23.9655V34.8261ZM30.431 34.8261C30.431 33.7215 31.3265 32.8261 32.431 32.8261H47.6724C48.777 32.8261 49.6724 33.7215 49.6724 34.8261V48.913C49.6724 50.0176 48.777 50.913 47.6724 50.913H32.431C31.3265 50.913 30.431 50.0176 30.431 48.913V34.8261ZM47.6724 34.8261H32.431V48.913H47.6724V34.8261Z" fill="white"/>
</svg>
