<svg width="70" height="70" viewBox="0 0 70 70" fill="none" xmlns="http://www.w3.org/2000/svg">
<path fill-rule="evenodd" clip-rule="evenodd" d="M7 14C5.34314 14 4 15.3431 4 17V20.5423V53.4585C4 55.1153 5.34315 56.4585 7 56.4585H18.3014H62.3022C63.959 56.4585 65.3022 55.1153 65.3022 53.4585V20.5423V17C65.3022 15.3431 63.959 14 62.3022 14H7ZM6 17C6 16.4477 6.44772 16 7 16H62.3022C62.8545 16 63.3022 16.4477 63.3022 17V19.5423H18.3014H6V17ZM19.3014 21.5423H63.3022V53.4585C63.3022 54.0108 62.8545 54.4585 62.3022 54.4585H19.3014V21.5423ZM17.3014 21.5423V54.4585H7C6.44772 54.4585 6 54.0108 6 53.4585V21.5423H17.3014ZM14.4218 23.9761H7.2169V25.9761H7.32536V34.3979V35.3979H8.32536H14.4218H15.4218V34.3979V24.9761V23.9761H14.4218ZM9.32536 33.3979V25.9761H13.4218V33.3979H9.32536ZM26.0606 25.0845H25.0606V26.0845V33.8437V47.6993V48.6993H26.0606H55.4346H56.4346V47.6993V26.0845V25.0845H55.4346H26.0606ZM27.0606 32.022V27.0845H54.4346V45.2851L45.0571 35.9077L44.3072 35.1578L43.6026 35.9504L40.0296 39.9701L32.9891 29.4094L32.4461 28.5949L31.6202 29.1204L27.0606 32.022ZM44.3929 38.0718L53.0203 46.6993H27.0606V34.3926L31.868 31.3333L39.0842 42.1575L39.8029 43.2356L40.6636 42.2672L44.3929 38.0718ZM8.32536 38.9402H7.32536V39.9402V49.9162V50.9162H8.32536H14.4218H15.4218V49.9162V39.9402V38.9402H14.4218H8.32536ZM9.32536 48.9162V40.9402H13.4218V48.9162H9.32536ZM49.3404 34.398C51.1769 34.398 52.6657 32.9092 52.6657 31.0726C52.6657 29.2361 51.1769 27.7473 49.3404 27.7473C47.5038 27.7473 46.015 29.2361 46.015 31.0726C46.015 32.9092 47.5038 34.398 49.3404 34.398Z" fill="white"/>
</svg>
