<svg width="70" height="70" viewBox="0 0 70 70" fill="none" xmlns="http://www.w3.org/2000/svg">
<path fill-rule="evenodd" clip-rule="evenodd" d="M5 13C5 11.3431 6.34315 10 8 10H55.5C57.1569 10 58.5 11.3431 58.5 13V36H62V47.9225L66.9316 51.0372L61.6424 54.0994L64.3503 58.4736L62.6497 59.5264L59.9108 55.1019L54.5 58.2344V51H45.5V47.5H32.5V52.75H47.5V60H15.5V52.75H30.5V47.5H8C6.34315 47.5 5 46.1569 5 44.5V13ZM45.5 45.5V42.5H40.5V40.5H45.5V36H56.5V17H7V44.5C7 45.0523 7.44771 45.5 8 45.5H45.5ZM7 15H56.5V13C56.5 12.4477 56.0523 12 55.5 12H8C7.44772 12 7 12.4477 7 13V15ZM54.5 49V43.1857L60 46.6594V38H47.5V49H54.5ZM56.5 46.8143V54.7656L63.0684 50.9628L56.5 46.8143ZM9.5 20H22V42.5H9.5V20ZM11.5 22V40.5H20V22H11.5ZM45.5 22H26V20H45.5V22ZM52 26.5H26V24.5H52V26.5ZM26 30H29V32H28V35H26V30ZM37.5 32H32.5V30H37.5V32ZM45.5 32H40.5V30H45.5V32ZM51 32H49V30H53V35H51V32ZM26 38H28V40.5H29V42.5H26V38ZM37.5 42.5H32.5V40.5H37.5V42.5ZM17.5 54.75V58H45.5V54.75H17.5Z" fill="white"/>
</svg>
