<svg width="66" height="65" viewBox="0 0 66 65" fill="none" xmlns="http://www.w3.org/2000/svg">
<path fill-rule="evenodd" clip-rule="evenodd" d="M2 6C2 4.34315 3.34315 3 5 3H62C63.6569 3 65 4.34315 65 6V13.4174V59C65 60.6569 63.6569 62 62 62H5C3.34315 62 2 60.6569 2 59V13.4174V6ZM5 5C4.44772 5 4 5.44772 4 6V12.4174H63V6C63 5.44772 62.5523 5 62 5H5ZM63 14.4174H4V59C4 59.5523 4.44771 60 5 60H62C62.5523 60 63 59.5523 63 59V14.4174ZM16.6724 9.46087H11.4138V7.46087H16.6724V9.46087ZM25.0862 9.46087H19.8276V7.46087H25.0862V9.46087ZM10.4138 22.3478C10.4138 21.2433 11.3092 20.3478 12.4138 20.3478H54.0603C55.1649 20.3478 56.0603 21.2433 56.0603 22.3478V26.7913C56.0603 27.8959 55.1649 28.7913 54.0603 28.7913H12.4138C11.3092 28.7913 10.4138 27.8959 10.4138 26.7913V22.3478ZM54.0603 22.3478H12.4138V26.7913L54.0603 26.7913V22.3478ZM10.4138 36.7217C10.4138 35.6172 11.3092 34.7217 12.4138 34.7217H25.1379C26.2425 34.7217 27.1379 35.6172 27.1379 36.7217V53.0609C27.1379 54.1654 26.2425 55.0609 25.1379 55.0609H12.4138C11.3092 55.0609 10.4138 54.1654 10.4138 53.0609V36.7217ZM25.1379 36.7217H12.4138V53.0609H25.1379V36.7217ZM33.0259 36.7217C33.0259 35.6172 33.9213 34.7217 35.0259 34.7217H54.0603C55.1649 34.7217 56.0603 35.6172 56.0603 36.7217V53.0609C56.0603 54.1654 55.1649 55.0609 54.0603 55.0609H35.0259C33.9213 55.0609 33.0259 54.1654 33.0259 53.0609V36.7217ZM54.0603 36.7217H35.0259V53.0609H54.0603V36.7217Z" fill="white"/>
</svg>
