<svg width="39" height="24" viewBox="0 0 39 24" fill="none" xmlns="http://www.w3.org/2000/svg">
<path d="M11.1232 8.97755C11.1232 9.44586 11.1738 9.82556 11.2625 10.104C11.3638 10.3825 11.4905 10.6862 11.6678 11.0153C11.7311 11.1166 11.7565 11.2178 11.7565 11.3064C11.7565 11.433 11.6805 11.5595 11.5158 11.6861L10.7179 12.2177C10.6039 12.2936 10.4899 12.3316 10.3886 12.3316C10.2619 12.3316 10.1352 12.2683 10.0086 12.1544C9.83127 11.9646 9.67928 11.7621 9.55262 11.5595C9.42596 11.3444 9.2993 11.1039 9.15998 10.8128C8.17205 11.9772 6.9308 12.5594 5.43624 12.5594C4.37232 12.5594 3.52371 12.2557 2.90309 11.6481C2.28246 11.0406 1.96582 10.2306 1.96582 9.21803C1.96582 8.1422 2.34579 7.26888 3.11841 6.61073C3.89102 5.95257 4.91695 5.6235 6.22152 5.6235C6.65216 5.6235 7.09546 5.66147 7.56409 5.72475C8.03273 5.78803 8.51403 5.88929 9.02066 6.0032V5.07925C9.02066 4.11733 8.818 3.44652 8.42537 3.05416C8.02006 2.6618 7.33611 2.47195 6.36084 2.47195C5.91754 2.47195 5.46157 2.52257 4.99294 2.63648C4.52431 2.7504 4.06834 2.88962 3.62504 3.06682C3.42238 3.15541 3.2704 3.20604 3.18173 3.23135C3.09307 3.25667 3.02975 3.26933 2.97908 3.26933C2.80176 3.26933 2.7131 3.14276 2.7131 2.87696V2.25678C2.7131 2.05427 2.73843 1.90239 2.80176 1.81379C2.86509 1.72519 2.97908 1.63659 3.1564 1.548C3.59971 1.32017 4.13167 1.13032 4.75229 0.97844C5.37291 0.813901 6.03153 0.73796 6.72815 0.73796C8.23538 0.73796 9.3373 1.07969 10.0466 1.76316C10.7432 2.44663 11.0978 3.48449 11.0978 4.87674V8.97755H11.1232ZM5.98087 10.9014C6.39884 10.9014 6.82948 10.8255 7.28545 10.6736C7.74141 10.5217 8.14672 10.2432 8.48869 9.86353C8.69135 9.62305 8.84334 9.35726 8.91933 9.05349C8.99533 8.74973 9.04599 8.38268 9.04599 7.95235V7.42076C8.67868 7.33217 8.28604 7.25623 7.88074 7.2056C7.47543 7.15497 7.08279 7.12966 6.69016 7.12966C5.84155 7.12966 5.22092 7.2942 4.80295 7.63593C4.38498 7.97766 4.18233 8.45862 4.18233 9.09147C4.18233 9.68634 4.33432 10.1293 4.65096 10.4331C4.95494 10.7495 5.39825 10.9014 5.98087 10.9014ZM16.1515 12.2683C15.9235 12.2683 15.7715 12.2304 15.6702 12.1418C15.5689 12.0658 15.4802 11.8886 15.4042 11.6481L12.4278 1.86442C12.3518 1.61128 12.3138 1.44674 12.3138 1.35814C12.3138 1.15564 12.4151 1.04172 12.6177 1.04172H13.859C14.0996 1.04172 14.2643 1.07969 14.3529 1.16829C14.4543 1.24423 14.5303 1.42143 14.6063 1.66191L16.7341 10.0407L18.71 1.66191C18.7733 1.40877 18.8493 1.24423 18.9506 1.16829C19.052 1.09235 19.2293 1.04172 19.4573 1.04172H20.4705C20.7112 1.04172 20.8758 1.07969 20.9771 1.16829C21.0785 1.24423 21.1671 1.42143 21.2178 1.66191L23.219 10.142L25.4102 1.66191C25.4862 1.40877 25.5748 1.24423 25.6635 1.16829C25.7648 1.09235 25.9295 1.04172 26.1575 1.04172H27.3354C27.538 1.04172 27.652 1.14298 27.652 1.35814C27.652 1.42143 27.6393 1.48471 27.6267 1.56065C27.614 1.63659 27.5887 1.73785 27.538 1.87707L24.4856 11.6608C24.4096 11.9139 24.3209 12.0785 24.2196 12.1544C24.1183 12.2304 23.9536 12.281 23.7383 12.281H22.649C22.4084 12.281 22.2437 12.243 22.1424 12.1544C22.0411 12.0658 21.9524 11.9013 21.9018 11.6481L19.9386 3.48449L17.988 11.6355C17.9247 11.8886 17.8487 12.0532 17.7474 12.1418C17.6461 12.2304 17.4687 12.2683 17.2407 12.2683H16.1515ZM32.427 12.6101C31.7684 12.6101 31.1098 12.5341 30.4765 12.3822C29.8432 12.2304 29.3492 12.0658 29.0199 11.876C28.8173 11.7621 28.6779 11.6355 28.6273 11.5216C28.5766 11.4077 28.5513 11.2811 28.5513 11.1672V10.5217C28.5513 10.2559 28.6526 10.1293 28.8426 10.1293C28.9186 10.1293 28.9946 10.142 29.0706 10.1673C29.1466 10.1926 29.2606 10.2432 29.3872 10.2939C29.8179 10.4837 30.2865 10.6356 30.7805 10.7369C31.2871 10.8381 31.7811 10.8887 32.2877 10.8887C33.0856 10.8887 33.7063 10.7495 34.1369 10.4711C34.5675 10.1926 34.7955 9.78759 34.7955 9.26866C34.7955 8.91427 34.6815 8.62316 34.4535 8.38268C34.2256 8.1422 33.7949 7.92704 33.1743 7.72453L31.3378 7.15497C30.4132 6.86386 29.7292 6.43353 29.3112 5.86397C28.8933 5.30707 28.6779 4.68689 28.6779 4.02873C28.6779 3.49715 28.7919 3.02885 29.0199 2.62383C29.2479 2.21881 29.5519 1.86442 29.9319 1.58597C30.3118 1.29486 30.7425 1.07969 31.2491 0.927813C31.7557 0.775931 32.2877 0.712646 32.845 0.712646C33.1236 0.712646 33.4149 0.725303 33.6936 0.763274C33.9849 0.801244 34.2509 0.851872 34.5169 0.902499C34.7702 0.965783 35.0108 1.02907 35.2388 1.10501C35.4668 1.18095 35.6441 1.25689 35.7708 1.33283C35.9481 1.43409 36.0748 1.53534 36.1507 1.64925C36.2267 1.75051 36.2647 1.88973 36.2647 2.06693V2.6618C36.2647 2.92759 36.1634 3.06682 35.9734 3.06682C35.8721 3.06682 35.7074 3.01619 35.4921 2.91493C34.7702 2.58586 33.9596 2.42132 33.0603 2.42132C32.3384 2.42132 31.7684 2.53523 31.3757 2.77571C30.9831 3.01619 30.7805 3.38324 30.7805 3.90217C30.7805 4.25656 30.9071 4.56032 31.1604 4.8008C31.4137 5.04128 31.8824 5.28176 32.5537 5.49693L34.3522 6.06648C35.2641 6.35759 35.9228 6.76261 36.3154 7.28154C36.708 7.80047 36.898 8.39534 36.898 9.05349C36.898 9.59774 36.784 10.0914 36.5687 10.5217C36.3407 10.952 36.0368 11.3317 35.6441 11.6355C35.2515 11.9519 34.7828 12.1797 34.2382 12.3443C33.6683 12.5215 33.073 12.6101 32.427 12.6101Z" fill="white"/>
<path fill-rule="evenodd" clip-rule="evenodd" d="M34.8212 18.7585C30.6542 21.8342 24.5999 23.4669 19.3943 23.4669C12.0988 23.4669 5.52529 20.771 0.560312 16.2905C0.167673 15.9361 0.522314 15.4551 0.990948 15.7336C6.36124 18.8471 12.9854 20.733 19.8376 20.733C24.4606 20.733 29.5396 19.7711 34.2133 17.7966C34.9099 17.4802 35.5052 18.2523 34.8212 18.7585Z" fill="white"/>
<path fill-rule="evenodd" clip-rule="evenodd" d="M36.5569 16.7862C36.0249 16.1027 33.0358 16.4571 31.6806 16.6216C31.2753 16.6723 31.2119 16.3179 31.5793 16.0521C33.9604 14.3814 37.8741 14.8623 38.3301 15.4192C38.7861 15.9888 38.2035 19.8998 35.9743 21.773C35.6323 22.0641 35.303 21.9122 35.455 21.5325C35.9616 20.2795 37.0889 17.457 36.5569 16.7862Z" fill="white"/>
</svg>
