<svg width="36" height="45" viewBox="0 0 36 45" fill="none" xmlns="http://www.w3.org/2000/svg">
<path d="M4.18999 40.5837L1.10537 9.84361H34.7754L31.6876 40.5785L17.9187 43.9701L4.18999 40.5837Z" stroke="white" stroke-width="2"/>
<path d="M11.5858 19.4867H17.9403V15.4956H6.67676L6.78421 16.5663L7.88831 27.5649H17.9403V23.5737H11.9964L11.5858 19.4867V19.4867ZM12.5982 29.5605H8.08901L8.71827 35.8272L17.9197 38.0967L17.9403 38.0917V33.9392L17.9206 33.9438L12.918 32.7436L12.5982 29.5605V29.5605Z" fill="white"/>
<path d="M3.33765 0H5.62037V2.00388H7.70859V0H9.99145V6.06826H7.70873V4.03626H5.62052V6.06826H3.33779V0H3.33765ZM12.9932 2.01238H10.9839V0H17.2869V2.01238H15.2763V6.06826H12.9936V2.01238H12.9935H12.9932ZM18.2872 0H20.6674L22.1315 2.13223L23.5943 0H25.9755V6.06826H23.702V3.0605L22.1315 5.21809H22.0922L20.5207 3.0605V6.06826H18.2872V0ZM27.1115 0H29.3949V4.0625H32.6051V6.06826H27.1114V0H27.1115Z" fill="white"/>
<path fill-rule="evenodd" clip-rule="evenodd" d="M29.8132 39.3086L17.9401 42.2332V38.0905L27.1323 35.827L27.1998 35.1527L28.2555 24.6452L28.3651 23.5735H17.9401V19.4865H28.7738L28.8638 18.5895L29.0686 16.5661L29.1759 15.4954H17.9401V11.5042H32.6065L29.8132 39.3086ZM17.9401 27.5646V33.9384L22.9335 32.7409L23.455 27.5646H17.9401Z" fill="white"/>
</svg>
