<svg width="33" height="32" viewBox="0 0 33 32" fill="none" xmlns="http://www.w3.org/2000/svg">
<path d="M1.69824 1H31.4335V30.7352H1.69824V1Z" stroke="white" stroke-width="2"/>
<path d="M9.04114 26.5208L11.4696 25.051C11.9382 25.8817 12.3644 26.5846 13.3868 26.5846C14.3667 26.5846 14.9847 26.2013 14.9847 24.7102V14.5701H17.9669V24.7524C17.9669 27.8412 16.1563 29.2473 13.5146 29.2473C11.1288 29.2473 9.74403 28.0117 9.04102 26.5205L9.04114 26.5208ZM19.5868 26.2012L22.015 24.7953C22.6543 25.8392 23.4851 26.606 24.9549 26.606C26.1907 26.606 26.9786 25.9882 26.9786 25.1361C26.9786 24.1136 26.1691 23.7514 24.8057 23.1551L24.0603 22.8352C21.9087 21.9195 20.4814 20.7691 20.4814 18.3406C20.4814 16.1038 22.1856 14.3995 24.8485 14.3995C26.7444 14.3995 28.1078 15.06 29.0876 16.7855L26.7655 18.2768C26.2542 17.3608 25.7005 16.9987 24.8484 16.9987C23.9749 16.9987 23.421 17.5526 23.421 18.2768C23.421 19.1714 23.9749 19.5338 25.253 20.0877L25.9985 20.4071C28.5336 21.4937 29.9608 22.6013 29.9608 25.0935C29.9608 27.7779 27.8519 29.2476 25.0187 29.2476C22.2494 29.2476 20.4601 27.9268 19.5868 26.2012Z" fill="white"/>
</svg>
