<svg width="37" height="26" viewBox="0 0 37 26" fill="none" xmlns="http://www.w3.org/2000/svg">
<path d="M23.3531 25.8185C23.2571 25.8187 23.1627 25.7928 23.0791 25.7434C22.9956 25.694 22.9257 25.6228 22.8764 25.5368L18.6806 18.2235L10.8334 20.4525C10.7139 20.4825 10.5882 20.4702 10.4762 20.4175C10.3641 20.3648 10.272 20.2747 10.2143 20.1614L1.0444 2.15091C1.00204 2.06842 0.97944 1.97642 0.978543 1.8828C0.977647 1.78918 0.998477 1.69673 1.03925 1.61336C1.08003 1.53 1.13953 1.4582 1.21267 1.40412C1.2858 1.35004 1.37039 1.31529 1.45919 1.30285L9.24455 0.208953C9.35209 0.193412 9.46163 0.21121 9.55958 0.260139C9.65753 0.309069 9.73958 0.386975 9.79554 0.484191L19.1945 16.875L30.1164 13.7715L26.475 8.39612C26.4222 8.31977 26.388 8.23112 26.3754 8.13786C26.3628 8.0446 26.3722 7.94953 26.4027 7.8609C26.4332 7.77226 26.4839 7.69274 26.5504 7.6292C26.6169 7.56567 26.6973 7.52005 26.7845 7.4963L31.8948 6.2342C31.9969 6.2088 32.1037 6.21415 32.2029 6.24965C32.3021 6.28515 32.3897 6.34934 32.4554 6.43475L36.8774 12.1983C36.9351 12.2734 36.974 12.3623 36.9906 12.457C37.0071 12.5518 37.0008 12.6493 36.9722 12.7409C36.9436 12.8324 36.8936 12.9151 36.8267 12.9813C36.7599 13.0476 36.6782 13.0954 36.5893 13.1205L31.9444 14.4437L36.0101 20.4307C36.0601 20.504 36.093 20.5884 36.1063 20.6773C36.1196 20.7662 36.1129 20.8572 36.0868 20.9429C36.0606 21.0286 36.0157 21.1068 35.9556 21.1712C35.8955 21.2356 35.8219 21.2846 35.7405 21.3141L23.5304 25.7767C23.4737 25.7986 23.414 25.8108 23.3536 25.8126L23.3531 25.8185ZM19.7916 17.9065L23.5945 24.5334L34.6774 20.479L30.8064 14.7772L19.7916 17.9065ZM2.39683 2.33205L10.978 19.211L18.1004 17.192L9.03012 1.41047L2.39683 2.33205ZM27.864 8.42846L31.2701 13.4474L35.5064 12.2436L31.8211 7.44807L27.864 8.42846Z" fill="white"/>
</svg>
