<svg width="43" height="43" viewBox="0 0 43 43" fill="none" xmlns="http://www.w3.org/2000/svg">
<path fill-rule="evenodd" clip-rule="evenodd" d="M6.125 1C6.125 0.447715 5.67728 0 5.125 0C4.57272 0 4.125 0.447715 4.125 1V1.63186C1.78077 2.04563 0 4.09263 0 6.55556V37.4444C0 40.2059 2.23858 42.4444 5 42.4444H22.375H22.7831L23.0747 42.1589L29.8247 35.5478L30.125 35.2536V34.8333V6.55555C30.125 4.09263 28.3442 2.04563 26 1.63186V1C26 0.447715 25.5523 0 25 0C24.4477 0 24 0.447715 24 1V1.55556H21.125V1C21.125 0.447715 20.6773 0 20.125 0C19.5727 0 19.125 0.447715 19.125 1V1.55556H15.875V1C15.875 0.447715 15.4273 0 14.875 0C14.3227 0 13.875 0.447715 13.875 1V1.55556H11V1C11 0.447715 10.5523 0 10 0C9.44771 0 9 0.447715 9 1V1.55556H6.125V1ZM2 6.55556C2 5.20308 2.89498 4.05964 4.125 3.68516V4.5C4.125 5.05228 4.57272 5.5 5.125 5.5C5.67728 5.5 6.125 5.05228 6.125 4.5V3.55556H9V4.5C9 5.05228 9.44771 5.5 10 5.5C10.5523 5.5 11 5.05228 11 4.5V3.55556H13.875V4.5C13.875 5.05228 14.3227 5.5 14.875 5.5C15.4273 5.5 15.875 5.05228 15.875 4.5V3.55556H19.125V4.5C19.125 5.05228 19.5727 5.5 20.125 5.5C20.6773 5.5 21.125 5.05228 21.125 4.5V3.55556H24V4.5C24 5.05228 24.4477 5.5 25 5.5C25.5523 5.5 26 5.05228 26 4.5V3.68516C27.23 4.05964 28.125 5.20308 28.125 6.55555V33.8333H26.375C23.6136 33.8333 21.375 36.0719 21.375 38.8333V40.4444H5C3.34314 40.4444 2 39.1013 2 37.4444V6.55556ZM26.375 35.8333H26.6748L23.375 39.0653V38.8333C23.375 37.1765 24.7181 35.8333 26.375 35.8333ZM5.125 11.2778C4.57272 11.2778 4.125 11.7255 4.125 12.2778C4.125 12.8301 4.57272 13.2778 5.125 13.2778H25C25.5523 13.2778 26 12.8301 26 12.2778C26 11.7255 25.5523 11.2778 25 11.2778H5.125ZM4.9375 19.4444C4.38522 19.4444 3.9375 19.8922 3.9375 20.4444C3.9375 20.9967 4.38522 21.4444 4.9375 21.4444H14.875H25C25.5523 21.4444 26 20.9967 26 20.4444C26 19.8922 25.5523 19.4444 25 19.4444H14.875H4.9375ZM5.125 27.6111C4.57272 27.6111 4.125 28.0588 4.125 28.6111C4.125 29.1634 4.57272 29.6111 5.125 29.6111H25C25.5523 29.6111 26 29.1634 26 28.6111C26 28.0588 25.5523 27.6111 25 27.6111H5.125ZM5.125 35C4.57272 35 4.125 35.4477 4.125 36C4.125 36.5523 4.57272 37 5.125 37H12.0625H19C19.5523 37 20 36.5523 20 36C20 35.4477 19.5523 35 19 35H12.0625H5.125ZM39.8659 1.59015C39.3334 0.416606 37.6666 0.416601 37.1341 1.59015L34.5894 7.19789L34.5 7.39483V7.61111V37.1667V40.2778V40.8857L35.0397 41.1655L35.5 40.2778C35.0397 41.1655 35.0399 41.1656 35.0401 41.1657L35.0405 41.1659L35.0414 41.1664L35.0436 41.1676L35.0498 41.1707L35.0687 41.1803C35.0842 41.1881 35.1053 41.1985 35.1318 41.2113C35.1846 41.2369 35.2589 41.2719 35.3517 41.3131C35.5366 41.3953 35.7978 41.5036 36.1108 41.6118C36.7242 41.8238 37.5931 42.0556 38.5 42.0556C39.4069 42.0556 40.2758 41.8238 40.8892 41.6118C41.2022 41.5036 41.4634 41.3953 41.6483 41.3131C41.7411 41.2719 41.8154 41.2369 41.8682 41.2113C41.8947 41.1985 41.9158 41.1881 41.9313 41.1803L41.9502 41.1707L41.9564 41.1676L41.9586 41.1664L41.9595 41.1659L41.9599 41.1657C41.9601 41.1656 41.9603 41.1655 41.5 40.2778L41.9603 41.1655L42.5 40.8857V40.2778V37.1667V7.61111V7.39483L42.4106 7.19789L40.9106 3.89233L39.8659 1.59015ZM36.7642 39.7215C36.6697 39.6889 36.5812 39.6562 36.5 39.6248V37.1667V9.07039C37.0669 9.23923 37.7712 9.38889 38.5 9.38889C39.2288 9.38889 39.9331 9.23923 40.5 9.07039V37.1667V39.6248C40.4188 39.6562 40.3303 39.6889 40.2358 39.7215C39.7242 39.8984 39.0931 40.0556 38.5 40.0556C37.9069 40.0556 37.2758 39.8984 36.7642 39.7215ZM38.5 7.38889C37.9354 7.38889 37.3366 7.24651 36.839 7.0803L38.5 3.41998L39.0894 4.71878L40.161 7.0803C39.6634 7.24651 39.0646 7.38889 38.5 7.38889Z" fill="white"/>
</svg>
