<svg width="57" height="49" viewBox="0 0 57 49" fill="none" xmlns="http://www.w3.org/2000/svg">
<path d="M14.948 11.4C16.064 11.4 17.03 11.586 17.846 11.958C18.674 12.33 19.31 12.858 19.754 13.542C20.198 14.226 20.42 15.036 20.42 15.972C20.42 16.896 20.198 17.706 19.754 18.402C19.31 19.086 18.674 19.614 17.846 19.986C17.03 20.346 16.064 20.526 14.948 20.526H12.41V24H9.494V11.4H14.948ZM14.786 18.15C15.662 18.15 16.328 17.964 16.784 17.592C17.24 17.208 17.468 16.668 17.468 15.972C17.468 15.264 17.24 14.724 16.784 14.352C16.328 13.968 15.662 13.776 14.786 13.776H12.41V18.15H14.786ZM34.0578 11.4V24H31.1418V18.834H25.4178V24H22.5018V11.4H25.4178V16.368H31.1418V11.4H34.0578ZM42.4929 11.4C43.6089 11.4 44.5749 11.586 45.3909 11.958C46.2189 12.33 46.8549 12.858 47.2989 13.542C47.7429 14.226 47.9649 15.036 47.9649 15.972C47.9649 16.896 47.7429 17.706 47.2989 18.402C46.8549 19.086 46.2189 19.614 45.3909 19.986C44.5749 20.346 43.6089 20.526 42.4929 20.526H39.9549V24H37.0389V11.4H42.4929ZM42.3309 18.15C43.2069 18.15 43.8729 17.964 44.3289 17.592C44.7849 17.208 45.0129 16.668 45.0129 15.972C45.0129 15.264 44.7849 14.724 44.3289 14.352C43.8729 13.968 43.2069 13.776 42.3309 13.776H39.9549V18.15H42.3309Z" fill="white"/>
<path d="M56 17.4988C56 21.8538 53.1217 25.9561 48.1292 29.0218C43.1531 32.0775 36.2155 34 28.4992 34C20.7835 34 13.8462 32.0775 8.87047 29.0219C3.87824 25.9561 1 21.8538 1 17.4988C1 13.1445 3.87804 9.04283 8.87024 5.97751C13.8459 2.92231 20.7832 1 28.4992 1C36.2155 1 43.1532 2.92232 48.1292 5.97752C53.1217 9.04286 56 13.1446 56 17.4988Z" stroke="white" stroke-width="2"/>
</svg>
