<svg width="52" height="43" viewBox="0 0 52 43" fill="none" xmlns="http://www.w3.org/2000/svg">
<path fill-rule="evenodd" clip-rule="evenodd" d="M3 0C1.34314 0 0 1.34315 0 3V6.54226V39.4585C0 41.1153 1.34315 42.4585 3 42.4585H12.1844H48.8638C50.5206 42.4585 51.8638 41.1153 51.8638 39.4585V6.54226V3C51.8638 1.34315 50.5206 0 48.8638 0H3ZM2 3C2 2.44772 2.44772 2 3 2H48.8638C49.4161 2 49.8638 2.44772 49.8638 3V5.54226H12.1844H2V3ZM13.1844 7.54226H49.8638V39.4585C49.8638 40.0108 49.4161 40.4585 48.8638 40.4585H13.1844V7.54226ZM11.1844 7.54226V40.4585H3C2.44772 40.4585 2 40.0108 2 39.4585V7.54226H11.1844ZM8.92228 9.97606H2.86407V10.9761H2.7961V20.3979V21.3979H3.7961H8.92228H9.92228V20.3979V10.9761V9.97606H8.92228ZM4.7961 19.3979V11.9761H7.92228V19.3979H4.7961ZM18.7086 11.0845H17.7086V12.0845V19.8437V33.6993V34.6993H18.7086H43.4075H44.4075V33.6993V12.0845V11.0845H43.4075H18.7086ZM19.7086 17.8328V13.0845H42.4075V30.9562L34.8526 21.9712L34.0411 21.0061L33.2862 22.0161L30.4791 25.7719L24.7071 15.4751L24.1461 14.4744L23.2313 15.1667L19.7086 17.8328ZM34.1333 24.2235L41.2601 32.6993H19.7086V20.341L23.5235 17.4538L29.4868 28.0918L30.239 29.4338L31.16 28.2015L34.1333 24.2235ZM3.7961 24.9402H2.7961V25.9402V35.9162V36.9162H3.7961H8.92228H9.92228V35.9162V25.9402V24.9402H8.92228H3.7961ZM4.7961 34.9162V26.9402H7.92228V34.9162H4.7961ZM38.2833 20.398C39.8276 20.398 41.0794 18.9092 41.0794 17.0727C41.0794 15.2361 39.8276 13.7473 38.2833 13.7473C36.7391 13.7473 35.4872 15.2361 35.4872 17.0727C35.4872 18.9092 36.7391 20.398 38.2833 20.398Z" fill="white"/>
</svg>
