<svg width="44" height="46" viewBox="0 0 44 46" fill="none" xmlns="http://www.w3.org/2000/svg">
<path d="M21.3164 21.1285C21.7455 21.3511 22.2556 21.3533 22.6866 21.1344L40.2569 12.2084C41.3714 11.6422 41.3451 10.0414 40.2127 9.51214L22.6419 1.29999C22.2355 1.11006 21.7654 1.11197 21.3606 1.3052L4.15632 9.51711C3.03871 10.0506 3.01241 11.632 4.11167 12.2023L21.3164 21.1285Z" stroke="white" stroke-width="2"/>
<path d="M3.57698 17.9089C2.59167 17.3932 1.40746 18.0915 1.38182 19.2033L1.02086 34.854C1.00803 35.4103 1.30417 35.9279 1.79018 36.1988L17.1447 44.7569C18.1446 45.3142 19.375 44.5913 19.375 43.4467V27.0852C19.375 26.527 19.0651 26.015 18.5706 25.7562L3.57698 17.9089Z" stroke="white" stroke-width="2"/>
<path d="M25.4114 25.7519C24.9269 26.014 24.625 26.5205 24.625 27.0713V43.475C24.625 44.6131 25.8429 45.3367 26.8425 44.7923L42.2175 36.4183C42.6998 36.1556 43 35.6503 43 35.101V18.7557C43 17.6194 41.7858 16.8958 40.7864 17.4363L25.4114 25.7519Z" stroke="white" stroke-width="2"/>
</svg>
